<?xml version="1.0" encoding="UTF-8" standalone="no"?><svg width="400" height="400" id="seen-canvas" xmlns="http://www.w3.org/2000/svg"><g><path style="fill:#7cbeff;fill-opacity:0.5;" d="M104.46624888614498 115.45641096922452L114.20755963302611 260.99619049546135L171.1251020343972 236.85235286264248L168.95806719287907 109.11481431970103"></path><path style="fill:none;stroke:#ff0000;stroke-width:1;" d="M128.1835952381869 113.12424158540685L134.92900417743402 252.20636627800548"></path><path style="fill:#7cbeff;fill-opacity:0.5;" d="M146.70777900994145 204.5512499111714L149.41883547028758 278.23289762999855L205.84244255836768 249.9176149461999L206.6711688636335 185.2484862586744"></path><path style="fill:none;stroke:#ff0000;stroke-width:1;" d="M168.81444397263104 197.4349122597993L170.1045418368705 267.852107504874"></path><path style="fill:none;stroke:#ff0000;stroke-width:1;" d="M188.69558515667833 191.0349910686533L188.8231236079938 258.4584873227796"></path><path style="fill:#7cbeff;fill-opacity:0.5;" d="M146.60700073177776 201.74455241416183L146.70777900994145 204.5512499111714L206.6711688636335 185.2484862586744L206.70491374143307 182.80748794566807"></path><path style="fill:none;stroke:#ff0000;stroke-width:1;" d="M168.7679443275473 194.76156088351883L168.81444397263104 197.4349122597993"></path><path style="fill:none;stroke:#ff0000;stroke-width:1;" d="M188.69322713496274 188.48303395669572L188.69558515667833 191.0349910686533"></path><path style="fill:#7cbfff;fill-opacity:0.5;" d="M146.53074181891242 199.1967297171187L146.60700073177776 201.74455241416183L206.70491374143307 182.80748794566807L206.7505824828677 180.59242759539018"></path><path style="fill:none;stroke:#ff0000;stroke-width:1;" d="M168.74087846479694 192.3351358010751L168.7679443275473 194.76156088351883"></path><path style="fill:none;stroke:#ff0000;stroke-width:1;" d="M188.70616941515036 186.16706393815977L188.69322713496274 188.48303395669572"></path><path style="fill:#7dc1ff;fill-opacity:0.5;" d="M146.4932950061967 196.88571760705244L146.53074181891242 199.1967297171187L206.7505824828677 180.59242759539018L206.82334575859812 178.5831566909896"></path><path style="fill:none;stroke:#ff0000;stroke-width:1;" d="M168.74786854334212 190.13426152928028L168.74087846479694 192.3351358010751"></path><path style="fill:none;stroke:#ff0000;stroke-width:1;" d="M188.74932491904494 184.0663423221727L188.70616941515036 186.16706393815977"></path><path style="fill:#7fc3ff;fill-opacity:0.5;" d="M146.50903169986566 194.78850316385572L146.4932950061967 196.88571760705244L206.82334575859812 178.5831566909896L206.93847925784473 176.75881436917743"></path><path style="fill:none;stroke:#ff0000;stroke-width:1;" d="M168.80362800163908 188.13670260356935L168.74786854334212 190.13426152928028"></path><path style="fill:none;stroke:#ff0000;stroke-width:1;" d="M188.83770627703296 182.15934866123825L188.74932491904494 184.0663423221727"></path><path style="fill:#82c7ff;fill-opacity:0.5;" d="M146.59241626517144 192.88127192971078L146.50903169986566 194.78850316385572L206.93847925784473 176.75881436917743L207.11136962844384 175.09793826569916"></path><path style="fill:none;stroke:#ff0000;stroke-width:1;" d="M168.9229725056863 186.3194973044237L168.80362800163908 188.13670260356935"></path><path style="fill:none;stroke:#ff0000;stroke-width:1;" d="M188.9864340463881 180.42390243364565L188.83770627703296 182.15934866123825"></path><path style="fill:#85ccff;fill-opacity:0.5;" d="M146.75803766939114 191.13952969602855L146.59241626517144 192.88127192971078L207.11136962844384 175.09793826569916L207.35753608008008 173.57855540855041"></path><path style="fill:none;stroke:#ff0000;stroke-width:1;" d="M169.12084774667932 184.6590679255109L168.9229725056863 186.3194973044237"></path><path style="fill:none;stroke:#ff0000;stroke-width:1;" d="M189.21076121202336 178.8372630747246L188.9864340463881 180.42390243364565"></path><path style="fill:#88d1ff;fill-opacity:0.5;" d="M147.02065893892936 189.53819688111085L146.75803766939114 191.13952969602855L207.35753608008008 173.57855540855041L207.692668051501 172.17825184789348"></path><path style="fill:none;stroke:#ff0000;stroke-width:1;" d="M169.4123745347098 183.13130583484684L169.12084774667932 184.6590679255109"></path><path style="fill:none;stroke:#ff0000;stroke-width:1;" d="M189.5261143958358 177.37620684424442L189.21076121202336 178.8372630747246"></path><path style="fill:#8cd6ff;fill-opacity:0.5;" d="M147.3952850296677 188.05167380743018L147.02065893892936 189.53819688111085L207.692668051501 172.17825184789348L208.13267943055098 170.8742199275624"></path><path style="fill:none;stroke:#ff0000;stroke-width:1;" d="M169.81291175572866 181.711629869401L169.4123745347098 183.13130583484684"></path><path style="fill:none;stroke:#ff0000;stroke-width:1;" d="M189.9481523042757 176.01707926685364L189.5261143958358 177.37620684424442"></path><path style="fill:#8edbff;fill-opacity:0.5;" d="M147.89724994515743 186.65387538522543L147.3952850296677 188.05167380743018L208.13267943055098 170.8742199275624L208.69377997625213 169.6432822275099"></path><path style="fill:none;stroke:#ff0000;stroke-width:1;" d="M170.33813796713886 180.37501677200297L169.81291175572866 181.711629869401"></path><path style="fill:none;stroke:#ff0000;stroke-width:1;" d="M190.49284212704245 174.73582202679484L189.9481523042757 176.01707926685364"></path><path style="fill:#91deff;fill-opacity:0.5;" d="M148.54232427560493 185.3182337548251L147.89724994515743 186.65387538522543L208.69377997625213 169.6432822275099L209.3925648301442 168.4618912316359"></path><path style="fill:none;stroke:#ff0000;stroke-width:1;" d="M171.00415270986244 179.09600241548307L170.33813796713886 180.37501677200297"></path><path style="fill:none;stroke:#ff0000;stroke-width:1;" d="M191.17655486894432 173.5079732275912L190.49284212704245 174.73582202679484"></path><path style="fill:#92e0ff;fill-opacity:0.5;" d="M149.3468447833215 184.01766731967618L148.54232427560493 185.3182337548251L209.3925648301442 168.4618912316359L210.24612332704655 167.30610369331606"></path><path style="fill:none;stroke:#ff0000;stroke-width:1;" d="M171.82759902154345 177.84865245111956L171.00415270986244 179.09600241548307"></path><path style="fill:none;stroke:#ff0000;stroke-width:1;" d="M192.01618096058516 172.30863983244717L191.17655486894432 173.5079732275912"></path><path style="fill:#92e0ff;fill-opacity:0.5;" d="M150.32786824403567 182.72451429936234L149.3468447833215 184.01766731967618L210.24612332704655 167.30610369331606L211.2721687338179 166.15152847263428"></path><path style="fill:none;stroke:#ff0000;stroke-width:1;" d="M172.82580916112 176.60650075333902L171.82759902154345 177.84865245111956"></path><path style="fill:none;stroke:#ff0000;stroke-width:1;" d="M193.02926796403958 171.11244087077773L192.01618096058516 172.30863983244717"></path><path style="fill:#9be9ff;fill-opacity:0.5;" d="M191.38060603635554 298.77412293057563L191.38060603635554 298.77412293057563L246.23518873235534 265.11871638636876L246.23518873235534 265.11871638636876"></path><path style="fill:none;stroke:#ff0000;stroke-width:1;" d="M220.74608072204887 280.75726927246376L220.74608072204887 280.75726927246376"></path><path style="fill:#7cbeff;fill-opacity:0.5;" d="M191.38438487222786 296.1131197967387L191.38060603635554 298.77412293057563L246.23518873235534 265.11871638636876L246.35089014451341 262.781469854342"></path><path style="fill:none;stroke:#ff0000;stroke-width:1;" d="M220.81463460222764 278.2666371641186L220.74608072204887 280.75726927246376"></path><path style="fill:#98e9ff;fill-opacity:0.5;" d="M151.5033524920457 181.41042842614343L150.32786824403567 182.72451429936234L211.2721687338179 166.15152847263428L212.48919107345856 164.97324629327724"></path><path style="fill:none;stroke:#ff0000;stroke-width:1;" d="M174.01697621991676 175.34245359307093L172.82580916112 176.60650075333902"></path><path style="fill:none;stroke:#ff0000;stroke-width:1;" d="M194.2341827846382 169.89341961646204L193.02926796403958 171.11244087077773"></path><path style="fill:#7cbfff;fill-opacity:0.5;" d="M191.40529790002273 293.7010719954053L191.38438487222786 296.1131197967387L246.35089014451341 262.781469854342L246.47266056484395 260.66308161917965"></path><path style="fill:none;stroke:#ff0000;stroke-width:1;" d="M220.89414170220158 276.00906550378534L220.81463460222764 278.2666371641186"></path><path style="fill:#7dc1ff;fill-opacity:0.5;" d="M191.46070134454476 291.52092897984056L191.40529790002273 293.7010719954053L246.47266056484395 260.66308161917965L246.61805110650008 258.7470015464497"></path><path style="fill:none;stroke:#ff0000;stroke-width:1;" d="M221.0022696784606 273.9676342508011L220.89414170220158 276.00906550378534"></path><path style="fill:#9ceeff;fill-opacity:0.5;" d="M152.89236854421205 180.04623367119106L151.5033524920457 181.41042842614343L212.48919107345856 164.97324629327724L213.9166358517704 163.74569939756148"></path><path style="fill:none;stroke:#ff0000;stroke-width:1;" d="M175.42035512756692 174.02865683463375L174.01697621991676 175.34245359307093"></path><path style="fill:none;stroke:#ff0000;stroke-width:1;" d="M195.65030154403408 168.62492239480267L194.2341827846382 169.89341961646204"></path><path style="fill:#7fc3ff;fill-opacity:0.5;" d="M191.56808599354974 289.5547445405703L191.46070134454476 291.52092897984056L246.61805110650008 258.7470015464497L246.8047561612382 257.0159986143234"></path><path style="fill:none;stroke:#ff0000;stroke-width:1;" d="M221.1568291530902 272.12464614719437L221.0022696784606 273.9676342508011"></path><path style="fill:#82c7ff;fill-opacity:0.5;" d="M191.7450876720328 287.78382227894497L191.56808599354974 289.5547445405703L246.8047561612382 257.0159986143234L247.0506165835683 255.452270815941"></path><path style="fill:none;stroke:#ff0000;stroke-width:1;" d="M221.3757796887857 270.46175226752797L221.1568291530902 272.12464614719437"></path><path style="fill:#9ef2ff;fill-opacity:0.5;" d="M154.51534883997078 178.6017338776089L152.89236854421205 180.04623367119106L213.9166358517704 163.74569939756148L215.57511232334878 162.4425484432614"></path><path style="fill:none;stroke:#ff0000;stroke-width:1;" d="M177.0564976025189 172.6363225825523L175.42035512756692 174.02865683463375"></path><path style="fill:none;stroke:#ff0000;stroke-width:1;" d="M197.298231196857 167.2794409308143L195.65030154403408 168.62492239480267"></path><path style="fill:#85ccff;fill-opacity:0.5;" d="M192.00951935157119 286.1888411604009L191.7450876720328 287.78382227894497L247.0506165835683 255.452270815941L247.37364142101958 254.03753840136022"></path><path style="fill:none;stroke:#ff0000;stroke-width:1;" d="M221.6772558823608 268.9600593478697L221.3757796887857 270.46175226752797"></path><path style="fill:#88d1ff;fill-opacity:0.5;" d="M192.37942554440025 284.7499592561473L192.00951935157119 286.1888411604009L247.37364142101958 254.03753840136022L247.79204870378845 252.7531192145366"></path><path style="fill:none;stroke:#ff0000;stroke-width:1;" d="M222.07961415731845 267.60021737297126L221.6772558823608 268.9600593478697"></path><path style="fill:#8cd6ff;fill-opacity:0.5;" d="M192.8731597881356 283.44689415139237L192.37942554440025 284.7499592561473L247.79204870378845 252.7531192145366L248.3243259031442 251.57998511431472"></path><path style="fill:none;stroke:#ff0000;stroke-width:1;" d="M222.60150095607978 266.36248619039054L222.07961415731845 267.60021737297126"></path><path style="fill:#a0f4ff;fill-opacity:0.5;" d="M156.39437809627685 177.0454718399263L154.51534883997078 178.6017338776089L215.57511232334878 162.4425484432614L217.48663595185837 161.03649315531888"></path><path style="fill:none;stroke:#ff0000;stroke-width:1;" d="M178.94752690160377 171.13551055892788L177.0564976025189 172.6363225825523"></path><path style="fill:none;stroke:#ff0000;stroke-width:1;" d="M199.20006812999998 165.82841417363846L197.298231196857 167.2794409308143"></path><path style="fill:#8edbff;fill-opacity:0.5;" d="M193.5094863054287 282.2589787561114L192.8731597881356 283.44689415139237L248.3243259031442 251.57998511431472L248.9893108520065 250.49879862360743"></path><path style="fill:none;stroke:#ff0000;stroke-width:1;" d="M223.26194325569605 265.2267801172757L222.60150095607978 266.36248619039054"></path><path style="fill:#91deff;fill-opacity:0.5;" d="M194.30770733393675 281.16519138839533L193.5094863054287 282.2589787561114L248.9893108520065 250.49879862360743L249.8062941996518 249.4899290206914"></path><path style="fill:none;stroke:#ff0000;stroke-width:1;" d="M224.08046266554388 264.17268960055793L223.26194325569605 265.2267801172757"></path><path style="fill:#a1f6ff;fill-opacity:0.5;" d="M158.55353512607914 175.34443062449415L156.39437809627685 177.0454718399263L217.48663595185837 161.03649315531888L219.67491098909935 159.49905217687214"></path><path style="fill:none;stroke:#ff0000;stroke-width:1;" d="M181.1174598663092 169.49485800404332L178.94752690160377 171.13551055892788"></path><path style="fill:none;stroke:#ff0000;stroke-width:1;" d="M201.37970043321894 164.24198426803676L199.20006812999998 165.82841417363846"></path><path style="fill:#92e0ff;fill-opacity:0.5;" d="M195.28781818084084 280.14415899932794L194.30770733393675 281.16519138839533L249.8062941996518 249.4899290206914L250.79514485467857 248.53344706414796"></path><path style="fill:none;stroke:#ff0000;stroke-width:1;" d="M225.0772148231657 263.17947897579546L224.08046266554388 264.17268960055793"></path><path style="fill:#92e0ff;fill-opacity:0.5;" d="M196.47069278443064 279.17413226012275L195.28781818084084 280.14415899932794L250.79514485467857 248.53344706414796L251.9764603691091 247.60909742118668"></path><path style="fill:none;stroke:#ff0000;stroke-width:1;" d="M226.2731564015656 262.22605923463306L225.0772148231657 263.17947897579546"></path><path style="fill:#a2f7ff;fill-opacity:0.5;" d="M161.01929632794653 173.4636676606515L158.55353512607914 175.34443062449415L219.67491098909935 159.49905217687214L222.16566068958662 157.800296199017"></path><path style="fill:none;stroke:#ff0000;stroke-width:1;" d="M183.5925858476569 167.68124997237993L181.1174598663092 169.49485800404332"></path><path style="fill:none;stroke:#ff0000;stroke-width:1;" d="M203.86316235824074 162.48869972116756L201.37970043321894 164.24198426803676"></path><path style="fill:#98e9ff;fill-opacity:0.5;" d="M197.878303493996 278.2329309220741L196.47069278443064 279.17413226012275L251.9764603691091 247.60909742118668L253.37174485016982 246.6962476388381"></path><path style="fill:none;stroke:#ff0000;stroke-width:1;" d="M227.6902428013452 261.29093444431686L226.2731564015656 262.22605923463306"></path><path style="fill:#9ceeff;fill-opacity:0.5;" d="M199.5339799521363 277.29785736752643L197.878303493996 278.2329309220741L253.37174485016982 246.6962476388381L255.0036177804434 245.7738121465024"></path><path style="fill:none;stroke:#ff0000;stroke-width:1;" d="M229.35166055694035 260.35212004936767L227.6902428013452 261.29093444431686"></path><path style="fill:#a3f8ff;fill-opacity:0.5;" d="M163.82101458986972 171.36586919281535L161.01929632794653 173.4636676606515L222.16566068958662 157.800296199017L224.98701468866255 155.90852670713338"></path><path style="fill:none;stroke:#ff0000;stroke-width:1;" d="M186.4019147574141 165.6594194174341L183.5925858476569 167.68124997237993"></path><path style="fill:none;stroke:#ff0000;stroke-width:1;" d="M206.6790518079635 160.5351567304313L203.86316235824074 162.48869972116756"></path><path style="fill:#9ef2ff;fill-opacity:0.5;" d="M201.46271344155517 276.3455755669979L199.5339799521363 277.29785736752643L255.0036177804434 245.7738121465024L256.8960581170198 244.82014928945927"></path><path style="fill:none;stroke:#ff0000;stroke-width:1;" d="M231.2820996834523 259.38703070354023L229.35166055694035 260.35212004936767"></path><path style="fill:#a0f4ff;fill-opacity:0.5;" d="M203.69151492571098 275.3519517030166L201.46271344155517 276.3455755669979L256.8960581170198 244.82014928945927L259.07468927416943 243.8129287420279"></path><path style="fill:none;stroke:#ff0000;stroke-width:1;" d="M233.50807269169596 258.3723344986586L231.2820996834523 259.38703070354023"></path><path style="fill:#a3f8ff;fill-opacity:0.5;" d="M166.99149129327952 169.01080885053835L163.82101458986972 171.36586919281535L224.98701468866255 155.90852670713338L228.169965633357 153.78989045331164"></path><path style="fill:none;stroke:#ff0000;stroke-width:1;" d="M189.57770993392913 163.3914632467197L186.4019147574141 165.6594194174341"></path><path style="fill:none;stroke:#ff0000;stroke-width:1;" d="M209.85902467738754 158.3455669567492L206.6790518079635 160.5351567304313"></path><path style="fill:#7bbdff;fill-opacity:0.5;" d="M166.90798896360013 165.8672349889205L166.99149129327952 169.01080885053835L228.169965633357 153.78989045331164L228.2277761876102 151.10007147267115"></path><path style="fill:none;stroke:#ff0000;stroke-width:1;" d="M189.57228086890805 160.40917129207455L189.57770993392913 163.3914632467197"></path><path style="fill:none;stroke:#ff0000;stroke-width:1;" d="M209.89773816338615 155.51435079451454L209.85902467738754 158.3455669567492"></path><path style="fill:#a1f6ff;fill-opacity:0.5;" d="M206.24983738547306 274.29185145711705L203.69151492571098 275.3519517030166L259.07468927416943 243.8129287420279L261.5671121373852 242.72896580237554"></path><path style="fill:none;stroke:#ff0000;stroke-width:1;" d="M236.05828888963669 257.2837694322826L233.50807269169596 258.3723344986586"></path><path style="fill:#6ca2f0;fill-opacity:0.5;" d="M166.99149129327952 169.01080885053835L170.37531012782074 172.92303930265365L231.27606997900693 157.03526345147372L228.169965633357 153.78989045331164"></path><path style="fill:none;stroke:#ff0000;stroke-width:1;" d="M189.57770993392913 163.3914632467197L192.88970550602343 167.04948915208422"></path><path style="fill:none;stroke:#ff0000;stroke-width:1;" d="M209.85902467738754 158.3455669567492L213.07576802851017 161.7833539271897"></path><path style="fill:#6ba4f7;fill-opacity:0.5;" d="M192.9498953199604 237.41284835178746L193.605416610884 239.24631128834648L250.86186816257424 213.11348176770136L250.30753155481415 211.56369925931506"></path><path style="fill:none;stroke:#ff0000;stroke-width:1;" d="M214.90046499092603 227.52046809807143L215.78448451875138 229.12340312943172"></path><path style="fill:none;stroke:#ff0000;stroke-width:1;" d="M232.6833310730381 219.5063310655439L233.02122070606285 221.25626019500297"></path><path style="fill:#7bbdff;fill-opacity:0.5;" d="M166.8321466095516 163.00748422468504L166.90798896360013 165.8672349889205L228.2277761876102 151.10007147267115L228.28044586353298 148.65489138819467"></path><path style="fill:none;stroke:#ff0000;stroke-width:1;" d="M189.56735467780064 157.69717965290593L189.57228086890805 160.40917129207455"></path><path style="fill:none;stroke:#ff0000;stroke-width:1;" d="M209.93295594224355 152.9403485222229L209.89773816338615 155.51435079451454"></path><path style="fill:#69a0f0;fill-opacity:0.5;" d="M193.605416610884 239.24631128834648L194.425324865917 241.10898365229284L251.5728918247901 214.67975540172665L250.86186816257424 213.11348176770136"></path><path style="fill:none;stroke:#ff0000;stroke-width:1;" d="M215.78448451875138 229.12340312943172L216.89549681180293 230.71712736181115"></path><path style="fill:none;stroke:#ff0000;stroke-width:1;" d="M233.02122070606285 221.25626019500297L233.4578031333954 223.05750163453953"></path><path style="fill:#6da7fe;fill-opacity:0.5;" d="M192.439889597901 235.5688263198094L192.9498953199604 237.41284835178746L250.30753155481415 211.56369925931506L249.8934820773249 209.99729803816834"></path><path style="fill:none;stroke:#ff0000;stroke-width:1;" d="M214.21880953424923 225.87543304252426L214.90046499092603 227.52046809807143"></path><path style="fill:none;stroke:#ff0000;stroke-width:1;" d="M232.43365394402738 217.76834367057342L232.6833310730381 219.5063310655439"></path><path style="fill:#679ce9;fill-opacity:0.5;" d="M194.425324865917 241.10898365229284L195.4289014267974 243.0408117907199L252.4573290123686 216.29574127944466L251.5728918247901 214.67975540172665"></path><path style="fill:none;stroke:#ff0000;stroke-width:1;" d="M216.89549681180293 230.71712736181115L218.25822936308035 232.3343621965285"></path><path style="fill:none;stroke:#ff0000;stroke-width:1;" d="M233.4578031333954 223.05750163453953L234.00395490457328 224.94996536695567"></path><path style="fill:#6faaff;fill-opacity:0.5;" d="M192.05685237334103 233.6745095750609L192.439889597901 235.5688263198094L249.8934820773249 209.99729803816834L249.6035821579556 208.3811783117988"></path><path style="fill:none;stroke:#ff0000;stroke-width:1;" d="M213.7149723381212 224.15518493473854L214.21880953424923 225.87543304252426"></path><path style="fill:none;stroke:#ff0000;stroke-width:1;" d="M232.26202283766452 216.00325876973824L232.43365394402738 217.76834367057342"></path><path style="fill:#73b0ff;fill-opacity:0.5;" d="M191.78248111666124 231.69005942229782L192.05685237334103 233.6745095750609L249.6035821579556 208.3811783117988L249.42189659302076 206.68215532553197"></path><path style="fill:none;stroke:#ff0000;stroke-width:1;" d="M213.3644693923169 222.3263230180575L213.7149723381212 224.15518493473854"></path><path style="fill:none;stroke:#ff0000;stroke-width:1;" d="M232.15851151453293 214.17218753457527L232.26202283766452 216.00325876973824"></path><path style="fill:#6599e3;fill-opacity:0.5;" d="M195.4289014267974 243.0408117907199L196.63592984101706 245.08207487452404L253.53230165949296 217.99487992957387L252.4573290123686 216.29574127944466"></path><path style="fill:none;stroke:#ff0000;stroke-width:1;" d="M218.25822936308035 232.3343621965285L219.89751925981366 234.0077095472129"></path><path style="fill:none;stroke:#ff0000;stroke-width:1;" d="M234.00395490457328 224.94996536695567L234.67104146497687 226.97433882066585"></path><path style="fill:#7bbdff;fill-opacity:0.5;" d="M166.76330218278792 160.40212554994886L166.8321466095516 163.00748422468504L228.28044586353298 148.65489138819467L228.3286417486366 146.42869878221327"></path><path style="fill:none;stroke:#ff0000;stroke-width:1;" d="M189.56289079522335 155.22732453273676L189.56735467780064 157.69717965290593"></path><path style="fill:none;stroke:#ff0000;stroke-width:1;" d="M209.96506698218013 150.59666194139413L209.93295594224355 152.9403485222229"></path><path style="fill:#75b4ff;fill-opacity:0.5;" d="M191.59864321151076 229.57540607144497L191.78248111666124 231.69005942229782L249.42189659302076 206.68215532553197L249.3326363320897 204.86687001211612"></path><path style="fill:none;stroke:#ff0000;stroke-width:1;" d="M213.14285215323187 220.35508655544587L213.3644693923169 222.3263230180575"></path><path style="fill:none;stroke:#ff0000;stroke-width:1;" d="M232.11336825124866 212.23623567165265L232.15851151453293 214.17218753457527"></path><path style="fill:#6599e2;fill-opacity:0.5;" d="M196.63592984101706 245.08207487452404L198.06679567957138 247.27355132390775L254.81540138998045 219.81094710813346L253.53230165949296 217.99487992957387"></path><path style="fill:none;stroke:#ff0000;stroke-width:1;" d="M219.89751925981366 234.0077095472129L221.8383188758384 235.7696927713894"></path><path style="fill:none;stroke:#ff0000;stroke-width:1;" d="M234.67104146497687 226.97433882066585L235.47102159273828 229.17235853879066"></path><path style="fill:#6ca2ef;fill-opacity:0.5;" d="M170.37531012782074 172.92303930265365L173.44894600992959 176.4931445595757L234.09278835155897 159.99314876245703L231.27606997900693 157.03526345147372"></path><path style="fill:none;stroke:#ff0000;stroke-width:1;" d="M192.88970550602343 167.04948915208422L195.89593685227442 170.3857601944791"></path><path style="fill:none;stroke:#ff0000;stroke-width:1;" d="M213.07576802851017 161.7833539271897L215.99396112293834 164.9174833968412"></path><path style="fill:#7bbdff;fill-opacity:0.5;" d="M166.70077142144368 158.02086298184946L166.76330218278792 160.40212554994886L228.3286417486366 146.42869878221327L228.37304508884822 144.39521245286588"></path><path style="fill:none;stroke:#ff0000;stroke-width:1;" d="M189.55884733460206 152.97068182852695L189.56289079522335 155.22732453273676"></path><path style="fill:none;stroke:#ff0000;stroke-width:1;" d="M209.9944697218839 148.45570885229074L209.96506698218013 150.59666194139413"></path><path style="fill:#78b9ff;fill-opacity:0.5;" d="M191.48730588895066 227.29012777437435L191.59864321151076 229.57540607144497L249.3326363320897 204.86687001211612L249.32010564859857 202.90170482474053"></path><path style="fill:none;stroke:#ff0000;stroke-width:1;" d="M213.02567583547264 218.20727378693917L213.14285215323187 220.35508655544587"></path><path style="fill:none;stroke:#ff0000;stroke-width:1;" d="M232.11695713391245 210.15637110036968L232.11336825124866 212.23623567165265"></path><path style="fill:#679ce7;fill-opacity:0.5;" d="M198.06679567957138 247.27355132390775L199.74259498030173 249.6566982343071L256.32476972951065 221.77817822079675L254.81540138998045 219.81094710813346"></path><path style="fill:none;stroke:#ff0000;stroke-width:1;" d="M221.8383188758384 235.7696927713894L224.1056964527827 237.65279037812775"></path><path style="fill:none;stroke:#ff0000;stroke-width:1;" d="M235.47102159273828 229.17235853879066L236.41656562478377 231.58712015395275"></path><path style="fill:#a2f7ff;fill-opacity:0.5;" d="M209.17007609219198 273.1388873005735L206.24983738547306 274.29185145711705L261.5671121373852 242.72896580237554L264.40329519809734 241.54401798151508"></path><path style="fill:none;stroke:#ff0000;stroke-width:1;" d="M238.96409498506497 256.0959166273463L236.05828888963669 257.2837694322826"></path><path style="fill:#7bbdff;fill-opacity:0.5;" d="M166.6438507311386 155.83264963066472L166.70077142144368 158.02086298184946L228.37304508884822 144.39521245286588L228.41434935550765 142.52760565570543"></path><path style="fill:none;stroke:#ff0000;stroke-width:1;" d="M189.55518126012427 150.89766825603292L189.55884733460206 152.97068182852695"></path><path style="fill:none;stroke:#ff0000;stroke-width:1;" d="M210.02157079806017 146.48931444838766L209.9944697218839 148.45570885229074"></path><path style="fill:#7abcff;fill-opacity:0.5;" d="M191.430470217674 224.79333644288477L191.48730588895066 227.29012777437435L249.32010564859857 202.90170482474053L249.36865236745982 200.75270436363868"></path><path style="fill:none;stroke:#ff0000;stroke-width:1;" d="M212.98846215770558 215.84815153429048L213.02567583547264 218.20727378693917"></path><path style="fill:none;stroke:#ff0000;stroke-width:1;" d="M232.15970573776997 207.8933142178829L232.11695713391245 210.15637110036968"></path><path style="fill:#699eea;fill-opacity:0.5;" d="M199.74259498030173 249.6566982343071L201.6852525527512 252.2738456414318L258.0791850809096 223.93140242093534L256.32476972951065 221.77817822079675"></path><path style="fill:none;stroke:#ff0000;stroke-width:1;" d="M224.1056964527827 237.65279037812775L226.72483154101386 239.68946264268249"></path><path style="fill:none;stroke:#ff0000;stroke-width:1;" d="M236.41656562478377 231.58712015395275L237.52118991651147 234.26343256235637"></path><path style="fill:#6ca2ef;fill-opacity:0.5;" d="M173.44894600992959 176.4931445595757L176.2222158937884 179.74893681676997L236.62955686145088 162.68821386935602L234.09278835155897 159.99314876245703"></path><path style="fill:none;stroke:#ff0000;stroke-width:1;" d="M195.89593685227442 170.3857601944791L198.60625165389283 173.42705893850706"></path><path style="fill:none;stroke:#ff0000;stroke-width:1;" d="M215.99396112293834 164.9174833968412L218.62331329844994 167.77368076511732"></path><path style="fill:#7bbdff;fill-opacity:0.5;" d="M166.59181978468249 153.80578888982768L166.6438507311386 155.83264963066472L228.41434935550765 142.52760565570543L228.45325857304178 140.79858054219855"></path><path style="fill:none;stroke:#ff0000;stroke-width:1;" d="M189.5518485424552 148.97813076274085L189.55518126012427 150.89766825603292"></path><path style="fill:none;stroke:#ff0000;stroke-width:1;" d="M210.0467839286453 144.66879202344313L210.02157079806017 146.48931444838766"></path><path style="fill:#7bbdff;fill-opacity:0.5;" d="M191.41010871889952 222.0435692023437L191.430470217674 224.79333644288477L249.36865236745982 200.75270436363868L249.46262086907896 198.38550048381992"></path><path style="fill:none;stroke:#ff0000;stroke-width:1;" d="M213.00665631786848 213.24235478017505L212.98846215770558 215.84815153429048"></path><path style="fill:none;stroke:#ff0000;stroke-width:1;" d="M232.23205872259524 205.4074502362398L232.15970573776997 207.8933142178829"></path><path style="fill:#7bbdff;fill-opacity:0.5;" d="M166.54394381055405 151.9080215584657L166.59181978468249 153.80578888982768L228.45325857304178 140.79858054219855L228.49048592430614 139.18043205824839"></path><path style="fill:none;stroke:#ff0000;stroke-width:1;" d="M189.54880429657484 147.18142325636546L189.5518485424552 148.97813076274085"></path><path style="fill:none;stroke:#ff0000;stroke-width:1;" d="M210.0705289632402 142.96501216251983L210.0467839286453 144.66879202344313"></path><path style="fill:#6aa0ec;fill-opacity:0.5;" d="M201.6852525527512 252.2738456414318L203.9176515776046 255.16840777080867L260.09815735623454 226.30618762484937L258.0791850809096 223.93140242093534"></path><path style="fill:none;stroke:#ff0000;stroke-width:1;" d="M226.72483154101386 239.68946264268249L229.72100525503942 241.91217121650092"></path><path style="fill:none;stroke:#ff0000;stroke-width:1;" d="M237.52118991651147 234.26343256235637L238.79941053840503 237.2482236739993"></path><path style="fill:#7bbeff;fill-opacity:0.5;" d="M166.49947554480548 150.1065978919625L166.54394381055405 151.9080215584657L228.49048592430614 139.18043205824839L228.52675264783593 137.64510068296607"></path><path style="fill:none;stroke:#ff0000;stroke-width:1;" d="M189.5460029003474 145.47646983005995L189.54880429657484 147.18142325636546"></path><path style="fill:none;stroke:#ff0000;stroke-width:1;" d="M210.09323111047567 141.3484597198013L210.0705289632402 142.96501216251983"></path><path style="fill:#7cbeff;fill-opacity:0.5;" d="M191.40810624195765 218.99868545176366L191.41010871889952 222.0435692023437L249.46262086907896 198.38550048381992L249.58630763284287 195.76524164283953"></path><path style="fill:none;stroke:#ff0000;stroke-width:1;" d="M213.05557791146722 210.35377542335522L213.00665631786848 213.24235478017505"></path><path style="fill:none;stroke:#ff0000;stroke-width:1;" d="M232.3244370149152 202.65876346803253L232.23205872259524 205.4074502362398"></path><path style="fill:#6ba1ee;fill-opacity:0.5;" d="M176.2222158937884 179.74893681676997L178.70610585199776 182.71975496781513L238.89673297988804 165.14622166407432L236.62955686145088 162.68821386935602"></path><path style="fill:none;stroke:#ff0000;stroke-width:1;" d="M198.60625165389283 173.42705893850706L201.03156986382544 176.20150945261722"></path><path style="fill:none;stroke:#ff0000;stroke-width:1;" d="M218.62331329844994 167.77368076511732L220.97452371665267 170.37887259982335"></path><path style="fill:#7bbeff;fill-opacity:0.5;" d="M166.45765682509824 148.368333736452L166.49947554480548 150.1065978919625L228.52675264783593 137.64510068296607L228.56278723893328 136.164213488801"></path><path style="fill:none;stroke:#ff0000;stroke-width:1;" d="M189.54339809266023 143.8318137974693L189.5460029003474 145.47646983005995"></path><path style="fill:none;stroke:#ff0000;stroke-width:1;" d="M210.115320350452 139.78927799911455L210.09323111047567 141.3484597198013"></path><path style="fill:#9be9ff;fill-opacity:0.5;" d="M191.40810624195765 218.99868545176366L191.40810624195765 218.99868545176366L249.58630763284287 195.76524164283953L249.58630763284287 195.76524164283953"></path><path style="fill:none;stroke:#ff0000;stroke-width:1;" d="M213.05557791146722 210.35377542335522L213.05557791146722 210.35377542335522"></path><path style="fill:none;stroke:#ff0000;stroke-width:1;" d="M232.3244370149152 202.65876346803253L232.3244370149152 202.65876346803253"></path><path style="fill:#6ba1ee;fill-opacity:0.5;" d="M203.9176515776046 255.16840777080867L206.46377616509477 258.385113775299L262.40203129434667 228.93899788308258L260.09815735623454 226.30618762484937"></path><path style="fill:none;stroke:#ff0000;stroke-width:1;" d="M229.72100525503942 241.91217121650092L233.1195852862886 244.35339178522537"></path><path style="fill:none;stroke:#ff0000;stroke-width:1;" d="M238.79941053840503 237.2482236739993L240.26691990377174 240.5910069382085"></path><path style="fill:#7cbeff;fill-opacity:0.5;" d="M166.4177198090026 146.6596500347646L166.45765682509824 148.368333736452L228.56278723893328 136.164213488801L228.59932496469895 134.7091130865294"></path><path style="fill:none;stroke:#ff0000;stroke-width:1;" d="M189.54094305015866 142.21565195826253L189.54339809266023 143.8318137974693"></path><path style="fill:none;stroke:#ff0000;stroke-width:1;" d="M210.13723103912434 138.25729964502895L210.115320350452 139.78927799911455"></path><path style="fill:#7cbeff;fill-opacity:0.5;" d="M191.40605088454672 215.93816078255858L191.40810624195765 218.99868545176366L249.58630763284287 195.76524164283953L249.71048950760812 193.13363064944136"></path><path style="fill:none;stroke:#ff0000;stroke-width:1;" d="M213.1059375293712 207.45071573439725L213.05557791146722 210.35377542335522"></path><path style="fill:none;stroke:#ff0000;stroke-width:1;" d="M232.41602458232884 199.89798951883066L232.3244370149152 202.65876346803253"></path><path style="fill:#a3f8ff;fill-opacity:0.5;" d="M212.48816438253132 271.8651069657284L209.17007609219198 273.1388873005735L264.40329519809734 241.54401798151508L267.6160333583215 240.23253790176716"></path><path style="fill:none;stroke:#ff0000;stroke-width:1;" d="M242.25999606683257 254.7819230986381L238.96409498506497 256.0959166273463"></path><path style="fill:#6aa0ed;fill-opacity:0.5;" d="M178.70610585199776 182.71975496781513L180.912706069642 185.43631813837115L240.90554123533403 167.39391931551174L238.89673297988804 165.14622166407432"></path><path style="fill:none;stroke:#ff0000;stroke-width:1;" d="M201.03156986382544 176.20150945261722L203.18382267704368 178.73844551822634"></path><path style="fill:none;stroke:#ff0000;stroke-width:1;" d="M220.97452371665267 170.37887259982335L223.05922394470034 172.761066462127"></path><path style="fill:#7cbeff;fill-opacity:0.5;" d="M166.37888780140145 144.94659509056072L166.4177198090026 146.6596500347646L228.59932496469895 134.7091130865294L228.63710770183175 133.2508740806137"></path><path style="fill:none;stroke:#ff0000;stroke-width:1;" d="M189.53859044175812 140.59585359508998L189.54094305015866 142.21565195826253"></path><path style="fill:none;stroke:#ff0000;stroke-width:1;" d="M210.15940171058264 136.7220638210705L210.13723103912434 138.25729964502895"></path><path style="fill:#7bbdff;fill-opacity:0.5;" d="M191.38518321764334 213.14758326943203L191.40605088454672 215.93816078255858L249.71048950760812 193.13363064944136L249.80542420654373 190.73681452672628"></path><path style="fill:none;stroke:#ff0000;stroke-width:1;" d="M213.1329419864372 204.80485848450363L213.1059375293712 207.45071573439725"></path><path style="fill:none;stroke:#ff0000;stroke-width:1;" d="M232.48087048392944 197.38273998810632L232.41602458232884 199.89798951883066"></path><path style="fill:#7cbeff;fill-opacity:0.5;" d="M166.34037567775633 143.1948490412145L166.37888780140145 144.94659509056072L228.63710770183175 133.2508740806137L228.67688410530826 131.7603067005335"></path><path style="fill:none;stroke:#ff0000;stroke-width:1;" d="M189.53629246022282 138.93996375375437L189.53859044175812 140.59585359508998"></path><path style="fill:none;stroke:#ff0000;stroke-width:1;" d="M210.1822750826076 135.15281929514236L210.15940171058264 136.7220638210705"></path><path style="fill:#6ba1ee;fill-opacity:0.5;" d="M206.46377616509477 258.385113775299L209.34886880931128 261.9702608843595L265.01209964951005 231.86736477506847L262.40203129434667 228.93899788308258"></path><path style="fill:none;stroke:#ff0000;stroke-width:1;" d="M233.1195852862886 244.35339178522537L236.94600560892 247.04561979808318"></path><path style="fill:none;stroke:#ff0000;stroke-width:1;" d="M240.26691990377174 240.5910069382085L241.9407908827097 244.3444201027805"></path><path style="fill:#699feb;fill-opacity:0.5;" d="M180.912706069642 185.43631813837115L182.85513932328297 187.93057336838433L242.6680148844519 169.45892446852974L240.90554123533403 167.39391931551174"></path><path style="fill:none;stroke:#ff0000;stroke-width:1;" d="M203.18382267704368 178.73844551822634L205.07588606775167 181.06827443516127"></path><path style="fill:none;stroke:#ff0000;stroke-width:1;" d="M223.05922394470034 172.761066462127L224.88991591229578 174.94922733792944"></path><path style="fill:#7cbeff;fill-opacity:0.5;" d="M166.30138989105725 141.36971001590143L166.34037567775633 143.1948490412145L228.67688410530826 131.7603067005335L228.71941011594822 130.2079472905282"></path><path style="fill:none;stroke:#ff0000;stroke-width:1;" d="M189.53400083016902 137.2151903778392L189.53629246022282 138.93996375375437"></path><path style="fill:none;stroke:#ff0000;stroke-width:1;" d="M210.20629827070812 133.5185130691343L210.1822750826076 135.15281929514236"></path><path style="fill:#7abcff;fill-opacity:0.5;" d="M191.32666310401999 210.5929386869037L191.38518321764334 213.14758326943203L249.80542420654373 190.73681452672628L249.8545008825763 188.54585946951167"></path><path style="fill:none;stroke:#ff0000;stroke-width:1;" d="M213.11843867062845 202.38410985535796L213.1329419864372 204.80485848450363"></path><path style="fill:none;stroke:#ff0000;stroke-width:1;" d="M232.50157613492257 195.0826002938094L232.48087048392944 197.38273998810632"></path><path style="fill:#7cbeff;fill-opacity:0.5;" d="M166.26112805043164 139.43606144098084L166.30138989105725 141.36971001590143L228.71941011594822 130.2079472905282L228.76544981539817 128.5640353325956"></path><path style="fill:none;stroke:#ff0000;stroke-width:1;" d="M189.5316667918638 135.3883748553335L189.53400083016902 137.2151903778392"></path><path style="fill:none;stroke:#ff0000;stroke-width:1;" d="M210.2319232160708 131.7877641785148L210.20629827070812 133.5185130691343"></path><path style="fill:#689ce7;fill-opacity:0.5;" d="M182.85513932328297 187.93057336838433L184.5474839389928 190.23553934600267L244.196934254911 171.36960998993575L242.6680148844519 169.45892446852974"></path><path style="fill:none;stroke:#ff0000;stroke-width:1;" d="M205.07588606775167 181.06827443516127L206.72150975623939 183.22233801066463"></path><path style="fill:none;stroke:#ff0000;stroke-width:1;" d="M224.88991591229578 174.94922733792944L226.47990600996275 176.9731520426852"></path><path style="fill:#78b9ff;fill-opacity:0.5;" d="M191.2115575783765 208.23962998156998L191.32666310401999 210.5929386869037L249.8545008825763 188.54585946951167L249.84105435473595 186.53140700908068"></path><path style="fill:none;stroke:#ff0000;stroke-width:1;" d="M213.04419731303165 200.15585240377862L213.11843867062845 202.38410985535796"></path><path style="fill:none;stroke:#ff0000;stroke-width:1;" d="M232.46067798074725 192.96668458124748L232.50157613492257 195.0826002938094"></path><path style="fill:#6ca2ef;fill-opacity:0.5;" d="M209.34886880931128 261.9702608843595L212.59960499786075 265.9719933846535L267.9507276195872 235.13007475978006L265.01209964951005 231.86736477506847"></path><path style="fill:none;stroke:#ff0000;stroke-width:1;" d="M236.94600560892 247.04561979808318L241.22574081154073 250.02136926915372"></path><path style="fill:none;stroke:#ff0000;stroke-width:1;" d="M241.9407908827097 244.3444201027805L243.83971403841952 248.56485048990592"></path><path style="fill:#7cbeff;fill-opacity:0.5;" d="M166.21877805858298 137.35831989783955L166.26112805043164 139.43606144098084L228.76544981539817 128.5640353325956L228.8157766382578 126.79847664438458"></path><path style="fill:none;stroke:#ff0000;stroke-width:1;" d="M189.52924106016204 133.4259454861683L189.5316667918638 135.3883748553335"></path><path style="fill:none;stroke:#ff0000;stroke-width:1;" d="M210.25960733350757 129.92882224703078L210.2319232160708 131.7877641785148"></path><path style="fill:#ff0000;fill-opacity:1;" d="M241.66851222231745 248.70998559163067L242.43563122684264 248.33560864804633L244.7017374687075 247.0800567917155"></path><path style="fill:#6599e3;fill-opacity:0.5;" d="M184.5474839389928 190.23553934600267L186.00469227087848 192.38514809331954L245.50576247505643 173.15498845524104L244.196934254911 171.36960998993575"></path><path style="fill:none;stroke:#ff0000;stroke-width:1;" d="M206.72150975623939 183.22233801066463L208.13524250165383 185.23277230653173"></path><path style="fill:none;stroke:#ff0000;stroke-width:1;" d="M226.47990600996275 176.9731520426852L227.84323611873245 178.86334294833435"></path><path style="fill:#75b4ff;fill-opacity:0.5;" d="M191.02090276857703 206.05254988616645L191.2115575783765 208.23962998156998L249.84105435473595 186.53140700908068L249.74841253554328 184.66372594203102"></path><path style="fill:none;stroke:#ff0000;stroke-width:1;" d="M212.89196653083306 198.08700981579574L213.04419731303165 200.15585240377862"></path><path style="fill:none;stroke:#ff0000;stroke-width:1;" d="M232.3406991964614 191.0036936566L232.46067798074725 192.96668458124748"></path><path style="fill:#ff0000;fill-opacity:1;" d="M241.66851222231745 248.70998559163067L239.9866513359864 251.06477711740357L242.43563122684264 248.33560864804633"></path><path style="fill:#ff0000;fill-opacity:1;" d="M189.58478609463523 169.59316514175L193.25710465170386 168.58105322111857L190.62093576190043 169.28035483529837"></path><path style="fill:#7cbeff;fill-opacity:0.5;" d="M166.17351679340652 135.1003628363421L166.21877805858298 137.35831989783955L228.8157766382578 126.79847664438458L228.87117495296317 124.8807923335095"></path><path style="fill:none;stroke:#ff0000;stroke-width:1;" d="M189.52667375783352 131.29385329408257L189.52924106016204 133.4259454861683"></path><path style="fill:none;stroke:#ff0000;stroke-width:1;" d="M210.2898143865878 127.909510309919L210.25960733350757 129.92882224703078"></path><path style="fill:#6598e2;fill-opacity:0.5;" d="M186.00469227087848 192.38514809331954L187.24250576796624 194.4140864662768L246.60857931097178 174.84459752964847L245.50576247505643 173.15498845524104"></path><path style="fill:none;stroke:#ff0000;stroke-width:1;" d="M208.13524250165383 185.23277230653173L209.33235463378062 187.1323676799031"></path><path style="fill:none;stroke:#ff0000;stroke-width:1;" d="M227.84323611873245 178.86334294833435L228.99461237164468 180.65088234145423"></path><path style="fill:#73b0ff;fill-opacity:0.5;" d="M190.7357711761741 203.9961650341396L191.02090276857703 206.05254988616645L249.74841253554328 184.66372594203102L249.55994768504635 182.91277214864186"></path><path style="fill:none;stroke:#ff0000;stroke-width:1;" d="M212.64353505022214 196.14412153074096L212.89196653083306 198.08700981579574"></path><path style="fill:none;stroke:#ff0000;stroke-width:1;" d="M232.12420556708838 189.16198162576367L232.3406991964614 191.0036936566"></path><path style="fill:#ff0000;fill-opacity:1;" d="M248.1294786023931 247.30216258466555L244.7017374687075 247.0800567917155L246.26095375808745 247.50159445834464"></path><path style="fill:#ff0000;fill-opacity:1;" d="M248.1294786023931 247.30216258466555L249.9907288808217 248.89721562855172L250.6804554484782 249.3173096982363"></path><path style="fill:#ff0000;fill-opacity:1;" d="M195.67757100488356 163.00154695147722L195.5581405158125 161.7195555779727L195.54402058508657 165.57950728613562"></path><path style="fill:#ff0000;fill-opacity:1;" d="M240.08703721916422 254.1186562074442L239.9866513359864 251.06477711740357L239.83564260450274 254.63194279650116"></path><path style="fill:#ff0000;fill-opacity:1;" d="M187.3250753360303 169.2646930652056L184.6358423872809 167.08151940516512L185.91995245790451 168.24645803346849"></path><path style="fill:#679ce9;fill-opacity:0.5;" d="M187.24250576796624 194.4140864662768L188.27736770319666 196.35763926136258L247.5200138254403 176.46838734031488L246.60857931097178 174.84459752964847"></path><path style="fill:none;stroke:#ff0000;stroke-width:1;" d="M209.33235463378062 187.1323676799031L210.32875873746104 188.9544305899433"></path><path style="fill:none;stroke:#ff0000;stroke-width:1;" d="M228.99461237164468 180.65088234145423L229.9493324442759 182.36730866285905"></path><path style="fill:#a3f8ff;fill-opacity:0.5;" d="M216.24428761950708 270.440611439343L212.48816438253132 271.8651069657284L267.6160333583215 240.23253790176716L271.2414900967828 238.76737472497103"></path><path style="fill:none;stroke:#ff0000;stroke-width:1;" d="M245.98427498956875 253.31316463432404L242.25999606683257 254.7819230986381"></path><path style="fill:#6faaff;fill-opacity:0.5;" d="M190.33734393329448 202.03461134989348L190.7357711761741 203.9961650341396L249.55994768504635 182.91277214864186L249.25913123742117 181.24825616673007"></path><path style="fill:none;stroke:#ff0000;stroke-width:1;" d="M212.2807972778092 194.29342704382418L212.64353505022214 196.14412153074096"></path><path style="fill:none;stroke:#ff0000;stroke-width:1;" d="M231.79386526010092 187.40963107715433L232.12420556708838 189.16198162576367"></path><path style="fill:#ff0000;fill-opacity:1;" d="M187.3250753360303 169.2646930652056L189.58478609463523 169.59316514175L190.62093576190043 169.28035483529837"></path><path style="fill:#69a0f0;fill-opacity:0.5;" d="M188.27736770319666 196.35763926136258L189.12633462459675 198.25153562340915L248.2551765564855 178.05661086640004L247.5200138254403 176.46838734031488"></path><path style="fill:none;stroke:#ff0000;stroke-width:1;" d="M210.32875873746104 188.9544305899433L211.14092938837555 190.73264855772504"></path><path style="fill:none;stroke:#ff0000;stroke-width:1;" d="M229.9493324442759 182.36730866285905L230.7232121556696 184.04449580290668"></path><path style="fill:#6da7fe;fill-opacity:0.5;" d="M189.80698755684537 200.13180032568593L190.33734393329448 202.03461134989348L249.25913123742117 181.24825616673007L248.8295918864816 179.63971829096081"></path><path style="fill:none;stroke:#ff0000;stroke-width:1;" d="M211.78582280977173 192.5009595631321L212.2807972778092 194.29342704382418"></path><path style="fill:none;stroke:#ff0000;stroke-width:1;" d="M231.33251213357673 185.71453653622453L231.79386526010092 187.40963107715433"></path><path style="fill:#7cbeff;fill-opacity:0.5;" d="M166.12450831622493 132.62543529686417L166.17351679340652 135.1003628363421L228.87117495296317 124.8807923335095L228.93244202567232 122.78005300126776"></path><path style="fill:none;stroke:#ff0000;stroke-width:1;" d="M189.5239143223925 128.95748948151027L189.52667375783352 131.29385329408257"></path><path style="fill:none;stroke:#ff0000;stroke-width:1;" d="M210.3230155987212 125.69715131439933L210.2898143865878 127.909510309919"></path><path style="fill:#6ba4f7;fill-opacity:0.5;" d="M189.12633462459675 198.25153562340915L189.80698755684537 200.13180032568593L248.8295918864816 179.63971829096081L248.2551765564855 178.05661086640004"></path><path style="fill:none;stroke:#ff0000;stroke-width:1;" d="M211.14092938837555 190.73264855772504L211.78582280977173 192.5009595631321"></path><path style="fill:none;stroke:#ff0000;stroke-width:1;" d="M230.7232121556696 184.04449580290668L231.33251213357673 185.71453653622453"></path><path style="fill:#ff0000;fill-opacity:1;" d="M244.7017374687075 247.0800567917155L242.43563122684264 248.33560864804633L246.26095375808745 247.50159445834464"></path><path style="fill:#ff0000;fill-opacity:1;" d="M193.61662712760938 167.52688219038595L193.25710465170386 168.58105322111857L195.54402058508657 165.57950728613562"></path><path style="fill:#6ca2ef;fill-opacity:0.5;" d="M212.59960499786075 265.9719933846535L216.24428761950708 270.440611439343L271.2414900967828 238.76737472497103L267.9507276195872 235.13007475978006"></path><path style="fill:none;stroke:#ff0000;stroke-width:1;" d="M241.22574081154073 250.02136926915372L245.98427498956875 253.31316463432404"></path><path style="fill:none;stroke:#ff0000;stroke-width:1;" d="M243.83971403841952 248.56485048990592L245.98427498956875 253.31316463432404"></path><path style="fill:#ff0000;fill-opacity:1;" d="M240.08703721916422 254.1186562074442L239.83564260450274 254.63194279650116L241.2530329408968 257.33885254377077"></path><path style="fill:#ff0000;fill-opacity:1;" d="M183.42195098772476 163.78495265488652L183.64256449015303 165.05071086220715L184.6358423872809 167.08151940516512"></path><path style="fill:#ff0000;fill-opacity:1;" d="M249.9907288808217 248.89721562855172L252.179820844343 251.9843243224706L250.6804554484782 249.3173096982363"></path><path style="fill:#ff0000;fill-opacity:1;" d="M193.27550459019747 158.4833265273432L195.5581405158125 161.7195555779727L194.4829545745425 159.72875314291423"></path><path style="fill:#ff0000;fill-opacity:1;" d="M193.61662712760938 167.52688219038595L190.62093576190043 169.28035483529837L193.25710465170386 168.58105322111857"></path><path style="fill:#7cbeff;fill-opacity:0.5;" d="M166.07090158502535 129.89603459173307L166.12450831622493 132.62543529686417L228.93244202567232 122.78005300126776L229.0003903848259 120.46479756982816"></path><path style="fill:none;stroke:#ff0000;stroke-width:1;" d="M189.5209113853385 126.38158365925626L189.5239143223925 128.95748948151027"></path><path style="fill:none;stroke:#ff0000;stroke-width:1;" d="M210.35969101104828 123.2584775662995L210.3230155987212 125.69715131439933"></path><path style="fill:#ff0000;fill-opacity:1;" d="M248.1294786023931 247.30216258466555L246.26095375808745 247.50159445834464L249.9907288808217 248.89721562855172"></path><path style="fill:#ff0000;fill-opacity:1;" d="M191.82240045776643 157.53894578553405L189.57056256082674 157.12734925121458L193.27550459019747 158.4833265273432"></path><path style="fill:#ff0000;fill-opacity:1;" d="M239.9866513359864 251.06477711740357L241.5068538244809 251.52581068196713L242.43563122684264 248.33560864804633"></path><path style="fill:#ff0000;fill-opacity:1;" d="M183.6198203115371 161.2065074779074L184.60370815129818 160.81254062515404L185.8787047413269 158.17421374368524"></path><path style="fill:#ff0000;fill-opacity:1;" d="M240.08703721916422 254.1186562074442L241.5068538244809 251.52581068196713L239.9866513359864 251.06477711740357"></path><path style="fill:#ff0000;fill-opacity:1;" d="M183.42195098772476 163.78495265488652L184.60370815129818 160.81254062515404L183.6198203115371 161.2065074779074"></path><path style="fill:#7cbeff;fill-opacity:0.5;" d="M166.01182764574207 126.87377163775759L166.07090158502535 129.89603459173307L229.0003903848259 120.46479756982816L229.07585060834396 117.9029359551835"></path><path style="fill:none;stroke:#ff0000;stroke-width:1;" d="M189.51761262244767 123.53008176974846L189.5209113853385 126.38158365925626"></path><path style="fill:none;stroke:#ff0000;stroke-width:1;" d="M210.4003311006379 120.55952221340063L210.35969101104828 123.2584775662995"></path><path style="fill:#ff0000;fill-opacity:1;" d="M251.9903757297651 255.56473003915877L252.179820844343 251.9843243224706L251.30968780862216 255.20056877862365"></path><path style="fill:#ff0000;fill-opacity:1;" d="M195.54402058508657 165.57950728613562L195.5581405158125 161.7195555779727L194.34099261140247 164.38265477803634"></path><path style="fill:#ff0000;fill-opacity:1;" d="M243.83147948446225 259.3454396670206L244.51501005425163 258.53006929919883L241.2530329408968 257.33885254377077"></path><path style="fill:#ff0000;fill-opacity:1;" d="M187.3250753360303 169.2646930652056L187.5491238909603 167.71680739550186L184.6358423872809 167.08151940516512"></path><path style="fill:#ff0000;fill-opacity:1;" d="M243.83147948446225 259.3454396670206L247.278214222263 259.6016845785586L244.51501005425163 258.53006929919883"></path><path style="fill:#ff0000;fill-opacity:1;" d="M187.3250753360303 169.2646930652056L190.62093576190043 169.28035483529837L187.5491238909603 167.71680739550186"></path><path style="fill:#ff0000;fill-opacity:1;" d="M250.35006442948537 257.9697019693073L251.9903757297651 255.56473003915877L251.30968780862216 255.20056877862365"></path><path style="fill:#ff0000;fill-opacity:1;" d="M193.61662712760938 167.52688219038595L195.54402058508657 165.57950728613562L194.34099261140247 164.38265477803634"></path><path style="fill:#ff0000;fill-opacity:1;" d="M244.28617605375038 249.45739893479072L246.26095375808745 247.50159445834464L242.43563122684264 248.33560864804633"></path><path style="fill:#ff0000;fill-opacity:1;" d="M187.29346369931037 158.60126449174192L189.57056256082674 157.12734925121458L185.8787047413269 158.17421374368524"></path><path style="fill:#ff0000;fill-opacity:1;" d="M240.08703721916422 254.1186562074442L241.2530329408968 257.33885254377077L242.29985597893617 255.43504484317498"></path><path style="fill:#ff0000;fill-opacity:1;" d="M183.42195098772476 163.78495265488652L184.6358423872809 167.08151940516512L185.2392841295924 164.47084330404445"></path><path style="fill:#ff0000;fill-opacity:1;" d="M250.66599142222856 251.846645329036L252.179820844343 251.9843243224706L249.9907288808217 248.89721562855172"></path><path style="fill:#ff0000;fill-opacity:1;" d="M193.6305653823952 160.92232223165496L195.5581405158125 161.7195555779727L193.27550459019747 158.4833265273432"></path><path style="fill:#6ca2f0;fill-opacity:0.5;" d="M216.24428761950708 270.440611439343L219.97641167412922 274.97393905379596L274.6076772016951 242.44956127375164L271.2414900967828 238.76737472497103"></path><path style="fill:none;stroke:#ff0000;stroke-width:1;" d="M245.98427498956875 253.31316463432404L249.5118527364441 257.39020135827707"></path><path style="fill:#7cbeff;fill-opacity:0.5;" d="M165.94639626790357 123.51920730890662L166.01182764574207 126.87377163775759L229.07585060834396 117.9029359551835L229.15967456066699 115.06163462029825"></path><path style="fill:none;stroke:#ff0000;stroke-width:1;" d="M189.51396457341798 120.36600235860348L189.51761262244767 123.53008176974846"></path><path style="fill:none;stroke:#ff0000;stroke-width:1;" d="M210.44543867576033 117.56549163551777L210.4003311006379 120.55952221340063"></path><path style="fill:#ff0000;fill-opacity:1;" d="M244.28617605375038 249.45739893479072L242.43563122684264 248.33560864804633L241.5068538244809 251.52581068196713"></path><path style="fill:#ff0000;fill-opacity:1;" d="M187.29346369931037 158.60126449174192L185.8787047413269 158.17421374368524L184.60370815129818 160.81254062515404"></path><path style="fill:#ff0000;fill-opacity:1;" d="M250.35006442948537 257.9697019693073L248.37300464016104 257.71424952638L247.278214222263 259.6016845785586"></path><path style="fill:#ff0000;fill-opacity:1;" d="M193.61662712760938 167.52688219038595L191.27171432591362 166.68504469186595L190.62093576190043 169.28035483529837"></path><path style="fill:#ff0000;fill-opacity:1;" d="M246.26095375808745 247.50159445834464L247.73991386841746 250.17834929542553L249.9907288808217 248.89721562855172"></path><path style="fill:#ff0000;fill-opacity:1;" d="M189.57056256082674 157.12734925121458L190.61784132385242 159.11593361960266L193.27550459019747 158.4833265273432"></path><path style="fill:#9be9ff;fill-opacity:0.5;" d="M165.94639626790357 123.51920730890662L165.94639626790357 123.51920730890662L229.15967456066699 115.06163462029825L229.15967456066699 115.06163462029825"></path><path style="fill:none;stroke:#ff0000;stroke-width:1;" d="M189.51396457341798 120.36600235860348L189.51396457341798 120.36600235860348"></path><path style="fill:none;stroke:#ff0000;stroke-width:1;" d="M210.44543867576033 117.56549163551777L210.44543867576033 117.56549163551777"></path><path style="fill:#a3f8ff;fill-opacity:0.5;" d="M220.1289426949652 269.00861230938057L216.24428761950708 270.440611439343L271.2414900967828 238.76737472497103L274.97752698478723 237.29245275143631"></path><path style="fill:none;stroke:#ff0000;stroke-width:1;" d="M248.52758528419136 252.58711499543685L245.98427498956875 253.31316463432404"></path><path style="fill:none;stroke:#ff0000;stroke-width:1;" d="M251.1173224817456 251.08960108082488L245.98427498956875 253.31316463432404"></path><path style="fill:#ff0000;fill-opacity:1;" d="M250.66599142222856 251.846645329036L251.30968780862216 255.20056877862365L252.179820844343 251.9843243224706"></path><path style="fill:#ff0000;fill-opacity:1;" d="M193.6305653823952 160.92232223165496L194.34099261140247 164.38265477803634L195.5581405158125 161.7195555779727"></path><path style="fill:#ff0000;fill-opacity:1;" d="M240.08703721916422 254.1186562074442L242.29985597893617 255.43504484317498L241.5068538244809 251.52581068196713"></path><path style="fill:#ff0000;fill-opacity:1;" d="M183.42195098772476 163.78495265488652L185.2392841295924 164.47084330404445L184.60370815129818 160.81254062515404"></path><path style="fill:#ff0000;fill-opacity:1;" d="M241.2530329408968 257.33885254377077L244.51501005425163 258.53006929919883L242.29985597893617 255.43504484317498"></path><path style="fill:#ff0000;fill-opacity:1;" d="M184.6358423872809 167.08151940516512L187.5491238909603 167.71680739550186L185.2392841295924 164.47084330404445"></path><path style="fill:#ff0000;fill-opacity:1;" d="M247.278214222263 259.6016845785586L248.37300464016104 257.71424952638L244.51501005425163 258.53006929919883"></path><path style="fill:#ff0000;fill-opacity:1;" d="M190.62093576190043 169.28035483529837L191.27171432591362 166.68504469186595L187.5491238909603 167.71680739550186"></path><path style="fill:#ff0000;fill-opacity:1;" d="M250.35006442948537 257.9697019693073L251.30968780862216 255.20056877862365L248.37300464016104 257.71424952638"></path><path style="fill:#ff0000;fill-opacity:1;" d="M244.28617605375038 249.45739893479072L247.73991386841746 250.17834929542553L246.26095375808745 247.50159445834464"></path><path style="fill:#ff0000;fill-opacity:1;" d="M193.61662712760938 167.52688219038595L194.34099261140247 164.38265477803634L191.27171432591362 166.68504469186595"></path><path style="fill:#ff0000;fill-opacity:1;" d="M187.29346369931037 158.60126449174192L190.61784132385242 159.11593361960266L189.57056256082674 157.12734925121458"></path><path style="fill:#ff0000;fill-opacity:1;" d="M250.66599142222856 251.846645329036L249.9907288808217 248.89721562855172L247.73991386841746 250.17834929542553"></path><path style="fill:#ff0000;fill-opacity:1;" d="M193.6305653823952 160.92232223165496L193.27550459019747 158.4833265273432L190.61784132385242 159.11593361960266"></path><path style="fill:#6ca2ef;fill-opacity:0.5;" d="M219.97641167412922 274.97393905379596L223.36667119698808 279.1084242603552L277.66037882788163 245.80367725474636L274.6076772016951 242.44956127375164"></path><path style="fill:none;stroke:#ff0000;stroke-width:1;" d="M249.5118527364441 257.39020135827707L252.71370687751894 261.10641921495824"></path><path style="fill:#ff0000;fill-opacity:1;" d="M244.28617605375038 249.45739893479072L241.5068538244809 251.52581068196713L244.7869794455344 252.68709395852412"></path><path style="fill:#ff0000;fill-opacity:1;" d="M187.29346369931037 158.60126449174192L184.60370815129818 160.81254062515404L187.53159601337418 161.41224690450053"></path><path style="fill:#ff0000;fill-opacity:1;" d="M242.29985597893617 255.43504484317498L244.7869794455344 252.68709395852412L241.5068538244809 251.52581068196713"></path><path style="fill:#ff0000;fill-opacity:1;" d="M185.2392841295924 164.47084330404445L187.53159601337418 161.41224690450053L184.60370815129818 160.81254062515404"></path><path style="fill:#ff0000;fill-opacity:1;" d="M250.66599142222856 251.846645329036L248.55328806566936 254.09892815338992L251.30968780862216 255.20056877862365"></path><path style="fill:#ff0000;fill-opacity:1;" d="M193.6305653823952 160.92232223165496L191.27257397587928 162.78364296911195L194.34099261140247 164.38265477803634"></path><path style="fill:#ff0000;fill-opacity:1;" d="M245.65320166252997 256.12188678490014L242.29985597893617 255.43504484317498L244.51501005425163 258.53006929919883"></path><path style="fill:#ff0000;fill-opacity:1;" d="M188.39129180876665 164.83666087064478L185.2392841295924 164.47084330404445L187.5491238909603 167.71680739550186"></path><path style="fill:#ff0000;fill-opacity:1;" d="M245.65320166252997 256.12188678490014L244.51501005425163 258.53006929919883L248.37300464016104 257.71424952638"></path><path style="fill:#ff0000;fill-opacity:1;" d="M188.39129180876665 164.83666087064478L187.5491238909603 167.71680739550186L191.27171432591362 166.68504469186595"></path><path style="fill:#ff0000;fill-opacity:1;" d="M251.30968780862216 255.20056877862365L248.55328806566936 254.09892815338992L248.37300464016104 257.71424952638"></path><path style="fill:#ff0000;fill-opacity:1;" d="M194.34099261140247 164.38265477803634L191.27257397587928 162.78364296911195L191.27171432591362 166.68504469186595"></path><path style="fill:#ff0000;fill-opacity:1;" d="M244.28617605375038 249.45739893479072L244.7869794455344 252.68709395852412L247.73991386841746 250.17834929542553"></path><path style="fill:#ff0000;fill-opacity:1;" d="M187.29346369931037 158.60126449174192L187.53159601337418 161.41224690450053L190.61784132385242 159.11593361960266"></path><path style="fill:#ff0000;fill-opacity:1;" d="M250.66599142222856 251.846645329036L247.73991386841746 250.17834929542553L248.55328806566936 254.09892815338992"></path><path style="fill:#ff0000;fill-opacity:1;" d="M193.6305653823952 160.92232223165496L190.61784132385242 159.11593361960266L191.27257397587928 162.78364296911195"></path><path style="fill:#ff0000;fill-opacity:1;" d="M245.65320166252997 256.12188678490014L244.7869794455344 252.68709395852412L242.29985597893617 255.43504484317498"></path><path style="fill:#ff0000;fill-opacity:1;" d="M188.39129180876665 164.83666087064478L187.53159601337418 161.41224690450053L185.2392841295924 164.47084330404445"></path><path style="fill:#ff0000;fill-opacity:1;" d="M245.65320166252997 256.12188678490014L248.37300464016104 257.71424952638L248.55328806566936 254.09892815338992"></path><path style="fill:#ff0000;fill-opacity:1;" d="M188.39129180876665 164.83666087064478L191.27171432591362 166.68504469186595L191.27257397587928 162.78364296911195"></path><path style="fill:#ff0000;fill-opacity:1;" d="M244.7869794455344 252.68709395852412L248.55328806566936 254.09892815338992L247.73991386841746 250.17834929542553"></path><path style="fill:#ff0000;fill-opacity:1;" d="M187.53159601337418 161.41224690450053L191.27257397587928 162.78364296911195L190.61784132385242 159.11593361960266"></path><path style="fill:#ff0000;fill-opacity:1;" d="M245.65320166252997 256.12188678490014L248.55328806566936 254.09892815338992L244.7869794455344 252.68709395852412"></path><path style="fill:#ff0000;fill-opacity:1;" d="M188.39129180876665 164.83666087064478L191.27257397587928 162.78364296911195L187.53159601337418 161.41224690450053"></path><path style="fill:#6ca2ef;fill-opacity:0.5;" d="M223.36667119698808 279.1084242603552L226.42490051271358 282.8724003069533L280.40915808302503 248.85496673781967L277.66037882788163 245.80367725474636"></path><path style="fill:none;stroke:#ff0000;stroke-width:1;" d="M252.71370687751894 261.10641921495824L255.59941407797243 264.4884839249343"></path><path style="fill:#a3f8ff;fill-opacity:0.5;" d="M223.69432320945847 267.67829545761657L220.1289426949652 269.00861230938057L274.97752698478723 237.29245275143631L278.3965196261506 235.92914720958456"></path><path style="fill:none;stroke:#ff0000;stroke-width:1;" d="M250.8767549353466 251.90161533981632L248.52758528419136 252.58711499543685"></path><path style="fill:none;stroke:#ff0000;stroke-width:1;" d="M255.7834775494821 249.05375412229816L251.1173224817456 251.08960108082488"></path><path style="fill:#6ba1ee;fill-opacity:0.5;" d="M226.42490051271358 282.8724003069533L229.16224995623432 286.29597876123296L282.86459522460575 251.62992249490955L280.40915808302503 248.85496673781967"></path><path style="fill:none;stroke:#ff0000;stroke-width:1;" d="M255.59941407797243 264.4884839249343L258.1797127941754 267.5645622016947"></path><path style="fill:#9be9ff;fill-opacity:0.5;" d="M242.2399283576347 323.6708988373784L242.2399283576347 323.6708988373784L293.8188955446135 283.0260097166301L293.8188955446135 283.0260097166301"></path><path style="fill:none;stroke:#ff0000;stroke-width:1;" d="M270.05056324438544 301.75576107876583L270.05056324438544 301.75576107876583"></path><path style="fill:#7cbeff;fill-opacity:0.5;" d="M242.3724091417231 320.7898710337432L242.2399283576347 323.6708988373784L293.8188955446135 283.0260097166301L294.0447002796928 280.5178330465334"></path><path style="fill:none;stroke:#ff0000;stroke-width:1;" d="M270.23882941673463 299.071508809658L270.05056324438544 301.75576107876583"></path><path style="fill:#6aa0ed;fill-opacity:0.5;" d="M229.16224995623432 286.29597876123296L231.59111703489398 289.4108927239494L285.03823012530404 254.15616735178256L282.86459522460575 251.62992249490955"></path><path style="fill:none;stroke:#ff0000;stroke-width:1;" d="M258.1797127941754 267.5645622016947L260.4664400317523 270.36418424102646"></path><path style="fill:#7bbdff;fill-opacity:0.5;" d="M242.47127466521158 318.1577221236329L242.3724091417231 320.7898710337432L294.0447002796928 280.5178330465334L294.23004485091076 278.2298746273817"></path><path style="fill:none;stroke:#ff0000;stroke-width:1;" d="M270.38931538531153 296.6211348309489L270.23882941673463 299.071508809658"></path><path style="fill:#699feb;fill-opacity:0.5;" d="M231.59111703489398 289.4108927239494L233.72506978964554 292.25033222118856L286.9425000299638 256.4623319258977L285.03823012530404 254.15616735178256"></path><path style="fill:none;stroke:#ff0000;stroke-width:1;" d="M260.4664400317523 270.36418424102646L262.47246195077474 272.91810076045385"></path><path style="fill:#a3f8ff;fill-opacity:0.5;" d="M226.94240627417332 266.432660451314L223.69432320945847 267.67829545761657L278.3965196261506 235.92914720958456L281.5036922523281 234.66170219732"></path><path style="fill:none;stroke:#ff0000;stroke-width:1;" d="M253.02997212869224 251.2419084216774L250.8767549353466 251.90161533981632"></path><path style="fill:none;stroke:#ff0000;stroke-width:1;" d="M259.99766017623665 247.18463370542491L255.7834775494821 249.05375412229816"></path><path style="fill:#7abcff;fill-opacity:0.5;" d="M242.516241191497 315.7377659305262L242.47127466521158 318.1577221236329L294.23004485091076 278.2298746273817L294.3572796078327 276.13135266653643"></path><path style="fill:none;stroke:#ff0000;stroke-width:1;" d="M270.48320662274455 294.3710799140542L270.38931538531153 296.6211348309489"></path><path style="fill:#689ce7;fill-opacity:0.5;" d="M233.72506978964554 292.25033222118856L235.57876346213456 294.8487739175225L288.59067337224167 258.57793010299804L286.9425000299638 256.4623319258977"></path><path style="fill:none;stroke:#ff0000;stroke-width:1;" d="M262.47246195077474 272.91810076045385L264.21159925747844 275.2581363256889"></path><path style="fill:#78b9ff;fill-opacity:0.5;" d="M242.4869406611073 313.49272735486943L242.516241191497 315.7377659305262L294.3572796078327 276.13135266653643L294.4087067303615 274.19105663073253"></path><path style="fill:none;stroke:#ff0000;stroke-width:1;" d="M270.50162586142227 292.28728662092817L270.48320662274455 294.3710799140542"></path><path style="fill:#6599e3;fill-opacity:0.5;" d="M235.57876346213456 294.8487739175225L237.167851638091 297.24180730915293L289.9967804431075 260.5332335889191L288.59067337224167 258.57793010299804"></path><path style="fill:none;stroke:#ff0000;stroke-width:1;" d="M264.21159925747844 275.2581363256889L265.69854836264517 277.41704069560996"></path><path style="fill:#75b4ff;fill-opacity:0.5;" d="M242.36299126051492 311.3848287074321L242.4869406611073 313.49272735486943L294.4087067303615 274.19105663073253L294.3666330076572 272.37740717572296"></path><path style="fill:none;stroke:#ff0000;stroke-width:1;" d="M270.4256940120317 290.3352706616704L270.50162586142227 292.28728662092817"></path><path style="fill:#6598e2;fill-opacity:0.5;" d="M237.167851638091 297.24180730915293L238.5088930765621 299.46595953197016L291.1755417135936 262.3591468361421L289.9967804431075 260.5332335889191"></path><path style="fill:none;stroke:#ff0000;stroke-width:1;" d="M265.69854836264517 277.41704069560996L266.9487993086097 279.4283398817713"></path><path style="fill:#73b0ff;fill-opacity:0.5;" d="M242.12407389151122 309.37588869350077L242.36299126051492 311.3848287074321L294.3666330076572 272.37740717572296L294.21342676440696 270.65852462178725"></path><path style="fill:none;stroke:#ff0000;stroke-width:1;" d="M270.23659608776376 288.48020278428305L270.4256940120317 290.3352706616704"></path><path style="fill:#679ce9;fill-opacity:0.5;" d="M238.5088930765621 299.46595953197016L239.6192554493763 301.55852085681244L292.14229461106595 264.087083588642L291.1755417135936 262.3591468361421"></path><path style="fill:none;stroke:#ff0000;stroke-width:1;" d="M266.9487993086097 279.4283398817713L267.97855147019357 281.32618855513107"></path><path style="fill:#6faaff;fill-opacity:0.5;" d="M241.75001408034376 307.4274337218109L242.12407389151122 309.37588869350077L294.21342676440696 270.65852462178725L293.9315786391261 269.00230579164065"></path><path style="fill:none;stroke:#ff0000;stroke-width:1;" d="M269.91565176498983 286.68700095751205L270.23659608776376 288.48020278428305"></path><path style="fill:#69a0f0;fill-opacity:0.5;" d="M239.6192554493763 301.55852085681244L240.51701720676743 303.55737284652906L292.9129195326222 265.7488462157218L292.14229461106595 264.087083588642"></path><path style="fill:none;stroke:#ff0000;stroke-width:1;" d="M267.97855147019357 281.32618855513107L268.8046280206659 283.14522534446303"></path><path style="fill:#6da7fe;fill-opacity:0.5;" d="M241.22086875481733 305.50082102099014L241.75001408034376 307.4274337218109L293.9315786391261 269.00230579164065L293.5037658520257 267.37650891825"></path><path style="fill:none;stroke:#ff0000;stroke-width:1;" d="M269.4443901234087 284.9204324611529L269.91565176498983 286.68700095751205"></path><path style="fill:#6ba4f7;fill-opacity:0.5;" d="M240.51701720676743 303.55737284652906L241.22086875481733 305.50082102099014L293.5037658520257 267.37650891825L292.9129195326222 265.7488462157218"></path><path style="fill:none;stroke:#ff0000;stroke-width:1;" d="M268.8046280206659 283.14522534446303L269.4443901234087 284.9204324611529"></path><path style="fill:#a2f7ff;fill-opacity:0.5;" d="M229.87801278353058 265.25325126752153L226.94240627417332 266.432660451314L281.5036922523281 234.66170219732L284.30668726049015 233.47312060318777"></path><path style="fill:none;stroke:#ff0000;stroke-width:1;" d="M254.98763006179144 250.59210205338178L253.02997212869224 251.2419084216774"></path><path style="fill:none;stroke:#ff0000;stroke-width:1;" d="M263.7770273549026 245.46009769869082L259.99766017623665 247.18463370542491"></path><path style="fill:#a1f5ff;fill-opacity:0.5;" d="M232.50866535784834 264.1203185000492L229.87801278353058 265.25325126752153L284.30668726049015 233.47312060318777L286.81541315244164 232.3453029755602"></path><path style="fill:none;stroke:#ff0000;stroke-width:1;" d="M256.7522776987181 249.93531958583466L254.98763006179144 250.59210205338178"></path><path style="fill:none;stroke:#ff0000;stroke-width:1;" d="M267.14076636559514 243.85698858515445L263.7770273549026 245.46009769869082"></path><path style="fill:#9ff2ff;fill-opacity:0.5;" d="M234.84441130486712 263.0129803313521L232.50866535784834 264.1203185000492L286.81541315244164 232.3453029755602L289.0418708234592 231.25918405521153"></path><path style="fill:none;stroke:#ff0000;stroke-width:1;" d="M258.32853031731634 249.25384959958524L256.7522776987181 249.93531958583466"></path><path style="fill:none;stroke:#ff0000;stroke-width:1;" d="M270.1098845955268 242.35126178587046L267.14076636559514 243.85698858515445"></path><path style="fill:#9cefff;fill-opacity:0.5;" d="M236.8976183662093 261.9093762588102L234.84441130486712 263.0129803313521L289.0418708234592 231.25918405521153L290.99996434974423 230.19486264696798"></path><path style="fill:none;stroke:#ff0000;stroke-width:1;" d="M259.72294566139175 248.5292882046226L258.32853031731634 249.25384959958524"></path><path style="fill:none;stroke:#ff0000;stroke-width:1;" d="M272.70700032889835 240.91810294077362L270.1098845955268 242.35126178587046"></path><path style="fill:#98e9ff;fill-opacity:0.5;" d="M238.6827513674052 260.7868079984431L236.8976183662093 261.9093762588102L290.99996434974423 230.19486264696798L292.7053024361982 229.13172086076665"></path><path style="fill:none;stroke:#ff0000;stroke-width:1;" d="M260.9438725522371 247.74266778390782L259.72294566139175 248.5292882046226"></path><path style="fill:none;stroke:#ff0000;stroke-width:1;" d="M274.9561385815749 239.53203179246495L272.70700032889835 240.91810294077362"></path><path style="fill:#92e0ff;fill-opacity:0.5;" d="M240.21613789037949 259.62186255341203L238.6827513674052 260.7868079984431L292.7053024361982 229.13172086076665L294.1749964883822 228.04852917965607"></path><path style="fill:none;stroke:#ff0000;stroke-width:1;" d="M262.0012794385922 246.87456665857925L260.9438725522371 247.74266778390782"></path><path style="fill:none;stroke:#ff0000;stroke-width:1;" d="M276.88253564672266 238.1669906370032L274.9561385815749 239.53203179246495"></path><path style="fill:#92e0ff;fill-opacity:0.5;" d="M241.51573078057385 258.39051307363314L240.21613789037949 259.62186255341203L294.1749964883822 228.04852917965607L295.42746090076565 226.92353427693794"></path><path style="fill:none;stroke:#ff0000;stroke-width:1;" d="M262.9065705804136 245.9051949262758L262.0012794385922 246.87456665857925"></path><path style="fill:none;stroke:#ff0000;stroke-width:1;" d="M278.5124555769491 236.79641560877204L276.88253564672266 238.1669906370032"></path><path style="fill:#91deff;fill-opacity:0.5;" d="M242.6008747465609 257.0681937903479L241.51573078057385 258.39051307363314L295.42746090076565 226.92353427693794L296.4822206499999 225.734526972714"></path><path style="fill:none;stroke:#ff0000;stroke-width:1;" d="M263.6723974090058 244.8144525488335L262.9065705804136 245.9051949262758"></path><path style="fill:none;stroke:#ff0000;stroke-width:1;" d="M279.87302137782575 235.3932893398354L278.5124555769491 236.79641560877204"></path><path style="fill:#8fdbff;fill-opacity:0.5;" d="M243.49208357536034 255.62984593281595L242.6008747465609 257.0681937903479L296.4822206499999 225.734526972714L297.3597306912697 224.4588881601244"></path><path style="fill:none;stroke:#ff0000;stroke-width:1;" d="M264.3124721464791 243.5819565649193L263.6723974090058 244.8144525488335"></path><path style="fill:none;stroke:#ff0000;stroke-width:1;" d="M280.99206324684314 233.93017376593284L279.87302137782575 235.3932893398354"></path><path style="fill:#8cd6ff;fill-opacity:0.5;" d="M244.21083364122003 254.0499320763755L243.49208357536034 255.62984593281595L297.3597306912697 224.4588881601244L298.08121102124943 223.07361091588044"></path><path style="fill:none;stroke:#ff0000;stroke-width:1;" d="M264.8413900780835 242.18703500773697L264.3124721464791 243.5819565649193"></path><path style="fill:none;stroke:#ff0000;stroke-width:1;" d="M281.8979857781983 232.37922203133587L280.99206324684314 233.93017376593284"></path><path style="fill:#88d1ff;fill-opacity:0.5;" d="M244.77937849632872 252.30241679180213L244.21083364122003 254.0499320763755L298.08121102124943 223.07361091588044L298.6685006331337 221.55529731488173"></path><path style="fill:none;stroke:#ff0000;stroke-width:1;" d="M265.27446603489125 240.60868565923028L264.8413900780835 242.18703500773697"></path><path style="fill:none;stroke:#ff0000;stroke-width:1;" d="M282.61965568197206 230.71216856483883L281.8979857781983 232.37922203133587"></path><path style="fill:#85ccff;fill-opacity:0.5;" d="M245.22058845958747 250.36071173203666L244.77937849632872 252.30241679180213L298.6685006331337 221.55529731488173L299.1439329832731 219.88012867554255"></path><path style="fill:none;stroke:#ff0000;stroke-width:1;" d="M265.62758974362646 238.82549812341279L265.27446603489125 240.60868565923028"></path><path style="fill:none;stroke:#ff0000;stroke-width:1;" d="M283.18631124816324 228.90029645218115L282.61965568197206 230.71216856483883"></path><path style="fill:#82c7ff;fill-opacity:0.5;" d="M245.55781831661886 248.19758337682322L245.22058845958747 250.36071173203666L299.1439329832731 219.88012867554255L299.5302350452249 218.02380805534082"></path><path style="fill:none;stroke:#ff0000;stroke-width:1;" d="M265.91710381049216 236.81553781664263L265.62758974362646 238.82549812341279"></path><path style="fill:none;stroke:#ff0000;stroke-width:1;" d="M283.6274945312314 226.91438121010475L283.18631124816324 228.90029645218115"></path><path style="fill:#7fc3ff;fill-opacity:0.5;" d="M245.81480555379247 245.78502153578702L245.55781831661886 248.19758337682322L299.5302350452249 218.02380805534082L299.8504515699711 215.96147378213448"></path><path style="fill:none;stroke:#ff0000;stroke-width:1;" d="M266.15970729158624 234.5561903242791L265.91710381049216 236.81553781664263"></path><path style="fill:none;stroke:#ff0000;stroke-width:1;" d="M283.9730070467555 224.72460996824228L283.6274945312314 226.91438121010475"></path><path style="fill:#7dc1ff;fill-opacity:0.5;" d="M246.0156010053228 243.09406636491516L245.81480555379247 245.78502153578702L299.8504515699711 215.96147378213448L300.1278958198078 213.66758263438774"></path><path style="fill:none;stroke:#ff0000;stroke-width:1;" d="M266.3723871169399 232.02396413818468L266.15970729158624 234.5561903242791"></path><path style="fill:none;stroke:#ff0000;stroke-width:1;" d="M284.2528896645207 222.300474881004L283.9730070467555 224.72460996824228"></path><path style="fill:#7cbfff;fill-opacity:0.5;" d="M246.18453342184395 240.09459105792513L246.0156010053228 243.09406636491516L300.1278958198078 213.66758263438774L300.386127812764 211.11576096081976"></path><path style="fill:none;stroke:#ff0000;stroke-width:1;" d="M266.5723791196715 229.19424904469608L266.3723871169399 232.02396413818468"></path><path style="fill:none;stroke:#ff0000;stroke-width:1;" d="M284.4974273568898 219.6106393153892L284.2528896645207 222.300474881004"></path><path style="fill:#7cbeff;fill-opacity:0.5;" d="M246.34620929201188 236.75503650526514L246.18453342184395 240.09459105792513L300.386127812764 211.11576096081976L300.6489610160616 208.27862154324472"></path><path style="fill:none;stroke:#ff0000;stroke-width:1;" d="M266.7771601077364 226.04102634876816L266.5723791196715 229.19424904469608"></path><path style="fill:none;stroke:#ff0000;stroke-width:1;" d="M284.7371795226516 216.62277498309092L284.4974273568898 219.6106393153892"></path><path style="fill:#7cbeff;fill-opacity:0.5;" d="M251.16793989437133 134.69556226698555L246.34620929201188 236.75503650526514L300.6489610160616 208.27862154324472L308.45099141892535 122.89416988589447"></path><path style="fill:none;stroke:#ff0000;stroke-width:1;" d="M272.9194294355843 130.21434389406036L266.7771601077364 226.04102634876816"></path><path style="fill:none;stroke:#ff0000;stroke-width:1;" d="M291.84092542951964 126.31615773395404L284.7371795226516 216.62277498309092"></path></g></svg>