<?xml version="1.0" encoding="UTF-8" standalone="no"?><svg width="400" height="400" id="seen-canvas"><g><path style="fill:#83c8ff;fill-opacity:0.5;" d="M100.54106393890518 116.3252480389761L106.25065494128825 270.68955847592395L157.36277826106962 246.63022390068375L156.58291657500524 115.57349295340418"></path><path style="fill:none;stroke:#ff0000;stroke-width:1;" d="M121.50198141762473 116.04407467350583L125.1999364279076 261.7698135380232"></path><path style="fill:#83c8ff;fill-opacity:0.5;" d="M149.0845833366956 204.807190321564L149.9212704909646 283.5458806081202L197.141041234116 255.95318834341967L198.33420932204953 189.26028640352902"></path><path style="fill:none;stroke:#ff0000;stroke-width:1;" d="M167.557971687604 198.97559286298574L167.54826623333958 273.24561312659966"></path><path style="fill:none;stroke:#ff0000;stroke-width:1;" d="M183.85325758133772 193.83156914629544L183.18146610677027 264.11041262834874"></path><path style="fill:#83c9ff;fill-opacity:0.5;" d="M149.05628405236678 201.85762563355289L149.0845833366956 204.807190321564L198.33420932204953 189.26028640352902L198.38129169106134 186.78173776000835"></path><path style="fill:none;stroke:#ff0000;stroke-width:1;" d="M167.56125928606377 196.20169276944767L167.557971687604 198.97559286298574"></path><path style="fill:none;stroke:#ff0000;stroke-width:1;" d="M183.8811075973362 191.21363062749703L183.85325758133772 193.83156914629544"></path><path style="fill:#83c9ff;fill-opacity:0.5;" d="M149.0491856035179 199.18126962053358L149.05628405236678 201.85762563355289L198.38129169106134 186.78173776000835L198.4407200821855 184.5336281211956"></path><path style="fill:none;stroke:#ff0000;stroke-width:1;" d="M167.58209882553464 193.68511584277053L167.56125928606377 196.20169276944767"></path><path style="fill:none;stroke:#ff0000;stroke-width:1;" d="M183.92361677769026 188.83884615213043L183.8811075973362 191.21363062749703"></path><path style="fill:#83caff;fill-opacity:0.5;" d="M149.08140993666126 196.7522010326302L149.0491856035179 199.18126962053358L198.4407200821855 184.5336281211956L198.52943937042693 182.4935152999915"></path><path style="fill:none;stroke:#ff0000;stroke-width:1;" d="M167.63816895741337 191.40122955564487L167.58209882553464 193.68511584277053"></path><path style="fill:none;stroke:#ff0000;stroke-width:1;" d="M183.99807467157328 186.68373612132578L183.92361677769026 188.83884615213043"></path><path style="fill:#84cbff;fill-opacity:0.5;" d="M149.1711747820757 194.54372797409758L149.08140993666126 196.7522010326302L198.52943937042693 182.4935152999915L198.66448192776494 180.63841484824187"></path><path style="fill:none;stroke:#ff0000;stroke-width:1;" d="M167.74724226013873 189.32471858017814L167.63816895741337 191.40122955564487"></path><path style="fill:none;stroke:#ff0000;stroke-width:1;" d="M184.1218618610966 184.72421346141837L183.99807467157328 186.68373612132578"></path><path style="fill:#86cdff;fill-opacity:0.5;" d="M149.33680526658952 192.5285085803832L149.1711747820757 194.54372797409758L198.66448192776494 180.63841484824187L198.86297373436676 178.94488536724273"></path><path style="fill:none;stroke:#ff0000;stroke-width:1;" d="M167.927194764846 187.42969205283097L167.74724226013873 189.32471858017814"></path><path style="fill:none;stroke:#ff0000;stroke-width:1;" d="M184.31245767842853 182.93567919958232L184.1218618610966 184.72421346141837"></path><path style="fill:#87d0ff;fill-opacity:0.5;" d="M149.59676268474527 190.67864791430821L149.33680526658952 192.5285085803832L198.86297373436676 178.94488536724273L199.14215379583194 177.3890966297432"></path><path style="fill:none;stroke:#ff0000;stroke-width:1;" d="M168.19603126117366 185.68976947256482L167.927194764846 187.42969205283097"></path><path style="fill:none;stroke:#ff0000;stroke-width:1;" d="M184.5874624249035 181.29309886016839L184.31245767842853 182.93567919958232"></path><path style="fill:#89d2ff;fill-opacity:0.5;" d="M149.96969080571046 188.9657697961514L149.59676268474527 190.67864791430821L199.14215379583194 177.3890966297432L199.51940712281666 175.94687975789105"></path><path style="fill:none;stroke:#ff0000;stroke-width:1;" d="M168.57192671720043 184.07814415874975L168.19603126117366 185.68976947256482"></path><path style="fill:none;stroke:#ff0000;stroke-width:1;" d="M184.96463438570203 179.77105878211987L184.5874624249035 181.29309886016839"></path><path style="fill:#8cd6ff;fill-opacity:0.5;" d="M150.47448019962215 187.36106248419577L149.96969080571046 188.9657697961514L199.51940712281666 175.94687975789105L200.0123115911581 174.59375882065572"></path><path style="fill:none;stroke:#ff0000;stroke-width:1;" d="M169.07328423722868 182.56762336390014L168.57192671720043 184.07814415874975"></path><path style="fill:none;stroke:#ff0000;stroke-width:1;" d="M185.46194200864565 178.34380159924237L184.96463438570203 179.77105878211987"></path><path style="fill:#8edbff;fill-opacity:0.5;" d="M151.13035124577496 185.83529722461506L150.47448019962215 187.36106248419577L200.0123115911581 174.59375882065572L200.63869910853055 173.30496327423333"></path><path style="fill:none;stroke:#ff0000;stroke-width:1;" d="M169.71881013346965 181.13064422081374L169.07328423722868 182.56762336390014"></path><path style="fill:none;stroke:#ff0000;stroke-width:1;" d="M186.09763174450913 176.98524019584022L185.46194200864565 178.34380159924237"></path><path style="fill:#90deff;fill-opacity:0.5;" d="M151.95695674108902 184.35881868514858L151.13035124577496 185.83529722461506L200.63869910853055 173.30496327423333L201.4167316703265 172.05542066621615"></path><path style="fill:none;stroke:#ff0000;stroke-width:1;" d="M170.5276069066451 179.73926469841732L169.71881013346965 181.13064422081374"></path><path style="fill:none;stroke:#ff0000;stroke-width:1;" d="M186.89031223225973 175.6689494457586L186.09763174450913 176.98524019584022"></path><path style="fill:#92e0ff;fill-opacity:0.5;" d="M152.97450536764595 182.9015061683272L151.95695674108902 184.35881868514858L201.4167316703265 172.05542066621615L202.36499309656077 170.81972895523327"></path><path style="fill:none;stroke:#ff0000;stroke-width:1;" d="M171.51928522183442 178.36512863964344L170.5276069066451 179.73926469841732"></path><path style="fill:none;stroke:#ff0000;stroke-width:1;" d="M187.85905576043086 174.3681349585136L186.89031223225973 175.6689494457586"></path><path style="fill:#92e0ff;fill-opacity:0.5;" d="M154.2039077128357 181.43270425814427L152.97450536764595 182.9015061683272L202.36499309656077 170.81972895523327L203.50259750837074 169.57210765800474"></path><path style="fill:none;stroke:#ff0000;stroke-width:1;" d="M172.714096337756 176.97940375090533L171.51928522183442 178.36512863964344"></path><path style="fill:none;stroke:#ff0000;stroke-width:1;" d="M189.02351825200063 173.0555778863922L187.85905576043086 174.3681349585136"></path><path style="fill:#97e8ff;fill-opacity:0.5;" d="M155.66694707905427 179.9211211773044L154.2039077128357 181.43270425814427L203.50259750837074 169.57210765800474L204.84931593447487 168.28632681964461"></path><path style="fill:none;stroke:#ff0000;stroke-width:1;" d="M174.13308691163792 175.55269109693384L172.714096337756 176.97940375090533"></path><path style="fill:none;stroke:#ff0000;stroke-width:1;" d="M190.40407941395722 171.70355458388752L189.02351825200063 173.0555778863922"></path><path style="fill:#9bedff;fill-opacity:0.5;" d="M157.38647799170337 178.3346926044577L155.66694707905427 179.9211211773044L204.84931593447487 168.28632681964461L206.42572284484376 166.93561250290418"></path><path style="fill:none;stroke:#ff0000;stroke-width:1;" d="M175.79827867387687 174.05490421419063L174.13308691163792 175.55269109693384"></path><path style="fill:none;stroke:#ff0000;stroke-width:1;" d="M192.02200517696016 170.28372954565373L190.40407941395722 171.70355458388752"></path><path style="fill:#9ff0ff;fill-opacity:0.5;" d="M200.4424633763286 298.4189645356463L200.4424633763286 298.4189645356463L242.09209785475687 266.48851772222156L242.09209785475687 266.48851772222156"></path><path style="fill:none;stroke:#ff0000;stroke-width:1;" d="M223.03093670254188 281.1016445838306L223.03093670254188 281.1016445838306"></path><path style="fill:#83c9ff;fill-opacity:0.5;" d="M200.50438087463903 295.5496854005399L200.4424633763286 298.4189645356463L242.09209785475687 266.48851772222156L242.20459457875555 264.06377115576004"></path><path style="fill:none;stroke:#ff0000;stroke-width:1;" d="M223.12343441224158 278.4710779613475L223.03093670254188 281.1016445838306"></path><path style="fill:#9ef1ff;fill-opacity:0.5;" d="M159.38665614149153 176.6404079998055L157.38647799170337 178.3346926044577L206.42572284484376 166.93561250290418L208.25336490450744 165.49252709726554"></path><path style="fill:none;stroke:#ff0000;stroke-width:1;" d="M177.7328761685968 172.45511537316654L175.79827867387687 174.05490421419063"></path><path style="fill:none;stroke:#ff0000;stroke-width:1;" d="M193.8996351425287 168.7670195675848L192.02200517696016 170.28372954565373"></path><path style="fill:#83c9ff;fill-opacity:0.5;" d="M200.58131663336206 292.94889294237674L200.50438087463903 295.5496854005399L242.20459457875555 264.06377115576004L242.3249042512596 261.86632401828695"></path><path style="fill:none;stroke:#ff0000;stroke-width:1;" d="M223.22688286053148 276.08684506273437L223.12343441224158 278.4710779613475"></path><path style="fill:#83caff;fill-opacity:0.5;" d="M200.694331986097 290.59435947091066L200.58131663336206 292.94889294237674L242.3249042512596 261.86632401828695L242.47208778693567 259.87623815597556"></path><path style="fill:none;stroke:#ff0000;stroke-width:1;" d="M223.36140839808363 273.9278346724596L223.22688286053148 276.08684506273437"></path><path style="fill:#84cbff;fill-opacity:0.5;" d="M200.86462351080257 288.4631031040533L200.694331986097 290.59435947091066L242.47208778693567 259.87623815597556L242.66531766017025 258.0730417995431"></path><path style="fill:none;stroke:#ff0000;stroke-width:1;" d="M223.54726081855839 271.9723066625521L223.36140839808363 273.9278346724596"></path><path style="fill:#a0f3ff;fill-opacity:0.5;" d="M161.69320451627073 174.80409558218614L159.38665614149153 176.6404079998055L208.25336490450744 165.49252709726554L210.3549548431457 163.92882224484615"></path><path style="fill:none;stroke:#ff0000;stroke-width:1;" d="M179.96150661733353 170.72136577029863L177.7328761685968 172.45511537316654"></path><path style="fill:none;stroke:#ff0000;stroke-width:1;" d="M196.06059847829897 167.12342645872704L193.8996351425287 168.7670195675848"></path><path style="fill:#86cdff;fill-opacity:0.5;" d="M201.1135324707966 286.53151003100606L200.86462351080257 288.4631031040533L242.66531766017025 258.0730417995431L242.92388260752193 256.43581585834244"></path><path style="fill:none;stroke:#ff0000;stroke-width:1;" d="M223.80481972427856 270.1979935851584L223.54726081855839 271.9723066625521"></path><path style="fill:#87d0ff;fill-opacity:0.5;" d="M201.4625747618816 284.77543588820186L201.1135324707966 286.53151003100606L242.92388260752193 256.43581585834244L243.267207652179 254.94326462131895"></path><path style="fill:none;stroke:#ff0000;stroke-width:1;" d="M224.15461849734808 268.5821843677669L223.80481972427856 270.1979935851584"></path><path style="fill:#89d2ff;fill-opacity:0.5;" d="M201.9334918553912 283.17028499037747L201.4625747618816 284.77543588820186L243.267207652179 254.94326462131895L243.7148897637337 253.57377012029644"></path><path style="fill:none;stroke:#ff0000;stroke-width:1;" d="M224.61738626272057 267.1017891585561L224.15461849734808 268.5821843677669"></path><path style="fill:#a1f5ff;fill-opacity:0.5;" d="M164.3337217379766 172.7901609486272L161.69320451627073 174.80409558218614L210.3549548431457 163.92882224484615L212.7545940701248 162.2152615472073"></path><path style="fill:none;stroke:#ff0000;stroke-width:1;" d="M182.5104970226476 168.82043548067043L179.96150661733353 170.72136577029863"></path><path style="fill:none;stroke:#ff0000;stroke-width:1;" d="M198.53006258713364 165.32183485371692L196.06059847829897 167.12342645872704"></path><path style="fill:#8cd6ff;fill-opacity:0.5;" d="M202.54832334629896 281.6910663837216L201.9334918553912 283.17028499037747L243.7148897637337 253.57377012029644L244.28674953443345 252.3054295409517"></path><path style="fill:none;stroke:#ff0000;stroke-width:1;" d="M225.21410831661842 265.73338453697613L224.61738626272057 267.1017891585561"></path><path style="fill:#8edbff;fill-opacity:0.5;" d="M203.32950192408427 280.3124258226765L202.54832334629896 281.6910663837216L244.28674953443345 252.3054295409517L245.00289937539347 251.11607514176777"></path><path style="fill:none;stroke:#ff0000;stroke-width:1;" d="M225.96610564898535 264.453238403432L225.21410831661842 265.73338453697613"></path><path style="fill:#90deff;fill-opacity:0.5;" d="M204.2999718880499 279.0086528097548L203.32950192408427 280.3124258226765L245.00289937539347 251.11607514176777L245.8838289162279 249.98327615780846"></path><path style="fill:none;stroke:#ff0000;stroke-width:1;" d="M226.89513441664198 263.2373138870588L225.96610564898535 264.453238403432"></path><path style="fill:#a2f6ff;fill-opacity:0.5;" d="M167.33804018744664 170.56127287010713L164.3337217379766 172.7901609486272L212.7545940701248 162.2152615472073L215.47802856191933 160.32140942873122"></path><path style="fill:none;stroke:#ff0000;stroke-width:1;" d="M185.40819493879908 166.71756780771665L182.5104970226476 168.82043548067043"></path><path style="fill:none;stroke:#ff0000;stroke-width:1;" d="M201.3350199643889 163.3297707013258L198.53006258713364 165.32183485371692"></path><path style="fill:#92e0ff;fill-opacity:0.5;" d="M205.48333273706214 277.7536617719085L204.2999718880499 279.0086528097548L245.8838289162279 249.98327615780846L246.9505085336084 248.88432212093167"></path><path style="fill:none;stroke:#ff0000;stroke-width:1;" d="M228.02350653054438 262.061251557411L226.89513441664198 263.2373138870588"></path><path style="fill:#92e0ff;fill-opacity:0.5;" d="M206.90400988886276 276.5209462698305L205.48333273706214 277.7536617719085L246.9505085336084 248.88432212093167L248.2245122446549 247.79618691715896"></path><path style="fill:none;stroke:#ff0000;stroke-width:1;" d="M229.374232914611 260.90032908909575L228.02350653054438 262.061251557411"></path><path style="fill:#a2f7ff;fill-opacity:0.5;" d="M170.73864346212105 168.07798795556607L167.33804018744664 170.56127287010713L215.47802856191933 160.32140942873122L218.55294365149862 158.21538155255368"></path><path style="fill:none;stroke:#ff0000;stroke-width:1;" d="M188.68534096741124 164.37614116438527L185.40819493879908 166.71756780771665"></path><path style="fill:none;stroke:#ff0000;stroke-width:1;" d="M204.5046200039514 161.11311478736258L201.3350199643889 163.3297707013258"></path><path style="fill:#97e8ff;fill-opacity:0.5;" d="M208.58745524401712 275.28350483809817L206.90400988886276 276.5209462698305L248.2245122446549 247.79618691715896L249.7281615886094 246.69547272031872"></path><path style="fill:none;stroke:#ff0000;stroke-width:1;" d="M230.97119148706176 259.7293973010948L229.374232914611 260.90032908909575"></path><path style="fill:#9bedff;fill-opacity:0.5;" d="M210.56038112899125 274.013736620608L208.58745524401712 275.28350483809817L249.7281615886094 246.69547272031872L251.4846925970199 245.55833268193072"></path><path style="fill:none;stroke:#ff0000;stroke-width:1;" d="M232.83932252479477 258.522791165387L230.97119148706176 259.7293973010948"></path><path style="fill:#a2f7ff;fill-opacity:0.5;" d="M174.57115518727878 165.2983035421058L170.73864346212105 168.07798795556607L218.55294365149862 158.21538155255368L222.00930471271678 155.8635509664271"></path><path style="fill:none;stroke:#ff0000;stroke-width:1;" d="M192.37550308031473 161.7572797285183L188.68534096741124 164.37614116438527"></path><path style="fill:none;stroke:#ff0000;stroke-width:1;" d="M208.0705541900389 158.63576412632406L204.5046200039514 161.11311478736258"></path><path style="fill:#9ef1ff;fill-opacity:0.5;" d="M212.85103216575445 272.6833043781856L210.56038112899125 274.013736620608L251.4846925970199 245.55833268193072L253.51844853510278 244.3603709111579"></path><path style="fill:none;stroke:#ff0000;stroke-width:1;" d="M235.0048548197658 257.25421393951143L232.83932252479477 258.522791165387"></path><path style="fill:#82c8ff;fill-opacity:0.5;" d="M174.557638346091 162.07820656250001L174.57115518727878 165.2983035421058L222.00930471271678 155.8635509664271L222.0681609529567 153.19738964357998"></path><path style="fill:none;stroke:#ff0000;stroke-width:1;" d="M192.40860294135027 158.7414478888812L192.37550308031473 161.7572797285183"></path><path style="fill:none;stroke:#ff0000;stroke-width:1;" d="M208.1252649353417 155.80363979739505L208.0705541900389 158.63576412632406"></path><path style="fill:#6fa8fa;fill-opacity:0.5;" d="M174.57115518727878 165.2983035421058L178.47535312204823 168.94081379712733L225.38084821721014 158.83129092385863L222.00930471271678 155.8635509664271"></path><path style="fill:none;stroke:#ff0000;stroke-width:1;" d="M192.37550308031473 161.7572797285183L196.10331317285903 165.14146651423042"></path><path style="fill:none;stroke:#ff0000;stroke-width:1;" d="M208.0705541900389 158.63576412632406L211.6193280585035 161.7973059405031"></path><path style="fill:#82c8ff;fill-opacity:0.5;" d="M174.5455011954479 159.1526837189714L174.557638346091 162.07820656250001L222.0681609529567 153.19738964357998L222.12172744395764 150.7765842385472"></path><path style="fill:none;stroke:#ff0000;stroke-width:1;" d="M192.43871658645963 156.00246849683688L192.40860294135027 158.7414478888812"></path><path style="fill:none;stroke:#ff0000;stroke-width:1;" d="M208.1750009661419 153.23199479999562L208.1252649353417 155.80363979739505"></path><path style="fill:#a0f3ff;fill-opacity:0.5;" d="M215.48950086769966 271.262961676899L212.85103216575445 272.6833043781856L253.51844853510278 244.3603709111579L255.85510180703363 243.07651783246195"></path><path style="fill:none;stroke:#ff0000;stroke-width:1;" d="M237.49556695423465 255.8965920069093L235.0048548197658 257.25421393951143"></path><path style="fill:#82c8ff;fill-opacity:0.5;" d="M174.53475445402026 156.4905685040995L174.5455011954479 159.1526837189714L222.12172744395764 150.7765842385472L222.17070732049459 148.57494461950833"></path><path style="fill:none;stroke:#ff0000;stroke-width:1;" d="M192.46621871974443 153.51091304878997L192.43871658645963 156.00246849683688"></path><path style="fill:none;stroke:#ff0000;stroke-width:1;" d="M208.22035518244883 150.89306221635587L208.1750009661419 153.23199479999562"></path><path style="fill:#82c8ff;fill-opacity:0.5;" d="M174.52540677430724 154.0600474896614L174.53475445402026 156.4905685040995L222.17070732049459 148.57494461950833L222.21581397919232 146.5658371702542"></path><path style="fill:none;stroke:#ff0000;stroke-width:1;" d="M192.49149027966135 151.2368044876313L192.46621871974443 153.51091304878997"></path><path style="fill:none;stroke:#ff0000;stroke-width:1;" d="M208.26193004827732 148.7585913755519L208.22035518244883 150.89306221635587"></path><path style="fill:#6fa8fa;fill-opacity:0.5;" d="M178.47535312204823 168.94081379712733L182.01628453053968 172.26175807247716L228.43419135713978 161.53362921697254L225.38084821721014 158.83129092385863"></path><path style="fill:none;stroke:#ff0000;stroke-width:1;" d="M196.10331317285903 165.14146651423042L199.48198926320495 168.22507603026034"></path><path style="fill:none;stroke:#ff0000;stroke-width:1;" d="M211.6193280585035 161.7973059405031L214.83419640140735 164.67686656423913"></path><path style="fill:#82c8ff;fill-opacity:0.5;" d="M174.51746498187333 151.82874784759355L174.52540677430724 154.0600474896614L222.21581397919232 146.5658371702542L222.25776964537428 144.722245471354"></path><path style="fill:none;stroke:#ff0000;stroke-width:1;" d="M192.51491757619365 149.14969205753744L192.49149027966135 151.2368044876313"></path><path style="fill:none;stroke:#ff0000;stroke-width:1;" d="M208.30033626951914 146.79991410273067L208.26193004827732 148.7585913755519"></path><path style="fill:#70acff;fill-opacity:0.5;" d="M203.594684081118 232.9493846922847L204.327927641095 234.77472416254585L246.77561544849056 212.97800696292575L246.1683140614182 211.4779711390012"></path><path style="fill:none;stroke:#ff0000;stroke-width:1;" d="M220.15889104159206 224.5954590816406L221.0426314364018 226.1917908976097"></path><path style="fill:none;stroke:#ff0000;stroke-width:1;" d="M233.3293024535325 217.95314668724268L233.79314312407624 219.64445435792027"></path><path style="fill:#73b1ff;fill-opacity:0.5;" d="M203.03294331746253 231.09247601743456L203.594684081118 232.9493846922847L246.1683140614182 211.4779711390012L245.71203955883476 209.9469819852123"></path><path style="fill:none;stroke:#ff0000;stroke-width:1;" d="M219.48218253640863 222.94264810702896L220.15889104159206 224.5954590816406"></path><path style="fill:none;stroke:#ff0000;stroke-width:1;" d="M232.98349068206005 216.25338202682747L233.3293024535325 217.95314668724268"></path><path style="fill:#6ea8fe;fill-opacity:0.5;" d="M204.327927641095 234.77472416254585L205.25394508819363 236.60700326512918L247.55173986188288 214.47834557562993L246.77561544849056 212.97800696292575"></path><path style="fill:none;stroke:#ff0000;stroke-width:1;" d="M221.0426314364018 226.1917908976097L222.15786997470872 227.76348862272093"></path><path style="fill:none;stroke:#ff0000;stroke-width:1;" d="M233.79314312407624 219.64445435792027L234.38931008476612 221.3644469541601"></path><path style="fill:#78b8ff;fill-opacity:0.5;" d="M202.62175196471145 229.1655141753767L203.03294331746253 231.09247601743456L245.71203955883476 209.9469819852123L245.38922466143256 208.35379333258055"></path><path style="fill:none;stroke:#ff0000;stroke-width:1;" d="M218.9879947417221 221.20129149764318L219.48218253640863 222.94264810702896"></path><path style="fill:none;stroke:#ff0000;stroke-width:1;" d="M232.74181874079073 214.50833707362574L232.98349068206005 216.25338202682747"></path><path style="fill:#6ba4f6;fill-opacity:0.5;" d="M205.25394508819363 236.60700326512918L206.394407055003 238.48486541216676L248.5147693071206 216.0103258056022L247.55173986188288 214.47834557562993"></path><path style="fill:none;stroke:#ff0000;stroke-width:1;" d="M222.15786997470872 227.76348862272093L223.52901094699487 229.34220107541816"></path><path style="fill:none;stroke:#ff0000;stroke-width:1;" d="M234.38931008476612 221.3644469541601L235.13261879315525 223.1507599250168"></path><path style="fill:#7cbeff;fill-opacity:0.5;" d="M202.34039855279883 227.12993905294056L202.62175196471145 229.1655141753767L245.38922466143256 208.35379333258055L245.18247798819985 206.66710196140502"></path><path style="fill:none;stroke:#ff0000;stroke-width:1;" d="M218.65178158335874 219.33906666554242L218.9879947417221 221.20129149764318"></path><path style="fill:none;stroke:#ff0000;stroke-width:1;" d="M232.590708822088 212.68136001180804L232.74181874079073 214.50833707362574"></path><path style="fill:#82c8ff;fill-opacity:0.5;" d="M174.51093432323887 149.7638144358031L174.51746498187333 151.82874784759355L222.25776964537428 144.722245471354L222.2973041416509 143.0168235790572"></path><path style="fill:none;stroke:#ff0000;stroke-width:1;" d="M192.5368915464652 147.21871697325554L192.51491757619365 149.14969205753744"></path><path style="fill:none;stroke:#ff0000;stroke-width:1;" d="M208.33619164805023 144.9880027814588L208.30033626951914 146.79991410273067"></path><path style="fill:#a1f5ff;fill-opacity:0.5;" d="M218.5080943156208 269.72234007943666L215.48950086769966 271.262961676899L255.85510180703363 243.07651783246195L258.5219092848556 241.6808784445421"></path><path style="fill:none;stroke:#ff0000;stroke-width:1;" d="M240.3410891500638 254.42189728247752L237.49556695423465 255.8965920069093"></path><path style="fill:#69a0ef;fill-opacity:0.5;" d="M206.394407055003 238.48486541216676L207.7714722405301 240.44720767240483L249.68313306157185 217.6054480933365L248.5147693071206 216.0103258056022"></path><path style="fill:none;stroke:#ff0000;stroke-width:1;" d="M223.52901094699487 229.34220107541816L225.1803726803586 230.95939662906727"></path><path style="fill:none;stroke:#ff0000;stroke-width:1;" d="M235.13261879315525 223.1507599250168L236.03852689896064 225.04172733906296"></path><path style="fill:#7fc2ff;fill-opacity:0.5;" d="M202.16834323865538 224.94702146784456L202.34039855279883 227.12993905294056L245.18247798819985 206.66710196140502L245.0745348136727 204.85548605193216"></path><path style="fill:none;stroke:#ff0000;stroke-width:1;" d="M218.44896506608765 217.32335043036676L218.65178158335874 219.33906666554242"></path><path style="fill:none;stroke:#ff0000;stroke-width:1;" d="M232.51680866564934 210.73584947699194L232.590708822088 212.68136001180804"></path><path style="fill:#82c8ff;fill-opacity:0.5;" d="M174.50581872072652 147.83197579917723L174.51093432323887 149.7638144358031L222.2973041416509 143.0168235790572L222.33515386700222 141.42194153321196"></path><path style="fill:none;stroke:#ff0000;stroke-width:1;" d="M192.55780713460788 145.41266840241116L192.5368915464652 147.21871697325554"></path><path style="fill:none;stroke:#ff0000;stroke-width:1;" d="M208.37012012039034 143.29351981393398L208.33619164805023 144.9880027814588"></path><path style="fill:#6fa8fa;fill-opacity:0.5;" d="M182.01628453053968 172.26175807247716L185.20630851063362 175.28994308480316L231.18083863357498 163.99528316311344L228.43419135713978 161.53362921697254"></path><path style="fill:none;stroke:#ff0000;stroke-width:1;" d="M199.48198926320495 168.22507603026034L202.5237888818414 171.03552110440913"></path><path style="fill:none;stroke:#ff0000;stroke-width:1;" d="M214.83419640140735 164.67686656423913L217.7271122065563 167.3004885511028"></path><path style="fill:#69a0ee;fill-opacity:0.5;" d="M207.7714722405301 240.44720767240483L209.40788337484588 242.53331008801464L251.07567392066335 219.29545999906935L249.68313306157185 217.6054480933365"></path><path style="fill:none;stroke:#ff0000;stroke-width:1;" d="M225.1803726803586 230.95939662906727L227.13615662895867 232.64636982028108"></path><path style="fill:none;stroke:#ff0000;stroke-width:1;" d="M236.03852689896064 225.04172733906296L237.12327488146542 227.0766202911542"></path><path style="fill:#80c5ff;fill-opacity:0.5;" d="M202.08515256124375 222.57777790780196L202.16834323865538 224.94702146784456L245.0745348136727 204.85548605193216L245.04821128024145 202.88734884402146"></path><path style="fill:none;stroke:#ff0000;stroke-width:1;" d="M218.35493113214966 215.12116447324263L218.44896506608765 217.32335043036676"></path><path style="fill:none;stroke:#ff0000;stroke-width:1;" d="M232.5069161609898 208.63515845712908L232.51680866564934 210.73584947699194"></path><path style="fill:#82c8ff;fill-opacity:0.5;" d="M174.5021210327959 145.99959854119487L174.50581872072652 147.83197579917723L222.33515386700222 141.42194153321196L222.37206099364673 139.9097227861397"></path><path style="fill:none;stroke:#ff0000;stroke-width:1;" d="M192.57806280072904 143.70002934156037L192.55780713460788 145.41266840241116"></path><path style="fill:none;stroke:#ff0000;stroke-width:1;" d="M208.40275098785023 141.68685813221958L208.37012012039034 143.29351981393398"></path><path style="fill:#82c7ff;fill-opacity:0.5;" d="M202.07043885905952 219.98289258857176L202.08515256124375 222.57777790780196L245.04821128024145 202.88734884402146L245.08636184339318 200.7308673245794"></path><path style="fill:none;stroke:#ff0000;stroke-width:1;" d="M218.34501832528542 212.69911036777083L218.35493113214966 215.12116447324263"></path><path style="fill:none;stroke:#ff0000;stroke-width:1;" d="M232.5479134953801 206.3425224425023L232.5069161609898 208.63515845712908"></path><path style="fill:#82c8ff;fill-opacity:0.5;" d="M174.4998433186486 144.23272961151775L174.5021210327959 145.99959854119487L222.37206099364673 139.9097227861397L222.4087728877667 138.4520732960677"></path><path style="fill:none;stroke:#ff0000;stroke-width:1;" d="M192.5980601630238 142.04901203651147L192.57806280072904 143.70002934156037"></path><path style="fill:none;stroke:#ff0000;stroke-width:1;" d="M208.43471834394717 140.13817247168453L208.40275098785023 141.68685813221958"></path><path style="fill:#6ba3f2;fill-opacity:0.5;" d="M209.40788337484588 242.53331008801464L211.32707150069785 244.7829762514176L252.71171978192018 221.11244887041232L251.07567392066335 219.29545999906935"></path><path style="fill:none;stroke:#ff0000;stroke-width:1;" d="M227.13615662895867 232.64636982028108L229.42040962181184 234.43423890081075"></path><path style="fill:none;stroke:#ff0000;stroke-width:1;" d="M237.12327488146542 227.0766202911542L238.40404584949394 229.29592273431032"></path><path style="fill:#82c8ff;fill-opacity:0.5;" d="M174.49898710614528 142.49712612811854L174.4998433186486 144.23272961151775L222.4087728877667 138.4520732960677L222.44604175921083 137.02070207058827"></path><path style="fill:none;stroke:#ff0000;stroke-width:1;" d="M192.61820377644884 140.42758265365802L192.5980601630238 142.04901203651147"></path><path style="fill:none;stroke:#ff0000;stroke-width:1;" d="M208.4666607039554 138.617401164502L208.43471834394717 140.13817247168453"></path><path style="fill:#6fa7f9;fill-opacity:0.5;" d="M185.20630851063362 175.28994308480316L188.05896199534024 178.0554304827775L233.63314704054883 166.24182872518426L231.18083863357498 163.99528316311344"></path><path style="fill:none;stroke:#ff0000;stroke-width:1;" d="M202.5237888818414 171.03552110440913L205.24200926437462 173.60129318516246"></path><path style="fill:none;stroke:#ff0000;stroke-width:1;" d="M217.7271122065563 167.3004885511028L220.3109616571691 169.69516513710158"></path><path style="fill:#82c8ff;fill-opacity:0.5;" d="M202.10380403891952 217.12264659262323L202.07043885905952 219.98289258857176L245.08636184339318 200.7308673245794L245.17183976802428 198.35394581734286"></path><path style="fill:none;stroke:#ff0000;stroke-width:1;" d="M218.39449915223005 210.02329374713403L218.34501832528542 212.69911036777083"></path><path style="fill:none;stroke:#ff0000;stroke-width:1;" d="M232.62671029836318 203.821011524361L232.5479134953801 206.3425224425023"></path><path style="fill:#6da5f5;fill-opacity:0.5;" d="M211.32707150069785 244.7829762514176L213.55326959234037 247.23668635917173L254.61116114419522 223.08894232587903L252.71171978192018 221.11244887041232"></path><path style="fill:none;stroke:#ff0000;stroke-width:1;" d="M229.42040962181184 234.43423890081075L232.05697935769734 236.3539344644268"></path><path style="fill:none;stroke:#ff0000;stroke-width:1;" d="M238.40404584949394 229.29592273431032L239.8991477872853 231.7416499864358"></path><path style="fill:#82c8ff;fill-opacity:0.5;" d="M174.4995536623538 140.75827240747003L174.49898710614528 142.49712612811854L222.44604175921083 137.02070207058827L222.4846245446244 135.58713297701757"></path><path style="fill:none;stroke:#ff0000;stroke-width:1;" d="M192.63890105093458 138.8034749506964L192.61820377644884 140.42758265365802"></path><path style="fill:none;stroke:#ff0000;stroke-width:1;" d="M208.4992208408088 137.0942782456165L208.4666607039554 138.617401164502"></path><path style="fill:#a2f6ff;fill-opacity:0.5;" d="M221.94176120632767 268.0296909069593L218.5080943156208 269.72234007943666L258.5219092848556 241.6808784445421L261.54800638313174 240.1465502980259"></path><path style="fill:none;stroke:#ff0000;stroke-width:1;" d="M243.57325254047208 252.8009331249891L240.3410891500638 254.42189728247752"></path><path style="fill:#82c8ff;fill-opacity:0.5;" d="M174.5015442663268 138.98138391191506L174.4995536623538 140.75827240747003L222.4846245446244 135.58713297701757L222.5252830280879 134.1227076569352"></path><path style="fill:none;stroke:#ff0000;stroke-width:1;" d="M192.6605623118686 137.14419272133918L192.63890105093458 138.8034749506964"></path><path style="fill:none;stroke:#ff0000;stroke-width:1;" d="M208.5330458311913 135.5383356853956L208.4992208408088 137.0942782456165"></path><path style="fill:#83c8ff;fill-opacity:0.5;" d="M202.16478744819005 213.95685394241804L202.10380403891952 217.12264659262323L245.17183976802428 198.35394581734286L245.28746053073786 195.72417440102225"></path><path style="fill:none;stroke:#ff0000;stroke-width:1;" d="M218.4785539950643 207.05923706711633L218.39449915223005 210.02329374713403"></path><path style="fill:none;stroke:#ff0000;stroke-width:1;" d="M232.7301954242814 201.03350645852478L232.62671029836318 203.821011524361"></path><path style="fill:#6ea6f8;fill-opacity:0.5;" d="M188.05896199534024 178.0554304827775L190.58888479478435 180.5894049155571L235.80426817251725 168.2996062994011L233.63314704054883 166.24182872518426"></path><path style="fill:none;stroke:#ff0000;stroke-width:1;" d="M205.24200926437462 173.60129318516246L207.65091937526472 175.95184678132136"></path><path style="fill:none;stroke:#ff0000;stroke-width:1;" d="M220.3109616571691 169.69516513710158L222.59950182757518 171.8887369675412"></path><path style="fill:#82c8ff;fill-opacity:0.5;" d="M174.50496048399756 137.1313978385747L174.5015442663268 138.98138391191506L222.5252830280879 134.1227076569352L222.5687842032774 132.5985793911395"></path><path style="fill:none;stroke:#ff0000;stroke-width:1;" d="M192.68360100554284 135.41700079878404L192.6605623118686 137.14419272133918"></path><path style="fill:none;stroke:#ff0000;stroke-width:1;" d="M208.56878731555832 133.91889557171072L208.5330458311913 135.5383356853956"></path><path style="fill:#6ea6f7;fill-opacity:0.5;" d="M213.55326959234037 247.23668635917173L216.11163669676645 249.9357641796995L256.7945351875804 225.25801732489776L254.61116114419522 223.08894232587903"></path><path style="fill:none;stroke:#ff0000;stroke-width:1;" d="M232.05697935769734 236.3539344644268L235.06946326780403 238.43617928303993"></path><path style="fill:none;stroke:#ff0000;stroke-width:1;" d="M239.8991477872853 231.7416499864358L241.62822230462137 234.4577165580016"></path><path style="fill:#9ff0ff;fill-opacity:0.5;" d="M202.16478744819005 213.95685394241804L202.16478744819005 213.95685394241804L245.28746053073786 195.72417440102225L245.28746053073786 195.72417440102225"></path><path style="fill:none;stroke:#ff0000;stroke-width:1;" d="M218.4785539950643 207.05923706711633L218.4785539950643 207.05923706711633"></path><path style="fill:none;stroke:#ff0000;stroke-width:1;" d="M232.7301954242814 201.03350645852478L232.7301954242814 201.03350645852478"></path><path style="fill:#83c8ff;fill-opacity:0.5;" d="M174.50980444537825 135.17295006815542L174.50496048399756 137.1313978385747L222.5687842032774 132.5985793911395L222.61590088141523 130.98569775835003"></path><path style="fill:none;stroke:#ff0000;stroke-width:1;" d="M192.70843405243272 133.5889043961323L192.68360100554284 135.41700079878404"></path><path style="fill:none;stroke:#ff0000;stroke-width:1;" d="M208.60710197602617 132.2050520589465L208.56878731555832 133.91889557171072"></path><path style="fill:#83c8ff;fill-opacity:0.5;" d="M202.2259474424011 210.77930957143195L202.16478744819005 213.95685394241804L245.28746053073786 195.72417440102225L245.40339028784126 193.08638445262704"></path><path style="fill:none;stroke:#ff0000;stroke-width:1;" d="M218.56377962362328 204.08451658842202L218.4785539950643 207.05923706711633"></path><path style="fill:none;stroke:#ff0000;stroke-width:1;" d="M232.83311208993146 198.23733773335502L232.7301954242814 201.03350645852478"></path><path style="fill:#83c8ff;fill-opacity:0.5;" d="M174.51607912454674 133.0703381639096L174.50980444537825 135.17295006815542L222.61590088141523 130.98569775835003L222.66741254986079 129.25478391582882"></path><path style="fill:none;stroke:#ff0000;stroke-width:1;" d="M192.7354823515687 131.62661653804463L192.70843405243272 133.5889043961323"></path><path style="fill:none;stroke:#ff0000;stroke-width:1;" d="M208.64865223657318 130.3656428819498L208.60710197602617 132.2050520589465"></path><path style="fill:#6da5f6;fill-opacity:0.5;" d="M190.58888479478435 180.5894049155571L192.81174002504955 182.92404018136685L237.7080880430376 170.1956263441255L235.80426817251725 168.2996062994011"></path><path style="fill:none;stroke:#ff0000;stroke-width:1;" d="M207.65091937526472 175.95184678132136L209.76568841734775 178.11748283674845"></path><path style="fill:none;stroke:#ff0000;stroke-width:1;" d="M222.59950182757518 171.8887369675412L224.60729559864672 173.9097883013787"></path><path style="fill:#6ea7f8;fill-opacity:0.5;" d="M216.11163669676645 249.9357641796995L219.02839397332744 252.92255962407063L259.283117200026 227.65341872473542L256.7945351875804 225.25801732489776"></path><path style="fill:none;stroke:#ff0000;stroke-width:1;" d="M235.06946326780403 238.43617928303993L238.48115090546708 240.71145949973203"></path><path style="fill:none;stroke:#ff0000;stroke-width:1;" d="M241.62822230462137 234.4577165580016L243.61248490725978 237.49036166327113"></path><path style="fill:#82c8ff;fill-opacity:0.5;" d="M202.2594003737065 207.88846465197668L202.2259474424011 210.77930957143195L245.40339028784126 193.08638445262704L245.4893711148911 190.688586861817"></path><path style="fill:none;stroke:#ff0000;stroke-width:1;" d="M218.6200162377101 201.37907802487624L218.56377962362328 204.08451658842202"></path><path style="fill:none;stroke:#ff0000;stroke-width:1;" d="M232.90635145260921 195.69498396807825L232.83311208993146 198.23733773335502"></path><path style="fill:#83c8ff;fill-opacity:0.5;" d="M174.5237886232169 130.78747005984013L174.51607912454674 133.0703381639096L222.66741254986079 129.25478391582882L222.724106487113 127.37629630223927"></path><path style="fill:none;stroke:#ff0000;stroke-width:1;" d="M192.76517143988502 129.49651329598075L192.7354823515687 131.62661653804463"></path><path style="fill:none;stroke:#ff0000;stroke-width:1;" d="M208.69410719081083 128.3692101986547L208.64865223657318 130.3656428819498"></path><path style="fill:#6ca3f3;fill-opacity:0.5;" d="M192.81174002504955 182.92404018136685L194.74413091613522 185.09236494359328L239.35916523743418 171.95747572137896L237.7080880430376 170.1956263441255"></path><path style="fill:none;stroke:#ff0000;stroke-width:1;" d="M209.76568841734775 178.11748283674845L211.60231164457153 180.1292322300459"></path><path style="fill:none;stroke:#ff0000;stroke-width:1;" d="M224.60729559864672 173.9097883013787L226.34964449242216 175.78754368880973"></path><path style="fill:#82c7ff;fill-opacity:0.5;" d="M202.24386622309552 205.2503997341924L202.2594003737065 207.88846465197668L245.4893711148911 190.688586861817L245.52748141614336 188.50265441110818"></path><path style="fill:none;stroke:#ff0000;stroke-width:1;" d="M218.62715179951587 198.9112089534436L218.6200162377101 201.37907802487624"></path><path style="fill:none;stroke:#ff0000;stroke-width:1;" d="M232.9309242257193 193.37664496924376L232.90635145260921 195.69498396807825"></path><path style="fill:#83c8ff;fill-opacity:0.5;" d="M174.5329384590075 128.28779800189426L174.5237886232169 130.78747005984013L222.724106487113 127.37629630223927L222.78677914127456 125.32038652201517"></path><path style="fill:none;stroke:#ff0000;stroke-width:1;" d="M192.79793231129435 127.16457647857384L192.76517143988502 129.49651329598075"></path><path style="fill:none;stroke:#ff0000;stroke-width:1;" d="M208.74414376373232 126.18395047543098L208.69410719081083 128.3692101986547"></path><path style="fill:#a2f7ff;fill-opacity:0.5;" d="M225.82859100231082 266.1515745452126L221.94176120632767 268.0296909069593L261.54800638313174 240.1465502980259L264.9647465103733 238.44540712866484"></path><path style="fill:none;stroke:#ff0000;stroke-width:1;" d="M247.22649444326586 251.0030785470278L243.57325254047208 252.8009331249891"></path><path style="fill:#6aa0ef;fill-opacity:0.5;" d="M194.74413091613522 185.09236494359328L196.40351499828475 187.12812945067006L240.7726680151231 173.6132255812174L239.35916523743418 171.95747572137896"></path><path style="fill:none;stroke:#ff0000;stroke-width:1;" d="M211.60231164457153 180.1292322300459L213.17753429502173 182.01874054226084"></path><path style="fill:none;stroke:#ff0000;stroke-width:1;" d="M226.34964449242216 175.78754368880973L227.84252012089428 177.5517660744738"></path><path style="fill:#6fa8f9;fill-opacity:0.5;" d="M219.02839397332744 252.92255962407063L222.33097422947642 256.24064890072157L262.0990202318474 230.3096883725977L259.283117200026 227.65341872473542"></path><path style="fill:none;stroke:#ff0000;stroke-width:1;" d="M238.48115090546708 240.71145949973203L242.31496006855997 243.2099873500644"></path><path style="fill:none;stroke:#ff0000;stroke-width:1;" d="M243.61248490725978 237.49036166327113L245.87500299675972 240.88864290573161"></path><path style="fill:#80c5ff;fill-opacity:0.5;" d="M202.1579981377942 202.83078294670406L202.24386622309552 205.2503997341924L245.52748141614336 188.50265441110818L245.499758458071 186.5001767305793"></path><path style="fill:none;stroke:#ff0000;stroke-width:1;" d="M218.56501759112672 196.64883343905288L218.62715179951587 198.9112089534436"></path><path style="fill:none;stroke:#ff0000;stroke-width:1;" d="M232.88779289973516 191.25219975923685L232.9309242257193 193.37664496924376"></path><path style="fill:#83c8ff;fill-opacity:0.5;" d="M174.5435358598569 125.53423720495164L174.5329384590075 128.28779800189426L222.78677914127456 125.32038652201517L222.85623778067946 123.05684511562285"></path><path style="fill:none;stroke:#ff0000;stroke-width:1;" d="M192.83420240135803 124.59632334799686L192.79793231129435 127.16457647857384"></path><path style="fill:none;stroke:#ff0000;stroke-width:1;" d="M208.79944811534205 123.77765306329955L208.74414376373232 126.18395047543098"></path><path style="fill:#699fef;fill-opacity:0.5;" d="M196.40351499828475 187.12812945067006L197.80811665641744 189.06567462448194L241.9643109620615 175.19134156857825L240.7726680151231 173.6132255812174"></path><path style="fill:none;stroke:#ff0000;stroke-width:1;" d="M213.17753429502173 182.01874054226084L214.50877444870213 183.8181551743464"></path><path style="fill:none;stroke:#ff0000;stroke-width:1;" d="M227.84252012089428 177.5517660744738L229.10249492978065 179.23265722409923"></path><path style="fill:#7fc2ff;fill-opacity:0.5;" d="M201.98043715401278 200.5949169341206L202.1579981377942 202.83078294670406L245.499758458071 186.5001767305793L245.38823688548328 184.65249225371727"></path><path style="fill:none;stroke:#ff0000;stroke-width:1;" d="M218.41343638457957 194.55955337901966L218.56501759112672 196.64883343905288"></path><path style="fill:none;stroke:#ff0000;stroke-width:1;" d="M232.75791458194715 189.2912429680816L232.88779289973516 191.25219975923685"></path><path style="fill:#ff0000;fill-opacity:1;" d="M246.56620850040855 244.84613553562102L247.87125831541667 244.10581658382378L249.46742984868848 243.0282433435947"></path><path style="fill:#7cbeff;fill-opacity:0.5;" d="M201.68987240446918 198.50779553764227L201.98043715401278 200.5949169341206L245.38823688548328 184.65249225371727L245.17499095382206 182.93072659337756"></path><path style="fill:none;stroke:#ff0000;stroke-width:1;" d="M218.15227526962693 192.61069802535687L218.41343638457957 194.55955337901966"></path><path style="fill:none;stroke:#ff0000;stroke-width:1;" d="M232.52228792664286 187.4631283427712L232.75791458194715 189.2912429680816"></path><path style="fill:#6ba3f6;fill-opacity:0.5;" d="M197.80811665641744 189.06567462448194L198.97683901751358 190.93980479271224L242.9502917712186 176.7205970739533L241.9643109620615 175.19134156857825"></path><path style="fill:none;stroke:#ff0000;stroke-width:1;" d="M214.50877444870213 183.8181551743464L215.61404559061194 185.56001582213028"></path><path style="fill:none;stroke:#ff0000;stroke-width:1;" d="M229.10249492978065 179.23265722409923L230.14667289509035 180.8607613082969"></path><path style="fill:#83c8ff;fill-opacity:0.5;" d="M174.5555900663778 122.48906856006437L174.5435358598569 125.53423720495164L222.85623778067946 123.05684511562285L222.93330242743107 120.55503685056289"></path><path style="fill:none;stroke:#ff0000;stroke-width:1;" d="M192.87442674480948 121.75672283125333L192.83420240135803 124.59632334799686"></path><path style="fill:none;stroke:#ff0000;stroke-width:1;" d="M208.86071729593084 121.11762703002105L208.79944811534205 123.77765306329955"></path><path style="fill:#ff0000;fill-opacity:1;" d="M252.9277394028676 242.98441274824432L249.46742984868848 243.0282433435947L251.6392373559239 243.00292693116893"></path><path style="fill:#78b8ff;fill-opacity:0.5;" d="M201.26510654803423 196.53417015497934L201.68987240446918 198.50779553764227L245.17499095382206 182.93072659337756L244.8421803236066 181.30583730248483"></path><path style="fill:none;stroke:#ff0000;stroke-width:1;" d="M217.7615029240299 190.76938162938617L218.15227526962693 192.61069802535687"></path><path style="fill:none;stroke:#ff0000;stroke-width:1;" d="M232.16200397563247 185.73701932837662L232.52228792664286 187.4631283427712"></path><path style="fill:#6ea8fd;fill-opacity:0.5;" d="M198.97683901751358 190.93980479271224L199.9291760970505 192.7856652364651L243.7472286999114 178.22999018481582L242.9502917712186 176.7205970739533"></path><path style="fill:none;stroke:#ff0000;stroke-width:1;" d="M215.61404559061194 185.56001582213028L216.511879625616 187.2771492321761"></path><path style="fill:none;stroke:#ff0000;stroke-width:1;" d="M230.14667289509035 180.8607613082969L230.9926207994358 182.46687240532785"></path><path style="fill:#73b0ff;fill-opacity:0.5;" d="M200.68512607966557 194.63862560872772L201.26510654803423 196.53417015497934L244.8421803236066 181.30583730248483L244.3720992182307 179.74866492567497"></path><path style="fill:none;stroke:#ff0000;stroke-width:1;" d="M217.2212510487136 189.00256906944287L217.7615029240299 190.76938162938617"></path><path style="fill:none;stroke:#ff0000;stroke-width:1;" d="M231.65830067736044 184.08194660681522L232.16200397563247 185.73701932837662"></path><path style="fill:#70acff;fill-opacity:0.5;" d="M199.9291760970505 192.7856652364651L200.68512607966557 194.63862560872772L244.3720992182307 179.74866492567497L243.7472286999114 178.22999018481582"></path><path style="fill:none;stroke:#ff0000;stroke-width:1;" d="M216.511879625616 187.2771492321761L217.2212510487136 189.00256906944287"></path><path style="fill:none;stroke:#ff0000;stroke-width:1;" d="M230.9926207994358 182.46687240532785L231.65830067736044 184.08194660681522"></path><path style="fill:#6fa8fa;fill-opacity:0.5;" d="M222.33097422947642 256.24064890072157L226.04818680927053 259.9350545738404L265.2653039917605 233.26230595034983L262.0990202318474 230.3096883725977"></path><path style="fill:none;stroke:#ff0000;stroke-width:1;" d="M242.31496006855997 243.2099873500644L246.59336691343339 245.96165561662818"></path><path style="fill:none;stroke:#ff0000;stroke-width:1;" d="M245.87500299675972 240.88864290573161L248.44101930683672 244.70501128952185"></path><path style="fill:#83c8ff;fill-opacity:0.5;" d="M174.56911264432216 119.11382456831412L174.5555900663778 122.48906856006437L222.93330242743107 120.55503685056289L223.01880808707892 117.78382508272188"></path><path style="fill:none;stroke:#ff0000;stroke-width:1;" d="M192.9190593148812 118.61009757045666L192.87442674480948 121.75672283125333"></path><path style="fill:none;stroke:#ff0000;stroke-width:1;" d="M208.92866116503305 118.1706157113726L208.86071729593084 121.11762703002105"></path><path style="fill:#ff0000;fill-opacity:1;" d="M246.56620850040855 244.84613553562102L245.4376151606978 247.076818430955L247.87125831541667 244.10581658382378"></path><path style="fill:#ff0000;fill-opacity:1;" d="M249.46742984868848 243.0282433435947L247.87125831541667 244.10581658382378L251.6392373559239 243.00292693116893"></path><path style="fill:#9ff0ff;fill-opacity:0.5;" d="M174.56911264432216 119.11382456831412L174.56911264432216 119.11382456831412L223.01880808707892 117.78382508272188L223.01880808707892 117.78382508272188"></path><path style="fill:none;stroke:#ff0000;stroke-width:1;" d="M192.9190593148812 118.61009757045666L192.9190593148812 118.61009757045666"></path><path style="fill:none;stroke:#ff0000;stroke-width:1;" d="M208.92866116503305 118.1706157113726L208.92866116503305 118.1706157113726"></path><path style="fill:#ff0000;fill-opacity:1;" d="M252.9277394028676 242.98441274824432L251.6392373559239 243.00292693116893L255.2905635137009 244.19579377967847"></path><path style="fill:#ff0000;fill-opacity:1;" d="M245.26546259012432 250.76878380730275L247.40739419970487 253.77030810350473L247.30006025342183 253.10448652221882"></path><path style="fill:#ff0000;fill-opacity:1;" d="M257.22250128289267 250.90976877811138L257.4209472482382 247.22033835785916L257.20616551485875 250.21651469969788"></path><path style="fill:#ff0000;fill-opacity:1;" d="M249.73640132928702 255.05490947939032L247.30006025342183 253.10448652221882L247.40739419970487 253.77030810350473"></path><path style="fill:#ff0000;fill-opacity:1;" d="M246.07070620490177 249.9116682403021L245.4376151606978 247.076818430955L245.26546259012432 250.76878380730275"></path><path style="fill:#a2f7ff;fill-opacity:0.5;" d="M230.21039999482127 264.0524882408301L225.82859100231082 266.1515745452126L264.9647465103733 238.44540712866484L268.806094151036 236.54784298378755"></path><path style="fill:none;stroke:#ff0000;stroke-width:1;" d="M251.33833037918973 248.9959840648591L247.22649444326586 251.0030785470278"></path><path style="fill:#6fa8fa;fill-opacity:0.5;" d="M226.04818680927053 259.9350545738404L230.21039999482127 264.0524882408301L268.806094151036 236.54784298378755L265.2653039917605 233.26230595034983"></path><path style="fill:none;stroke:#ff0000;stroke-width:1;" d="M246.59336691343339 245.96165561662818L251.33833037918973 248.9959840648591"></path><path style="fill:none;stroke:#ff0000;stroke-width:1;" d="M248.44101930683672 244.70501128952185L251.33833037918973 248.9959840648591"></path><path style="fill:#ff0000;fill-opacity:1;" d="M256.156162131406 253.18558200868986L257.22250128289267 250.90976877811138L257.20616551485875 250.21651469969788"></path><path style="fill:#ff0000;fill-opacity:1;" d="M256.49237020999504 246.86850597492085L257.4209472482382 247.22033835785916L255.2905635137009 244.19579377967847"></path><path style="fill:#ff0000;fill-opacity:1;" d="M246.07070620490177 249.9116682403021L245.26546259012432 250.76878380730275L247.30006025342183 253.10448652221882"></path><path style="fill:#ff0000;fill-opacity:1;" d="M192.2859750525961 168.0505450818652L196.02087285215933 166.91147711796665L193.97123991620697 167.36771821284353"></path><path style="fill:#ff0000;fill-opacity:1;" d="M245.4376151606978 247.076818430955L247.5883863341871 247.08682189883285L247.87125831541667 244.10581658382378"></path><path style="fill:#ff0000;fill-opacity:1;" d="M196.93474098375498 165.5488568747541L196.02087285215933 166.91147711796665L198.3734435977723 163.80397940680209"></path><path style="fill:#ff0000;fill-opacity:1;" d="M250.24183227025964 244.82989150616413L251.6392373559239 243.00292693116893L247.87125831541667 244.10581658382378"></path><path style="fill:#ff0000;fill-opacity:1;" d="M256.49237020999504 246.86850597492085L257.20616551485875 250.21651469969788L257.4209472482382 247.22033835785916"></path><path style="fill:#ff0000;fill-opacity:1;" d="M251.6392373559239 243.00292693116893L253.72995396242018 245.29153151734567L255.2905635137009 244.19579377967847"></path><path style="fill:#ff0000;fill-opacity:1;" d="M186.3184517632963 163.60960501361285L188.58378863554418 166.79273461959372L187.92752823461328 165.31259593766433"></path><path style="fill:#ff0000;fill-opacity:1;" d="M246.07070620490177 249.9116682403021L247.5883863341871 247.08682189883285L245.4376151606978 247.076818430955"></path><path style="fill:#ff0000;fill-opacity:1;" d="M249.73640132928702 255.05490947939032L253.22844063198636 255.02499936492515L250.91981162585168 253.88156459284008"></path><path style="fill:#ff0000;fill-opacity:1;" d="M190.53172982702233 167.502567693709L192.2859750525961 168.0505450818652L193.97123991620697 167.36771821284353"></path><path style="fill:#ff0000;fill-opacity:1;" d="M256.156162131406 253.18558200868986L254.72083235015117 252.77435491742443L253.22844063198636 255.02499936492515"></path><path style="fill:#ff0000;fill-opacity:1;" d="M249.73640132928702 255.05490947939032L250.91981162585168 253.88156459284008L247.30006025342183 253.10448652221882"></path><path style="fill:#ff0000;fill-opacity:1;" d="M256.49237020999504 246.86850597492085L255.2905635137009 244.19579377967847L253.72995396242018 245.29153151734567"></path><path style="fill:#ff0000;fill-opacity:1;" d="M196.93474098375498 165.5488568747541L193.97123991620697 167.36771821284353L196.02087285215933 166.91147711796665"></path><path style="fill:#ff0000;fill-opacity:1;" d="M198.3734435977723 163.80397940680209L198.44232889673566 159.90196527403347L197.80770094011663 162.29399637170033"></path><path style="fill:#ff0000;fill-opacity:1;" d="M250.24183227025964 244.82989150616413L247.87125831541667 244.10581658382378L247.5883863341871 247.08682189883285"></path><path style="fill:#ff0000;fill-opacity:1;" d="M190.53172982702233 167.502567693709L187.92752823461328 165.31259593766433L188.58378863554418 166.79273461959372"></path><path style="fill:#ff0000;fill-opacity:1;" d="M186.65303310089226 162.04579798514663L186.360610190113 159.70479532867208L186.3184517632963 163.60960501361285"></path><path style="fill:#ff0000;fill-opacity:1;" d="M256.156162131406 253.18558200868986L257.20616551485875 250.21651469969788L254.72083235015117 252.77435491742443"></path><path style="fill:#ff0000;fill-opacity:1;" d="M250.24183227025964 244.82989150616413L253.72995396242018 245.29153151734567L251.6392373559239 243.00292693116893"></path><path style="fill:#6fa8fa;fill-opacity:0.5;" d="M230.21039999482127 264.0524882408301L234.46672965496924 268.2178109691001L272.4223860327122 239.86513576378943L268.806094151036 236.54784298378755"></path><path style="fill:none;stroke:#ff0000;stroke-width:1;" d="M251.33833037918973 248.9959840648591L255.23940970184802 252.7007284912864"></path><path style="fill:#a3f7ff;fill-opacity:0.5;" d="M234.7217884302719 261.9342783052672L230.21039999482127 264.0524882408301L268.806094151036 236.54784298378755L272.749089609382 234.63537368375944"></path><path style="fill:none;stroke:#ff0000;stroke-width:1;" d="M254.66417662113975 247.61810712647613L251.33833037918973 248.9959840648591"></path><path style="fill:none;stroke:#ff0000;stroke-width:1;" d="M256.4554026937698 246.33222808178735L251.33833037918973 248.9959840648591"></path><path style="fill:#ff0000;fill-opacity:1;" d="M196.93474098375498 165.5488568747541L198.3734435977723 163.80397940680209L197.80770094011663 162.29399637170033"></path><path style="fill:#ff0000;fill-opacity:1;" d="M246.07070620490177 249.9116682403021L247.30006025342183 253.10448652221882L248.7541667523795 250.8375496953123"></path><path style="fill:#ff0000;fill-opacity:1;" d="M197.04737829767967 158.8650497438731L198.44232889673566 159.90196527403347L196.187867756862 156.6944010131765"></path><path style="fill:#ff0000;fill-opacity:1;" d="M253.22844063198636 255.02499936492515L254.72083235015117 252.77435491742443L250.91981162585168 253.88156459284008"></path><path style="fill:#ff0000;fill-opacity:1;" d="M186.65303310089226 162.04579798514663L186.3184517632963 163.60960501361285L187.92752823461328 165.31259593766433"></path><path style="fill:#ff0000;fill-opacity:1;" d="M186.360610190113 159.70479532867208L188.00217526987453 158.9449823671122L188.70753824963165 156.57113512916558"></path><path style="fill:#ff0000;fill-opacity:1;" d="M256.49237020999504 246.86850597492085L254.91634563000989 249.03956251872L257.20616551485875 250.21651469969788"></path><path style="fill:#ff0000;fill-opacity:1;" d="M246.07070620490177 249.9116682403021L248.7541667523795 250.8375496953123L247.5883863341871 247.08682189883285"></path><path style="fill:#ff0000;fill-opacity:1;" d="M247.30006025342183 253.10448652221882L250.91981162585168 253.88156459284008L248.7541667523795 250.8375496953123"></path><path style="fill:#ff0000;fill-opacity:1;" d="M190.67477333945445 156.68377733275543L192.46567584584625 155.4186933037367L188.70753824963165 156.57113512916558"></path><path style="fill:#ff0000;fill-opacity:1;" d="M197.04737829767967 158.8650497438731L197.80770094011663 162.29399637170033L198.44232889673566 159.90196527403347"></path><path style="fill:#ff0000;fill-opacity:1;" d="M192.46567584584625 155.4186933037367L194.1275931163586 157.0683671205932L196.187867756862 156.6944010131765"></path><path style="fill:#ff0000;fill-opacity:1;" d="M256.49237020999504 246.86850597492085L253.72995396242018 245.29153151734567L254.91634563000989 249.03956251872"></path><path style="fill:#ff0000;fill-opacity:1;" d="M257.20616551485875 250.21651469969788L254.91634563000989 249.03956251872L254.72083235015117 252.77435491742443"></path><path style="fill:#ff0000;fill-opacity:1;" d="M186.65303310089226 162.04579798514663L188.00217526987453 158.9449823671122L186.360610190113 159.70479532867208"></path><path style="fill:#ff0000;fill-opacity:1;" d="M250.24183227025964 244.82989150616413L247.5883863341871 247.08682189883285L251.2226654640144 247.8372327483349"></path><path style="fill:#6fa8fa;fill-opacity:0.5;" d="M234.46672965496924 268.2178109691001L238.32738282006653 272.0133644423305L275.69753405584123 242.88425768650671L272.4223860327122 239.86513576378943"></path><path style="fill:none;stroke:#ff0000;stroke-width:1;" d="M255.23940970184802 252.7007284912864L258.7753231198723 256.07470173337276"></path><path style="fill:#ff0000;fill-opacity:1;" d="M250.24183227025964 244.82989150616413L251.2226654640144 247.8372327483349L253.72995396242018 245.29153151734567"></path><path style="fill:#ff0000;fill-opacity:1;" d="M190.53172982702233 167.502567693709L193.97123991620697 167.36771821284353L191.27502858765843 165.66294279117017"></path><path style="fill:#ff0000;fill-opacity:1;" d="M196.93474098375498 165.5488568747541L195.06605713574825 164.50539661970873L193.97123991620697 167.36771821284353"></path><path style="fill:#ff0000;fill-opacity:1;" d="M190.53172982702233 167.502567693709L191.27502858765843 165.66294279117017L187.92752823461328 165.31259593766433"></path><path style="fill:#ff0000;fill-opacity:1;" d="M197.04737829767967 158.8650497438731L196.187867756862 156.6944010131765L194.1275931163586 157.0683671205932"></path><path style="fill:#ff0000;fill-opacity:1;" d="M248.7541667523795 250.8375496953123L251.2226654640144 247.8372327483349L247.5883863341871 247.08682189883285"></path><path style="fill:#ff0000;fill-opacity:1;" d="M252.2439364522787 251.21249532256036L250.91981162585168 253.88156459284008L254.72083235015117 252.77435491742443"></path><path style="fill:#ff0000;fill-opacity:1;" d="M190.67477333945445 156.68377733275543L188.70753824963165 156.57113512916558L188.00217526987453 158.9449823671122"></path><path style="fill:#ff0000;fill-opacity:1;" d="M251.2226654640144 247.8372327483349L254.91634563000989 249.03956251872L253.72995396242018 245.29153151734567"></path><path style="fill:#ff0000;fill-opacity:1;" d="M252.2439364522787 251.21249532256036L248.7541667523795 250.8375496953123L250.91981162585168 253.88156459284008"></path><path style="fill:#ff0000;fill-opacity:1;" d="M196.93474098375498 165.5488568747541L197.80770094011663 162.29399637170033L195.06605713574825 164.50539661970873"></path><path style="fill:#ff0000;fill-opacity:1;" d="M190.67477333945445 156.68377733275543L194.1275931163586 157.0683671205932L192.46567584584625 155.4186933037367"></path><path style="fill:#ff0000;fill-opacity:1;" d="M252.2439364522787 251.21249532256036L254.72083235015117 252.77435491742443L254.91634563000989 249.03956251872"></path><path style="fill:#ff0000;fill-opacity:1;" d="M186.65303310089226 162.04579798514663L187.92752823461328 165.31259593766433L188.98249875564275 162.4320985528555"></path><path style="fill:#ff0000;fill-opacity:1;" d="M252.2439364522787 251.21249532256036L251.2226654640144 247.8372327483349L248.7541667523795 250.8375496953123"></path><path style="fill:#ff0000;fill-opacity:1;" d="M193.97123991620697 167.36771821284353L195.06605713574825 164.50539661970873L191.27502858765843 165.66294279117017"></path><path style="fill:#ff0000;fill-opacity:1;" d="M252.2439364522787 251.21249532256036L254.91634563000989 249.03956251872L251.2226654640144 247.8372327483349"></path><path style="fill:#6fa8fa;fill-opacity:0.5;" d="M238.32738282006653 272.0133644423305L241.80500783058838 275.468904466441L278.64335779466546 245.63072365237L275.69753405584123 242.88425768650671"></path><path style="fill:none;stroke:#ff0000;stroke-width:1;" d="M258.7753231198723 256.07470173337276L261.95816810429886 259.145327519908"></path><path style="fill:#a2f7ff;fill-opacity:0.5;" d="M238.84504255373497 259.9816634746522L234.7217884302719 261.9342783052672L272.749089609382 234.63537368375944L276.3432373223016 232.87843948419172"></path><path style="fill:none;stroke:#ff0000;stroke-width:1;" d="M257.7270821690253 246.3339625053523L254.66417662113975 247.61810712647613"></path><path style="fill:none;stroke:#ff0000;stroke-width:1;" d="M261.08260404914336 243.9086334546331L256.4554026937698 246.33222808178735"></path><path style="fill:#ff0000;fill-opacity:1;" d="M197.04737829767967 158.8650497438731L195.12843336925073 160.55229490825303L197.80770094011663 162.29399637170033"></path><path style="fill:#ff0000;fill-opacity:1;" d="M186.65303310089226 162.04579798514663L188.98249875564275 162.4320985528555L188.00217526987453 158.9449823671122"></path><path style="fill:#ff0000;fill-opacity:1;" d="M187.92752823461328 165.31259593766433L191.27502858765843 165.66294279117017L188.98249875564275 162.4320985528555"></path><path style="fill:#ff0000;fill-opacity:1;" d="M197.04737829767967 158.8650497438731L194.1275931163586 157.0683671205932L195.12843336925073 160.55229490825303"></path><path style="fill:#ff0000;fill-opacity:1;" d="M197.80770094011663 162.29399637170033L195.12843336925073 160.55229490825303L195.06605713574825 164.50539661970873"></path><path style="fill:#ff0000;fill-opacity:1;" d="M190.67477333945445 156.68377733275543L188.00217526987453 158.9449823671122L191.3622362926043 159.26524269493999"></path><path style="fill:#ff0000;fill-opacity:1;" d="M190.67477333945445 156.68377733275543L191.3622362926043 159.26524269493999L194.1275931163586 157.0683671205932"></path><path style="fill:#6fa7f9;fill-opacity:0.5;" d="M241.80500783058838 275.468904466441L244.9135668505826 278.61563448941547L281.27260936253595 248.13101566110643L278.64335779466546 245.63072365237"></path><path style="fill:none;stroke:#ff0000;stroke-width:1;" d="M261.95816810429886 259.145327519908L264.80115675070823 261.9412240640105"></path><path style="fill:#ff0000;fill-opacity:1;" d="M188.98249875564275 162.4320985528555L191.3622362926043 159.26524269493999L188.00217526987453 158.9449823671122"></path><path style="fill:#ff0000;fill-opacity:1;" d="M192.3608781536395 162.61690807186565L191.27502858765843 165.66294279117017L195.06605713574825 164.50539661970873"></path><path style="fill:#ff0000;fill-opacity:1;" d="M191.3622362926043 159.26524269493999L195.12843336925073 160.55229490825303L194.1275931163586 157.0683671205932"></path><path style="fill:#ff0000;fill-opacity:1;" d="M192.3608781536395 162.61690807186565L188.98249875564275 162.4320985528555L191.27502858765843 165.66294279117017"></path><path style="fill:#ff0000;fill-opacity:1;" d="M192.3608781536395 162.61690807186565L195.06605713574825 164.50539661970873L195.12843336925073 160.55229490825303"></path><path style="fill:#ff0000;fill-opacity:1;" d="M192.3608781536395 162.61690807186565L191.3622362926043 159.26524269493999L188.98249875564275 162.4320985528555"></path><path style="fill:#ff0000;fill-opacity:1;" d="M192.3608781536395 162.61690807186565L195.12843336925073 160.55229490825303L191.3622362926043 159.26524269493999"></path><path style="fill:#6ea6f8;fill-opacity:0.5;" d="M244.9135668505826 278.61563448941547L247.6682552492296 281.4860624422756L283.59891159751515 250.41248152225714L281.27260936253595 248.13101566110643"></path><path style="fill:none;stroke:#ff0000;stroke-width:1;" d="M264.80115675070823 261.9412240640105L267.3185445442654 264.4920824661707"></path><path style="fill:#9ff0ff;fill-opacity:0.5;" d="M259.5633960518201 315.82375138522485L259.5633960518201 315.82375138522485L293.29512739890777 278.48914289089566L293.29512739890777 278.48914289089566"></path><path style="fill:none;stroke:#ff0000;stroke-width:1;" d="M277.97854831234775 295.44168166766735L277.97854831234775 295.44168166766735"></path><path style="fill:#a2f7ff;fill-opacity:0.5;" d="M242.5871773749802 258.1745602822373L238.84504255373497 259.9816634746522L276.3432373223016 232.87843948419172L279.5975822960324 231.2589323376572"></path><path style="fill:none;stroke:#ff0000;stroke-width:1;" d="M260.52662081429355 245.12819166845486L257.7270821690253 246.3339625053523"></path><path style="fill:none;stroke:#ff0000;stroke-width:1;" d="M265.2417447490513 241.6991418698579L261.08260404914336 243.9086334546331"></path><path style="fill:#83c8ff;fill-opacity:0.5;" d="M259.73629342162775 312.7409481859597L259.5633960518201 315.82375138522485L293.29512739890777 278.48914289089566L293.4890591603365 275.91278221874"></path><path style="fill:none;stroke:#ff0000;stroke-width:1;" d="M278.16586568736795 292.632156172831L277.97854831234775 295.44168166766735"></path><path style="fill:#6da5f6;fill-opacity:0.5;" d="M247.6682552492296 281.4860624422756L250.08541543916775 284.1138545759245L285.63669354531714 252.50323297597294L283.59891159751515 250.41248152225714"></path><path style="fill:none;stroke:#ff0000;stroke-width:1;" d="M267.3185445442654 264.4920824661707L269.5255551384602 266.8285435373254"></path><path style="fill:#82c8ff;fill-opacity:0.5;" d="M259.86870653702397 309.9324189482608L259.73629342162775 312.7409481859597L293.4890591603365 275.91278221874L293.6440982345029 273.56830915150886"></path><path style="fill:none;stroke:#ff0000;stroke-width:1;" d="M278.3133088077961 290.0741283875079L278.16586568736795 292.632156172831"></path><path style="fill:#6ca3f3;fill-opacity:0.5;" d="M250.08541543916775 284.1138545759245L252.18244628501355 286.5336879834831L287.4011239267134 254.4320441961798L285.63669354531714 252.50323297597294"></path><path style="fill:none;stroke:#ff0000;stroke-width:1;" d="M269.5255551384602 266.8285435373254L271.438302044754 268.9820743565426"></path><path style="fill:#82c7ff;fill-opacity:0.5;" d="M259.9378568252867 307.3618221183729L259.86870653702397 309.9324189482608L293.6440982345029 273.56830915150886L293.7413115693544 271.4259911844102"></path><path style="fill:none;stroke:#ff0000;stroke-width:1;" d="M278.4002335415802 287.7348090411877L278.3133088077961 290.0741283875079"></path><path style="fill:#6aa0ef;fill-opacity:0.5;" d="M252.18244628501355 286.5336879834831L253.9777092096709 288.78110345068325L288.90804327110123 256.2282516062902L287.4011239267134 254.4320441961798"></path><path style="fill:none;stroke:#ff0000;stroke-width:1;" d="M271.438302044754 268.9820743565426L273.07370813176897 270.984845830057"></path><path style="fill:#80c5ff;fill-opacity:0.5;" d="M259.92090222158583 304.9923918547221L259.9378568252867 307.3618221183729L293.7413115693544 271.4259911844102L293.7617271902315 269.45580588939777"></path><path style="fill:none;stroke:#ff0000;stroke-width:1;" d="M278.4059469248427 285.5810630594347L278.4002335415802 287.7348090411877"></path><path style="fill:#a1f6ff;fill-opacity:0.5;" d="M245.9579457522841 256.4912745931188L242.5871773749802 258.1745602822373L279.5975822960324 231.2589323376572L282.52320910351807 229.7575384951111"></path><path style="fill:none;stroke:#ff0000;stroke-width:1;" d="M263.0650197623359 243.9838847898295L260.52662081429355 245.12819166845486"></path><path style="fill:none;stroke:#ff0000;stroke-width:1;" d="M268.95576343188554 239.67702160194457L265.2417447490513 241.6991418698579"></path><path style="fill:#699fef;fill-opacity:0.5;" d="M253.9777092096709 288.78110345068325L255.4904321207458 290.89236020513243L290.1738953831858 257.9216558849603L288.90804327110123 256.2282516062902"></path><path style="fill:none;stroke:#ff0000;stroke-width:1;" d="M273.07370813176897 270.984845830057L274.4494238200971 272.8696124536169"></path><path style="fill:#7fc2ff;fill-opacity:0.5;" d="M259.7949989517173 302.78699397978437L259.92090222158583 304.9923918547221L293.7617271902315 269.45580588939777L293.68637667658226 267.62747775949776"></path><path style="fill:none;stroke:#ff0000;stroke-width:1;" d="M278.30975832674477 283.5794542968111L278.4059469248427 285.5810630594347"></path><path style="fill:#6ba3f6;fill-opacity:0.5;" d="M255.4904321207458 290.89236020513243L256.7406122559092 292.9042940418059L291.21565878649324 259.5424269775438L290.1738953831858 257.9216558849603"></path><path style="fill:none;stroke:#ff0000;stroke-width:1;" d="M274.4494238200971 272.8696124536169L275.58374483334705 274.6695954007161"></path><path style="fill:#7cbeff;fill-opacity:0.5;" d="M259.53736935425053 300.70819265709935L259.7949989517173 302.78699397978437L293.68637667658226 267.62747775949776L293.4963416579077 265.9105219959059"></path><path style="fill:none;stroke:#ff0000;stroke-width:1;" d="M278.09103562661585 281.6962990482361L278.30975832674477 283.5794542968111"></path><path style="fill:#78b8ff;fill-opacity:0.5;" d="M259.1253754305781 298.71832768358354L259.53736935425053 300.70819265709935L293.4963416579077 265.9105219959059L293.17280415223576 264.27429518217815"></path><path style="fill:none;stroke:#ff0000;stroke-width:1;" d="M277.72926616808286 279.8977282646442L278.09103562661585 281.6962990482361"></path><path style="fill:#6ea8fd;fill-opacity:0.5;" d="M256.7406122559092 292.9042940418059L257.7489190060398 294.8541801902997L292.0507787566721 261.12101285959574L291.21565878649324 259.5424269775438"></path><path style="fill:none;stroke:#ff0000;stroke-width:1;" d="M275.58374483334705 274.6695954007161L276.4955303290328 276.4183699677787"></path><path style="fill:#73b0ff;fill-opacity:0.5;" d="M258.5365977203448 296.77960216274937L259.1253754305781 298.71832768358354L293.17280415223576 264.27429518217815L292.69710052029285 262.6880527237362"></path><path style="fill:none;stroke:#ff0000;stroke-width:1;" d="M277.2041221858143 278.14975830636706L277.72926616808286 279.8977282646442"></path><path style="fill:#70acff;fill-opacity:0.5;" d="M257.7489190060398 294.8541801902997L258.5365977203448 296.77960216274937L292.69710052029285 262.6880527237362L292.0507787566721 261.12101285959574"></path><path style="fill:none;stroke:#ff0000;stroke-width:1;" d="M276.4955303290328 276.4183699677787L277.2041221858143 278.14975830636706"></path><path style="fill:#a0f4ff;fill-opacity:0.5;" d="M248.96965883811495 254.90867692187385L245.9579457522841 256.4912745931188L282.52320910351807 229.7575384951111L285.13308699728816 228.3538752428099"></path><path style="fill:none;stroke:#ff0000;stroke-width:1;" d="M265.3470732115759 242.88274318603166L263.0650197623359 243.9838847898295"></path><path style="fill:none;stroke:#ff0000;stroke-width:1;" d="M272.2485957389998 237.81495588465415L268.95576343188554 239.67702160194457"></path><path style="fill:#9ef1ff;fill-opacity:0.5;" d="M251.63698451422457 253.40237562011868L248.96965883811495 254.90867692187385L285.13308699728816 228.3538752428099L287.4419045132525 227.02662379578254"></path><path style="fill:none;stroke:#ff0000;stroke-width:1;" d="M267.3800144288155 241.80524734831627L265.3470732115759 242.88274318603166"></path><path style="fill:none;stroke:#ff0000;stroke-width:1;" d="M275.1450488092204 236.08512230040222L272.2485957389998 237.81495588465415"></path><path style="fill:#9ceeff;fill-opacity:0.5;" d="M253.97673036415407 251.9468828457474L251.63698451422457 253.40237562011868L287.4419045132525 227.02662379578254L289.4658978681727 225.75365514597217"></path><path style="fill:none;stroke:#ff0000;stroke-width:1;" d="M269.1733530895475 240.73082376888303L267.3800144288155 241.80524734831627"></path><path style="fill:none;stroke:#ff0000;stroke-width:1;" d="M277.6706828316443 234.4592623762521L275.1450488092204 236.08512230040222"></path><path style="fill:#98e8ff;fill-opacity:0.5;" d="M256.0076176867303 250.51576863317675L253.97673036415407 251.9468828457474L289.4658978681727 225.75365514597217L291.22267729517654 224.5121459643204"></path><path style="fill:none;stroke:#ff0000;stroke-width:1;" d="M270.7386855033363 239.63800402702284L269.1733530895475 240.73082376888303"></path><path style="fill:none;stroke:#ff0000;stroke-width:1;" d="M279.85170072679864 232.90874069817067L277.6706828316443 234.4592623762521"></path><path style="fill:#92e0ff;fill-opacity:0.5;" d="M257.75005280484794 249.08179887438658L256.0076176867303 250.51576863317675L291.22267729517654 224.5121459643204L292.73105520544266 223.27868199143384"></path><path style="fill:none;stroke:#ff0000;stroke-width:1;" d="M272.089485790702 238.50457009368793L270.7386855033363 239.63800402702284"></path><path style="fill:none;stroke:#ff0000;stroke-width:1;" d="M281.7148468696504 231.40459296563088L279.85170072679864 232.90874069817067"></path><path style="fill:#92e0ff;fill-opacity:0.5;" d="M259.22590150711716 247.6170535561363L257.75005280484794 249.08179887438658L292.73105520544266 223.27868199143384L294.0108797327517 222.02934670070283"></path><path style="fill:none;stroke:#ff0000;stroke-width:1;" d="M273.2408861397706 237.3076804687768L272.089485790702 238.50457009368793"></path><path style="fill:none;stroke:#ff0000;stroke-width:1;" d="M283.2873156204476 229.9175625038357L281.7148468696504 231.40459296563088"></path><path style="fill:#91deff;fill-opacity:0.5;" d="M260.45827191764107 246.09302214274823L259.22590150711716 247.6170535561363L294.0108797327517 222.02934670070283L295.08287683444684 220.73979336171183"></path><path style="fill:none;stroke:#ff0000;stroke-width:1;" d="M274.2094539932366 236.02397251720166L273.2408861397706 237.3076804687768"></path><path style="fill:none;stroke:#ff0000;stroke-width:1;" d="M284.5966702940634 228.4181248286653L283.2873156204476 229.9175625038357"></path><path style="fill:#8fdbff;fill-opacity:0.5;" d="M261.471310464488 244.48067351236816L260.45827191764107 246.09302214274823L295.08287683444684 220.73979336171183L295.96850371048214 219.3852989532372"></path><path style="fill:none;stroke:#ff0000;stroke-width:1;" d="M275.0129734615998 234.62963714999668L274.2094539932366 236.02397251720166"></path><path style="fill:none;stroke:#ff0000;stroke-width:1;" d="M285.67077307795785 226.87649991818068L284.5966702940634 228.4181248286653"></path><path style="fill:#8cd6ff;fill-opacity:0.5;" d="M262.29001495235997 242.7504983176567L261.471310464488 244.48067351236816L295.96850371048214 219.3852989532372L296.6898158832144 217.9407986590944"></path><path style="fill:none;stroke:#ff0000;stroke-width:1;" d="M275.6702375004128 233.10046274189364L275.0129734615998 234.62963714999668"></path><path style="fill:none;stroke:#ff0000;stroke-width:1;" d="M286.5377263051774 225.26265188272762L285.67077307795785 226.87649991818068"></path><path style="fill:#89d2ff;fill-opacity:0.5;" d="M262.94006807831073 240.87252202398616L262.29001495235997 242.7504983176567L296.6898158832144 217.9407986590944L297.2693498737393 216.3808999140497"></path><path style="fill:none;stroke:#ff0000;stroke-width:1;" d="M276.20085650420543 231.41184583092692L275.6702375004128 233.10046274189364"></path><path style="fill:none;stroke:#ff0000;stroke-width:1;" d="M287.22582540362134 223.54627574217974L286.5377263051774 225.26265188272762"></path><path style="fill:#87d0ff;fill-opacity:0.5;" d="M263.44769409530244 238.81628715850644L262.94006807831073 240.87252202398616L297.2693498737393 216.3808999140497L297.73002303255873 214.67987514075324"></path><path style="fill:none;stroke:#ff0000;stroke-width:1;" d="M276.62508803233635 229.53876666196723L276.20085650420543 231.41184583092692"></path><path style="fill:none;stroke:#ff0000;stroke-width:1;" d="M287.76352377742046 221.696771012586L287.22582540362134 223.54627574217974"></path><path style="fill:#86ceff;fill-opacity:0.5;" d="M263.83954075569005 236.55080346505446L263.44769409530244 238.81628715850644L297.73002303255873 214.67987514075324L298.0950517469864 212.81163242406356"></path><path style="fill:none;stroke:#ff0000;stroke-width:1;" d="M276.9636914598697 227.45572797739288L276.62508803233635 229.53876666196723"></path><path style="fill:none;stroke:#ff0000;stroke-width:1;" d="M288.1794098316987 219.68320177440958L287.76352377742046 221.696771012586"></path><path style="fill:#84cbff;fill-opacity:0.5;" d="M264.14258817869876 234.04446468917791L263.83954075569005 236.55080346505446L298.0950517469864 212.81163242406356L298.38788896601636 210.74966339970905"></path><path style="fill:none;stroke:#ff0000;stroke-width:1;" d="M277.23781049762 225.13665559574275L276.9636914598697 227.45572797739288"></path><path style="fill:none;stroke:#ff0000;stroke-width:1;" d="M288.5021963290734 217.47424283957295L288.1794098316987 219.68320177440958"></path><path style="fill:#83caff;fill-opacity:0.5;" d="M264.38408590072686 231.2649306028453L264.14258817869876 234.04446468917791L298.38788896601636 210.74966339970905L298.6321817638736 208.466967584491"></path><path style="fill:none;stroke:#ff0000;stroke-width:1;" d="M277.4688857966451 222.55475923093232L277.23781049762 225.13665559574275"></path><path style="fill:none;stroke:#ff0000;stroke-width:1;" d="M288.7607222657181 215.0381115533532L288.5021963290734 217.47424283957295"></path><path style="fill:#83c9ff;fill-opacity:0.5;" d="M264.59151909865557 228.1789726085386L264.38408590072686 231.2649306028453L298.6321817638736 208.466967584491L298.8517495126007 205.93595224004258"></path><path style="fill:none;stroke:#ff0000;stroke-width:1;" d="M277.678599279809 219.6823516717731L277.4688857966451 222.55475923093232"></path><path style="fill:none;stroke:#ff0000;stroke-width:1;" d="M288.9839674774319 212.34248465819L288.7607222657181 215.0381115533532"></path><path style="fill:#83c9ff;fill-opacity:0.5;" d="M264.79260483481977 224.75228082495798L264.59151909865557 228.1789726085386L298.8517495126007 205.93595224004258L299.0705831567059 203.12830663596688"></path><path style="fill:none;stroke:#ff0000;stroke-width:1;" d="M277.88885145328476 216.49062384533582L277.678599279809 219.6823516717731"></path><path style="fill:none;stroke:#ff0000;stroke-width:1;" d="M289.20108023284024 209.35439950759869L288.9839674774319 212.34248465819"></path><path style="fill:#83c8ff;fill-opacity:0.5;" d="M270.6504156283123 122.73312929260253L264.79260483481977 224.75228082495798L299.0705831567059 203.12830663596688L305.4011060005233 120.52469655777416"></path><path style="fill:none;stroke:#ff0000;stroke-width:1;" d="M284.0211901543706 121.88340642847868L277.88885145328476 216.49062384533582"></path><path style="fill:none;stroke:#ff0000;stroke-width:1;" d="M295.4767548884245 121.15539659950387L289.20108023284024 209.35439950759869"></path><path style="display: none;" d="M294.42059175020995 118.9046530811621L289.4094937818403 207.17093735814723"></path></g></svg>