<?xml version="1.0" encoding="UTF-8" standalone="no"?><svg width="400" height="400" id="seen-canvas" xmlns="http://www.w3.org/2000/svg"><g><path style="fill:#4b6cff;fill-opacity:0.4;" d="M102.27354228205621 267.275850750221L99.87171100551926 133.12947231520565L161.73371567885036 141.64146035524405L163.06923368822063 252.8005076230963"></path><path style="fill:none;stroke:#000000;stroke-width:1;" d="M122.98712463264435 262.34398461001103L120.97930938977343 136.0338014902697"></path><text transform="matrix(0.9999999999999993 0 0 1 123.13285006250346 275.5114644346916)" style="fill:#000000;font:10px Roboto;text-anchor:middle;">A</text><text transform="matrix(1 0 0 1 186.8020177698464 130.36011806042285)" style="fill:#000000;font:10px Roboto;text-anchor:middle;">C</text><text transform="matrix(1 0 0 1 120.82974115422394 130.62457358036386)" style="fill:#000000;font:10px Roboto;text-anchor:middle;">A</text><path style="fill:#4767ff;fill-opacity:0.4;" d="M145.21703419307903 210.55644780710736L145.0814093637403 208.61478616536945L202.525371216122 203.82214091380402L202.63646164347725 205.40785207646545"></path><path style="fill:none;stroke:#000000;stroke-width:1;" d="M164.9785856066419 208.78449981395428L164.85138801596327 206.96534397413245"></path><path style="fill:none;stroke:#000000;stroke-width:1;" d="M187.74960901885825 206.7427031759826L187.63214359135694 205.0647076580641"></path><path style="fill:#496aff;fill-opacity:0.4;" d="M145.0814093637403 208.61478616536945L144.99623716389266 206.48405101370093L202.46075376176037 202.08160693156603L202.525371216122 203.82214091380402"></path><path style="fill:none;stroke:#000000;stroke-width:1;" d="M164.85138801596327 206.96534397413245L164.7735403579058 204.96888171337653"></path><path style="fill:none;stroke:#000000;stroke-width:1;" d="M187.63214359135694 205.0647076580641L187.562410050789 203.22299171972958"></path><path style="fill:#4563ff;fill-opacity:0.4;" d="M145.42123347155845 212.33761619961498L145.21703419307903 210.55644780710736L202.63646164347725 205.40785207646545L202.8101632848347 206.86185545038606"></path><path style="fill:none;stroke:#000000;stroke-width:1;" d="M165.1726401073487 210.4530371083126L164.9785856066419 208.78449981395428"></path><path style="fill:none;stroke:#000000;stroke-width:1;" d="M187.93151655676024 208.28150049378232L187.74960901885825 206.7427031759826"></path><path style="fill:#4b6bff;fill-opacity:0.4;" d="M144.99623716389266 206.48405101370093L144.94343992437146 204.1357645611693L202.4265030161098 200.16320325885297L202.46075376176037 202.08160693156603"></path><path style="fill:none;stroke:#000000;stroke-width:1;" d="M164.7735403579058 204.96888171337653L164.7275755561121 202.76851502046546"></path><path style="fill:none;stroke:#000000;stroke-width:1;" d="M187.562410050789 203.22299171972958L187.5237332461413 201.1931095182154"></path><path style="fill:#405dff;fill-opacity:0.4;" d="M145.71221322484473 213.98696010501314L145.42123347155845 212.33761619961498L202.8101632848347 206.86185545038606L203.06267584847953 208.2073245519337"></path><path style="fill:none;stroke:#000000;stroke-width:1;" d="M165.45113481412437 211.99772117340194L165.1726401073487 210.4530371083126"></path><path style="fill:none;stroke:#000000;stroke-width:1;" d="M188.19464371839734 209.70568748001125L187.93151655676024 208.28150049378232"></path><path style="fill:#4b6cff;fill-opacity:0.4;" d="M144.94343992437146 204.1357645611693L144.90495453885697 201.54158201501275L202.40652280554886 198.0439717794157L202.4265030161098 200.16320325885297"></path><path style="fill:none;stroke:#000000;stroke-width:1;" d="M164.7275755561121 202.76851502046546L164.69603948865347 200.3377626518098"></path><path style="fill:none;stroke:#000000;stroke-width:1;" d="M187.5237332461413 201.1931095182154L187.49944921614656 198.95071458210364"></path><path style="fill:#3b56ff;fill-opacity:0.4;" d="M146.10831438391892 215.53323944486286L145.71221322484473 213.98696010501314L203.06267584847953 208.2073245519337L203.41029771026948 209.46749266390316"></path><path style="fill:none;stroke:#000000;stroke-width:1;" d="M165.83177537975047 213.44539687642188L165.45113481412437 211.99772117340194"></path><path style="fill:none;stroke:#000000;stroke-width:1;" d="M188.5558759809104 211.0399192285251L188.19464371839734 209.70568748001125"></path><path style="fill:#3750ff;fill-opacity:0.4;" d="M146.6280744193811 217.00532470758023L146.10831438391892 215.53323944486286L203.41029771026948 209.46749266390316L203.8694709977652 210.66566513658583"></path><path style="fill:none;stroke:#000000;stroke-width:1;" d="M166.33244571993328 214.82300537973305L165.83177537975047 213.44539687642188"></path><path style="fill:none;stroke:#000000;stroke-width:1;" d="M189.03225611725586 212.30893201941456L188.5558759809104 211.0399192285251"></path><path style="fill:#3249ef;fill-opacity:0.4;" d="M147.2903003453356 218.43223332615113L146.6280744193811 217.00532470758023L203.8694709977652 210.66566513658583L204.45683481741884 211.82524282580957"></path><path style="fill:none;stroke:#000000;stroke-width:1;" d="M166.97127415668487 216.15761569872518L166.33244571993328 214.82300537973305"></path><path style="fill:none;stroke:#000000;stroke-width:1;" d="M189.6410424865487 213.5375698032809L189.03225611725586 212.30893201941456"></path><path style="fill:#2d43dd;fill-opacity:0.4;" d="M148.11415370118883 219.84318338757703L147.2903003453356 218.43223332615113L204.45683481741884 211.82524282580957L205.18928698667779 212.96975685934052"></path><path style="fill:none;stroke:#000000;stroke-width:1;" d="M167.7667103151027 217.47647136778943L166.97127415668487 216.15761569872518"></path><path style="fill:none;stroke:#000000;stroke-width:1;" d="M190.39977670218795 214.7508234373293L189.6410424865487 213.5375698032809"></path><text transform="matrix(1 0 0 1 210.63451486250042 277.52312602841675)" style="fill:#000000;font:10px Roboto;text-anchor:middle;">C</text><path style="fill:#4b6cff;fill-opacity:0.4;" d="M144.90495453885697 201.54158201501275L143.9019259458174 128.32288887642338L201.91811422206354 138.30963658278648L202.40652280554886 198.0439717794157"></path><path style="fill:none;stroke:#000000;stroke-width:1;" d="M164.69603948865347 200.3377626518098L163.88700709235647 131.76306599304715"></path><path style="fill:none;stroke:#000000;stroke-width:1;" d="M187.49944921614656 198.95071458210364L186.89197463839074 135.72307808107638"></path><path style="fill:#293dcd;fill-opacity:0.4;" d="M149.11924832740547 221.26766522115662L148.11415370118883 219.84318338757703L205.18928698667779 212.96975685934052L206.08405475469908 214.12291502139843"></path><path style="fill:none;stroke:#000000;stroke-width:1;" d="M168.7376134651581 218.80705266003454L167.7667103151027 217.47647136778943"></path><path style="fill:none;stroke:#000000;stroke-width:1;" d="M191.3263612389494 215.9738830191428L190.39977670218795 214.7508234373293"></path><path style="fill:#273ac3;fill-opacity:0.4;" d="M150.3257619977948 222.73553164735745L149.11924832740547 221.26766522115662L206.08405475469908 214.12291502139843L207.1587751387465 215.30866016880472"></path><path style="fill:none;stroke:#000000;stroke-width:1;" d="M169.9033532076773 220.17715499724332L168.7376134651581 218.80705266003454"></path><path style="fill:none;stroke:#000000;stroke-width:1;" d="M192.4391477074048 217.23220381189165L191.3263612389494 215.9738830191428"></path><path style="fill:#273ac3;fill-opacity:0.4;" d="M151.75456326276677 224.27710795817976L150.3257619977948 222.73553164735745L207.1587751387465 215.30866016880472L208.4315856713713 216.5512412438424"></path><path style="fill:none;stroke:#000000;stroke-width:1;" d="M171.28392364860267 221.6149844212467L169.9033532076773 220.17715499724332"></path><path style="fill:none;stroke:#000000;stroke-width:1;" d="M193.75703672045583 218.5515864361223L192.4391477074048 217.23220381189165"></path><path style="fill:#273ac3;fill-opacity:0.4;" d="M153.4273552037761 225.92332305124194L151.75456326276677 224.27710795817976L208.4315856713713 216.5512412438424L209.92122655020506 217.87529763153293"></path><path style="fill:none;stroke:#000000;stroke-width:1;" d="M172.90007249459654 223.1492712822223L171.28392364860267 221.6149844212467"></path><path style="fill:none;stroke:#000000;stroke-width:1;" d="M195.29959050747496 219.9582722223168L193.75703672045583 218.5515864361223"></path><path style="fill:#273ac3;fill-opacity:0.4;" d="M155.3668382100154 227.70586356368875L153.4273552037761 225.92332305124194L209.92122655020506 217.87529763153293L211.64715541283223 219.30595782712862"></path><path style="fill:none;stroke:#000000;stroke-width:1;" d="M174.77344684485084 224.80940364127076L172.90007249459654 223.1492712822223"></path><path style="fill:none;stroke:#000000;stroke-width:1;" d="M197.0871597029696 221.47905488070109L195.29959050747496 219.9582722223168"></path><path style="fill:#273ac3;fill-opacity:0.4;" d="M157.59689437870477 229.65735336223034L155.3668382100154 227.70586356368875L211.64715541283223 219.30595782712862L213.6296762303966 220.86895363896886"></path><path style="fill:none;stroke:#000000;stroke-width:1;" d="M176.92675785982013 226.62558229439807L174.77344684485084 224.80940364127076"></path><path style="fill:none;stroke:#000000;stroke-width:1;" d="M199.1410260570844 223.14140995767514L197.0871597029696 221.47905488070109"></path><path style="fill:#273ac3;fill-opacity:0.4;" d="M160.14279672856986 231.8115613602576L157.59689437870477 229.65735336223034L213.6296762303966 220.86895363896886L215.89008413374697 222.59075145996175"></path><path style="fill:none;stroke:#000000;stroke-width:1;" d="M179.38396697189833 228.62899981634854L176.92675785982013 226.62558229439807"></path><path style="fill:none;stroke:#000000;stroke-width:1;" d="M201.48356319513508 224.97364392133085L199.1410260570844 223.14140995767514"></path><path style="fill:#273ac3;fill-opacity:0.4;" d="M163.03144712606766 234.20364137567182L160.14279672856986 231.8115613602576L215.89008413374697 222.59075145996175L218.4508283656852 224.49870250750095"></path><path style="fill:none;stroke:#000000;stroke-width:1;" d="M182.1704968841796 230.85204661328615L179.38396697189833 228.62899981634854"></path><path style="fill:none;stroke:#000000;stroke-width:1;" d="M204.13841800605786 227.00506516420023L201.48356319513508 224.97364392133085"></path><path style="fill:#273ac3;fill-opacity:0.4;" d="M166.29164768621266 236.87040864453087L163.03144712606766 234.20364137567182L218.4508283656852 224.49870250750095L221.3356960056947 226.62121436898693"></path><path style="fill:none;stroke:#000000;stroke-width:1;" d="M185.3134713048986 233.32854768598577L182.1704968841796 230.85204661328615"></path><path style="fill:none;stroke:#000000;stroke-width:1;" d="M207.13071578209716 229.26617974556845L204.13841800605786 227.00506516420023"></path><path style="fill:#6291ff;fill-opacity:0.4;" d="M170.2024636940361 277.35047343035137L170.2024636940361 277.35047343035137L224.59778602307523 259.44581083800773L224.59778602307523 259.44581083800773"></path><path style="fill:none;stroke:#000000;stroke-width:1;" d="M189.00473650892516 271.161552466093L189.00473650892516 271.161552466093"></path><path style="fill:none;stroke:#000000;stroke-width:1;" d="M210.5641410675066 264.0650991722192L210.5641410675066 264.0650991722192"></path><path style="fill:#4b6cff;fill-opacity:0.4;" d="M170.2024636940361 277.35047343035137L170.17218827721965 274.68184111888326L224.584614382223 257.27712297885546L224.59778602307523 259.44581083800773"></path><path style="fill:none;stroke:#000000;stroke-width:1;" d="M189.00473650892516 271.161552466093L188.9809725733246 268.6655390962799"></path><path style="fill:none;stroke:#000000;stroke-width:1;" d="M210.5641410675066 264.0650991722192L210.5470640662189 261.76726657500814"></path><path style="fill:#4b6cff;fill-opacity:0.4;" d="M170.17218827721965 274.68184111888326L170.14489767014294 272.26441416067354L224.57280336176976 255.31275855714938L224.584614382223 257.27712297885546"></path><path style="fill:none;stroke:#000000;stroke-width:1;" d="M188.9809725733246 268.6655390962799L188.95957645217183 266.4045532868984"></path><path style="fill:none;stroke:#000000;stroke-width:1;" d="M210.5470640662189 261.76726657500814L210.53171965941863 259.68587584318027"></path><path style="fill:#4b6cff;fill-opacity:0.4;" d="M170.14489767014294 272.26441416067354L170.1204102668184 270.07048854393184L224.5623335769341 253.5301516660422L224.57280336176976 255.31275855714938"></path><path style="fill:none;stroke:#000000;stroke-width:1;" d="M188.95957645217183 266.4045532868984L188.94042927976145 264.35266236153967"></path><path style="fill:none;stroke:#000000;stroke-width:1;" d="M210.53171965941863 259.68587584318027L210.5180522574011 257.79703149153437"></path><path style="fill:#4b6cff;fill-opacity:0.4;" d="M170.1204102668184 270.07048854393184L170.09854363601977 268.0722797234275L224.55318538380197 251.9066832628152L224.5623335769341 253.5301516660422"></path><path style="fill:none;stroke:#000000;stroke-width:1;" d="M188.94042927976145 264.35266236153967L188.92341159958144 262.4838632146431"></path><path style="fill:none;stroke:#000000;stroke-width:1;" d="M210.5180522574011 257.79703149153437L210.5060058969172 256.0767783677751"></path><path style="fill:#273ac3;fill-opacity:0.4;" d="M169.9544114639458 239.8506587058044L166.29164768621266 236.87040864453087L221.3356960056947 226.62121436898693L224.5700196564281 228.98794671410528"></path><path style="fill:none;stroke:#000000;stroke-width:1;" d="M188.84198821707034 236.09403466955416L185.3134713048986 233.32854768598577"></path><path style="fill:none;stroke:#000000;stroke-width:1;" d="M210.48729288579403 231.78891533882611L207.13071578209716 229.26617974556845"></path><path style="fill:#4b6cff;fill-opacity:0.4;" d="M170.09854363601977 268.0722797234275L170.0791146362141 266.2419341936674L224.545338913998 250.41968881728164L224.55318538380197 251.9066832628152"></path><path style="fill:none;stroke:#000000;stroke-width:1;" d="M188.92341159958144 262.4838632146431L188.9084034459643 260.7720924383207"></path><path style="fill:none;stroke:#000000;stroke-width:1;" d="M210.5060058969172 256.0767783677751L210.4955242920288 254.50111023742224"></path><path style="fill:#4b6cff;fill-opacity:0.4;" d="M170.0791146362141 266.2419341936674L170.06193952008468 264.55153945968175L224.53877410850075 249.04646489820468L224.545338913998 250.41968881728164"></path><path style="fill:none;stroke:#000000;stroke-width:1;" d="M188.9084034459643 260.7720924383207L188.89528441938586 259.19123504566994"></path><path style="fill:none;stroke:#000000;stroke-width:1;" d="M210.4955242920288 254.50111023742224L210.48655088225902 253.0459771775714"></path><path style="fill:#4b6cff;fill-opacity:0.4;" d="M170.06193952008468 264.55153945968175L170.04683402852484 262.9731323930568L224.53347075057152 247.7642746911094L224.53877410850075 249.04646489820468"></path><path style="fill:none;stroke:#000000;stroke-width:1;" d="M188.89528441938586 259.19123504566994L188.88393375533116 257.71513178046865"></path><path style="fill:none;stroke:#000000;stroke-width:1;" d="M210.48655088225902 253.0459771775714L210.4790288779897 251.68729177162405"></path><path style="fill:#4b6cff;fill-opacity:0.4;" d="M170.04683402852484 262.9731323930568L170.0336134740046 261.4787059630384L224.52940849777562 246.55035244203808L224.53347075057152 247.7642746911094"></path><path style="fill:none;stroke:#000000;stroke-width:1;" d="M188.88393375533116 257.71513178046865L188.87423038666378 256.31758500493095"></path><path style="fill:none;stroke:#000000;stroke-width:1;" d="M210.4790288779897 251.68729177162405L210.4729013030718 250.40093409850337"></path><path style="fill:#4b6cff;fill-opacity:0.4;" d="M170.0336134740046 261.4787059630384L170.02209281322934 260.0402143343221L224.52656691307635 245.38190682276596L224.52940849777562 246.55035244203808"></path><path style="fill:none;stroke:#000000;stroke-width:1;" d="M188.87423038666378 256.31758500493095L188.86605299944503 254.97236315867258"></path><path style="fill:none;stroke:#000000;stroke-width:1;" d="M210.4729013030718 250.40093409850337L210.46811103461823 249.16275551101455"></path><path style="fill:#4b6cff;fill-opacity:0.4;" d="M170.02209281322934 260.0402143343221L170.0120867090258 258.62957632454777L224.5249254949872 244.2361232137389L224.52656691307635 245.38190682276596"></path><path style="fill:none;stroke:#000000;stroke-width:1;" d="M188.86605299944503 254.97236315867258L188.8592800821606 253.65320378317818"></path><path style="fill:none;stroke:#000000;stroke-width:1;" d="M210.46811103461823 249.16275551101455L210.46460083995515 247.94858119890387"></path><path style="fill:#4b6cff;fill-opacity:0.4;" d="M170.0120867090258 258.62957632454777L170.00340958140322 257.21867721551024L224.52446370677285 243.09016490153306L224.5249254949872 244.2361232137389"></path><path style="fill:none;stroke:#000000;stroke-width:1;" d="M188.8592800821606 253.65320378317818L188.8537899683225 252.3338151068773"></path><path style="fill:none;stroke:#000000;stroke-width:1;" d="M210.46460083995515 247.94858119890387L210.46231341071567 246.73421153280307"></path><path style="fill:#4b6cff;fill-opacity:0.4;" d="M170.00340958140322 257.21867721551024L169.99587564774856 255.77936891269383L224.52516100469217 241.92117318795442L224.52446370677285 243.09016490153306"></path><path style="fill:none;stroke:#000000;stroke-width:1;" d="M188.8537899683225 252.3338151068773L188.84946087241966 250.9878761864229"></path><path style="fill:none;stroke:#000000;stroke-width:1;" d="M210.46231341071567 246.73421153280307L210.461191394062 245.49542218562777"></path><path style="fill:#4c6cff;fill-opacity:0.4;" d="M169.99587564774856 255.77936891269383L169.98929895212157 254.28346844792463L224.52699686528183 240.7062664079952L224.52516100469217 241.92117318795442"></path><path style="fill:none;stroke:#000000;stroke-width:1;" d="M188.84946087241966 250.9878761864229L188.84617091919898 249.58903559992004"></path><path style="fill:none;stroke:#000000;stroke-width:1;" d="M210.461191394062 245.49542218562777L210.46117742103058 244.20796302811755"></path><path style="fill:#4c6dff;fill-opacity:0.4;" d="M169.98929895212157 254.28346844792463L169.98349338362095 252.7027548197126L224.52995081168126 239.42253785375138L224.52699686528183 240.7062664079952"></path><path style="fill:none;stroke:#000000;stroke-width:1;" d="M188.84617091919898 249.58903559992004L188.84379816626156 248.1109086876708"></path><path style="fill:none;stroke:#000000;stroke-width:1;" d="M210.46117742103058 244.20796302811755L210.46221413199487 242.84755579506574"></path><path style="fill:#4c6dff;fill-opacity:0.4;" d="M169.98349338362095 252.7027548197126L169.97827268379476 251.0089641652246L224.53400243900407 238.04705260106394L224.52995081168126 239.42253785375138"></path><path style="fill:none;stroke:#000000;stroke-width:1;" d="M188.84379816626156 248.1109086876708L188.84222061996277 246.52707333548653"></path><path style="fill:none;stroke:#000000;stroke-width:1;" d="M210.46221413199487 242.84755579506574L210.46424419924716 241.3898905183853"></path><path style="fill:#4c6dff;fill-opacity:0.4;" d="M169.97827268379476 251.0089641652246L169.97345044306888 249.17378325677956L224.53913143876417 236.55684323509294L224.53400243900407 238.04705260106394"></path><path style="fill:none;stroke:#000000;stroke-width:1;" d="M188.84222061996277 246.52707333548653L188.8413162446059 244.81106429476378"></path><path style="fill:none;stroke:#000000;stroke-width:1;" d="M210.46424419924716 241.3898905183853L210.46721034670117 239.81062072249338"></path><path style="fill:#4c6dff;fill-opacity:0.4;" d="M169.97345044306888 249.17378325677956L169.96884008616243 247.16884131429325L224.54531762236843 234.928904470252L224.53913143876417 236.55684323509294"></path><path style="fill:none;stroke:#000000;stroke-width:1;" d="M188.8413162446059 244.81106429476378L188.84096296491975 242.93636603232338"></path><path style="fill:none;stroke:#000000;stroke-width:1;" d="M210.46721034670117 239.81062072249338L210.47105536672154 238.085357376567"></path><path style="fill:#4c6dff;fill-opacity:0.4;" d="M169.96884008616243 247.16884131429325L169.9642548464546 244.96570012321254L224.5525409436889 233.1401866589262L224.54531762236843 234.928904470252"></path><path style="fill:none;stroke:#000000;stroke-width:1;" d="M188.84096296491975 242.93636603232338L188.84103866180783 240.87640410147515"></path><path style="fill:none;stroke:#000000;stroke-width:1;" d="M210.47105536672154 238.085357376567L210.47572213408634 236.18966159702484"></path><path style="fill:#4c6dff;fill-opacity:0.4;" d="M169.9642548464546 244.96570012321254L169.9595077292585 242.5358424451658L224.56078152073252 231.1675881821681L224.5525409436889 233.1401866589262"></path><path style="fill:none;stroke:#000000;stroke-width:1;" d="M188.84103866180783 240.87640410147515L188.84142116135465 238.6045350238818"></path><path style="fill:none;stroke:#000000;stroke-width:1;" d="M210.47572213408634 236.18966159702484L210.48115361708957 234.09903609212517"></path><path style="fill:#4c6dff;fill-opacity:0.4;" d="M169.9595077292585 242.5358424451658L169.9544114639458 239.8506587058044L224.5700196564281 228.98794671410528L224.56078152073252 231.1675881821681"></path><path style="fill:none;stroke:#000000;stroke-width:1;" d="M188.84142116135465 238.6045350238818L188.84198821707034 236.09403466955416"></path><path style="fill:none;stroke:#000000;stroke-width:1;" d="M210.48115361708957 234.09903609212517L210.48729288579403 231.78891533882611"></path><path style="fill:#78acff;fill-opacity:0.4;" d="M169.9544114639458 239.8506587058044L173.65292061467062 237.46098216218738L227.85581718933742 226.99515271833081L224.5700196564281 228.98794671410528"></path><path style="fill:none;stroke:#000000;stroke-width:1;" d="M188.84198821707034 236.09403466955416L192.41304887381304 233.83866093744265"></path><path style="fill:none;stroke:#000000;stroke-width:1;" d="M210.48729288579403 231.78891533882611L213.89242622132474 229.69129033392477"></path><path style="fill:#78acff;fill-opacity:0.4;" d="M173.65292061467062 237.46098216218738L177.02364600494607 235.26844712124176L230.84336297350205 225.1714300932594L227.85581718933742 226.99515271833081"></path><path style="fill:none;stroke:#000000;stroke-width:1;" d="M192.41304887381304 233.83866093744265L195.66497074847294 231.77118284782486"></path><path style="fill:none;stroke:#000000;stroke-width:1;" d="M213.89242622132474 229.69129033392477L216.99035622792306 227.77036693048927"></path><path style="fill:#77abff;fill-opacity:0.4;" d="M177.02364600494607 235.26844712124176L180.07385314606458 233.25365283139894L233.54114536132707 223.4998159068318L230.84336297350205 225.1714300932594"></path><path style="fill:none;stroke:#000000;stroke-width:1;" d="M195.66497074847294 231.77118284782486L198.60553139562137 229.87298850194315"></path><path style="fill:none;stroke:#000000;stroke-width:1;" d="M216.99035622792306 227.77036693048927L219.78933454247408 226.00850700726312"></path><path style="fill:#77aaff;fill-opacity:0.4;" d="M180.07385314606458 233.25365283139894L182.81265634049464 231.39577385494752L235.95903028796047 221.96236263276336L233.54114536132707 223.4998159068318"></path><path style="fill:none;stroke:#000000;stroke-width:1;" d="M198.60553139562137 229.87298850194315L201.24419656112786 228.12419979551441"></path><path style="fill:none;stroke:#000000;stroke-width:1;" d="M219.78933454247408 226.00850700726312L222.2991133567898 224.3869798568845"></path><path style="fill:#76a9ff;fill-opacity:0.4;" d="M182.81265634049464 231.39577385494752L185.25089698821884 229.67271073660785L238.10815825470496 220.54024790782123L235.95903028796047 221.96236263276336"></path><path style="fill:none;stroke:#000000;stroke-width:1;" d="M201.24419656112786 228.12419979551441L203.5920037553107 226.5038088340896"></path><path style="fill:none;stroke:#000000;stroke-width:1;" d="M222.2991133567898 224.3869798568845L224.53083661539696 222.88608237246228"></path><path style="fill:#75a7ff;fill-opacity:0.4;" d="M185.25089698821884 229.67271073660785L187.40100995243554 228.06124097628114L240.00083574519442 219.21388244776438L238.10815825470496 220.54024790782123"></path><path style="fill:none;stroke:#000000;stroke-width:1;" d="M203.5920037553107 226.5038088340896L205.66143633210953 224.98981371146306"></path><path style="fill:none;stroke:#000000;stroke-width:1;" d="M224.53083661539696 222.88608237246228L226.49692421239595 221.485257781568"></path><path style="fill:#000000;fill-opacity:1;" d="M189.03769684347023 235.56427251611314L187.2686969616559 236.92158353096073L189.69748076675816 237.69152015605127"></path><path style="fill:#000000;fill-opacity:1;" d="M189.03769684347023 235.56427251611314L187.24417150407137 234.3840574742345L187.2686969616559 236.92158353096073"></path><path style="fill:#000000;fill-opacity:1;" d="M189.03769684347023 235.56427251611314L189.69748076675816 237.69152015605127L191.17509560598143 235.62999381291613"></path><path style="fill:#000000;fill-opacity:1;" d="M189.03769684347023 235.56427251611314L189.6587506861337 233.58521407622035L187.24417150407137 234.3840574742345"></path><path style="fill:#000000;fill-opacity:1;" d="M189.03769684347023 235.56427251611314L191.17509560598143 235.62999381291613L189.6587506861337 233.58521407622035"></path><text transform="matrix(1 0 0 1 163.76713258333695 125.6023380286845)" style="fill:#000000;font:10px Roboto;text-anchor:middle;">F</text><path style="fill:#000000;fill-opacity:1;" d="M189.69748076675816 237.69152015605127L187.2686969616559 236.92158353096073L187.89074949750997 239.1523257880803"></path><path style="fill:#000000;fill-opacity:1;" d="M185.4293603115928 235.83474758943836L187.2686969616559 236.92158353096073L187.24417150407137 234.3840574742345"></path><path style="fill:#000000;fill-opacity:1;" d="M189.69748076675816 237.69152015605127L191.80981803095068 237.8573244161273L191.17509560598143 235.62999381291613"></path><path style="fill:#000000;fill-opacity:1;" d="M187.24417150407137 234.3840574742345L189.6587506861337 233.58521407622035L187.8267099651219 232.48657608754903"></path><path style="fill:#000000;fill-opacity:1;" d="M189.6587506861337 233.58521407622035L191.17509560598143 235.62999381291613L191.77179212568566 233.7368460614177"></path><path style="fill:#73a5ff;fill-opacity:0.4;" d="M187.40100995243554 228.06124097628114L189.2768813561676 226.5371669188635L241.6504232614386 217.96301415206582L240.00083574519442 219.21388244776438"></path><path style="fill:none;stroke:#000000;stroke-width:1;" d="M205.66143633210953 224.98981371146306L207.4662910258897 223.55935080079095"></path><path style="fill:none;stroke:#000000;stroke-width:1;" d="M226.49692421239595 221.485257781568L228.21095166904607 220.1632106319341"></path><path style="fill:#000000;fill-opacity:1;" d="M185.95781980184003 238.04020895900376L187.89074949750997 239.1523257880803L187.2686969616559 236.92158353096073"></path><path style="fill:#000000;fill-opacity:1;" d="M190.10656939725035 239.35550258367846L189.69748076675816 237.69152015605127L187.89074949750997 239.1523257880803"></path><path style="fill:#000000;fill-opacity:1;" d="M185.95781980184003 238.04020895900376L187.2686969616559 236.92158353096073L185.4293603115928 235.83474758943836"></path><path style="fill:#000000;fill-opacity:1;" d="M190.10656939725035 239.35550258367846L191.80981803095068 237.8573244161273L189.69748076675816 237.69152015605127"></path><path style="fill:#000000;fill-opacity:1;" d="M185.9153720775899 233.70546023700018L185.4293603115928 235.83474758943836L187.24417150407137 234.3840574742345"></path><path style="fill:#000000;fill-opacity:1;" d="M192.6313107126707 235.8340957610443L191.17509560598143 235.62999381291613L191.80981803095068 237.8573244161273"></path><path style="fill:#000000;fill-opacity:1;" d="M185.9153720775899 233.70546023700018L187.24417150407137 234.3840574742345L187.8267099651219 232.48657608754903"></path><path style="fill:#000000;fill-opacity:1;" d="M192.6313107126707 235.8340957610443L191.77179212568566 233.7368460614177L191.17509560598143 235.62999381291613"></path><path style="fill:#000000;fill-opacity:1;" d="M190.04066858861327 232.34026461392224L187.8267099651219 232.48657608754903L189.6587506861337 233.58521407622035"></path><path style="fill:#000000;fill-opacity:1;" d="M190.04066858861327 232.34026461392224L189.6587506861337 233.58521407622035L191.77179212568566 233.7368460614177"></path><path style="fill:#71a1ff;fill-opacity:0.4;" d="M189.2768813561676 226.5371669188635L190.8937011566185 225.07545740648382L243.07122209138993 216.76682659403423L241.6504232614386 217.96301415206582"></path><path style="fill:none;stroke:#000000;stroke-width:1;" d="M207.4662910258897 223.55935080079095L209.02154184680688 222.18882091967242"></path><path style="fill:none;stroke:#000000;stroke-width:1;" d="M228.21095166904607 220.1632106319341L229.68752770460137 218.89801591798647"></path><path style="fill:#000000;fill-opacity:1;" d="M185.95781980184003 238.04020895900376L186.43174038057256 239.45798525591056L187.89074949750997 239.1523257880803"></path><path style="fill:#000000;fill-opacity:1;" d="M190.10656939725035 239.35550258367846L187.89074949750997 239.1523257880803L188.88137717181078 240.23466094854922"></path><path style="fill:#000000;fill-opacity:1;" d="M185.95781980184003 238.04020895900376L185.4293603115928 235.83474758943836L184.90224975527406 237.39674626580185"></path><path style="fill:#000000;fill-opacity:1;" d="M190.10656939725035 239.35550258367846L191.31656983695297 239.43026508098106L191.80981803095068 237.8573244161273"></path><path style="fill:#000000;fill-opacity:1;" d="M185.9153720775899 233.70546023700018L184.87692676133673 234.83718884607453L185.4293603115928 235.83474758943836"></path><path style="fill:#000000;fill-opacity:1;" d="M192.6313107126707 235.8340957610443L191.80981803095068 237.8573244161273L192.80763875532273 237.35106722050617"></path><path style="fill:#000000;fill-opacity:1;" d="M185.9153720775899 233.70546023700018L187.8267099651219 232.48657608754903L186.36641324693198 232.7564650235247"></path><path style="fill:#000000;fill-opacity:1;" d="M192.6313107126707 235.8340957610443L192.78425566648633 234.79048683975162L191.77179212568566 233.7368460614177"></path><path style="fill:#000000;fill-opacity:1;" d="M190.04066858861327 232.34026461392224L188.80256781974023 231.95010309815038L187.8267099651219 232.48657608754903"></path><path style="fill:#000000;fill-opacity:1;" d="M190.04066858861327 232.34026461392224L191.77179212568566 233.7368460614177L191.2543815357493 232.72708966248624"></path><path style="fill:#000000;fill-opacity:1;" d="M187.89074949750997 239.1523257880803L186.43174038057256 239.45798525591056L188.88137717181078 240.23466094854922"></path><path style="fill:#000000;fill-opacity:1;" d="M184.87692676133673 234.83718884607453L184.90224975527406 237.39674626580185L185.4293603115928 235.83474758943836"></path><path style="fill:#6d9bff;fill-opacity:0.4;" d="M190.8937011566185 225.07545740648382L192.2678137308547 223.6503803279679L244.2783618024443 215.60403028158555L243.07122209138993 216.76682659403423"></path><path style="fill:none;stroke:#000000;stroke-width:1;" d="M209.02154184680688 222.18882091967242L210.34320311491223 220.8540069844569"></path><path style="fill:none;stroke:#000000;stroke-width:1;" d="M229.68752770460137 218.89801591798647L230.94217199189643 217.66722045125962"></path><path style="fill:#000000;fill-opacity:1;" d="M185.95781980184003 238.04020895900376L184.90224975527406 237.39674626580185L186.43174038057256 239.45798525591056"></path><path style="fill:#000000;fill-opacity:1;" d="M191.31656983695297 239.43026508098106L192.80763875532273 237.35106722050617L191.80981803095068 237.8573244161273"></path><path style="fill:#000000;fill-opacity:1;" d="M190.10656939725035 239.35550258367846L188.88137717181078 240.23466094854922L191.31656983695297 239.43026508098106"></path><path style="fill:#000000;fill-opacity:1;" d="M187.8267099651219 232.48657608754903L188.80256781974023 231.95010309815038L186.36641324693198 232.7564650235247"></path><path style="fill:#000000;fill-opacity:1;" d="M185.9153720775899 233.70546023700018L186.36641324693198 232.7564650235247L184.87692676133673 234.83718884607453"></path><path style="fill:#000000;fill-opacity:1;" d="M191.77179212568566 233.7368460614177L192.78425566648633 234.79048683975162L191.2543815357493 232.72708966248624"></path><path style="fill:#000000;fill-opacity:1;" d="M192.6313107126707 235.8340957610443L192.80763875532273 237.35106722050617L192.78425566648633 234.79048683975162"></path><path style="fill:#6996ff;fill-opacity:0.4;" d="M192.2678137308547 223.6503803279679L193.4165695182501 222.23562352876837L245.2876903044688 214.45294527566443L244.2783618024443 215.60403028158555"></path><path style="fill:none;stroke:#000000;stroke-width:1;" d="M210.34320311491223 220.8540069844569L211.4481942341399 219.53018105100003"></path><path style="fill:none;stroke:#000000;stroke-width:1;" d="M230.94217199189643 217.66722045125962L231.9911952258513 216.44793480977052"></path><path style="fill:#000000;fill-opacity:1;" d="M187.6330761967261 239.8798460080851L188.88137717181078 240.23466094854922L186.43174038057256 239.45798525591056"></path><path style="fill:#6692ff;fill-opacity:0.4;" d="M193.4165695182501 222.23562352876837L194.35818051760768 220.804401894078L246.1156681501869 213.291573959506L245.2876903044688 214.45294527566443"></path><path style="fill:none;stroke:#000000;stroke-width:1;" d="M211.4481942341399 219.53018105100003L212.35420858293992 218.1921989347623"></path><path style="fill:none;stroke:#000000;stroke-width:1;" d="M231.9911952258513 216.44793480977052L232.85158343766972 215.2169144409092"></path><path style="fill:#638dff;fill-opacity:0.4;" d="M194.35818051760768 220.804401894078L195.11158214622026 219.32954877124754L246.77926854859982 212.0976629545523L246.1156681501869 213.291573959506"></path><path style="fill:none;stroke:#000000;stroke-width:1;" d="M212.35420858293992 218.1921989347623L213.07958864190917 216.81458089909455"></path><path style="fill:none;stroke:#000000;stroke-width:1;" d="M232.85158343766972 215.2169144409092L233.54088827034414 213.95062872942248"></path><path style="fill:#5e86ff;fill-opacity:0.4;" d="M195.11158214622026 219.32954877124754L195.6963036505917 217.7835902393578L247.29588436684628 210.84875337072984L246.77926854859982 212.0976629545523"></path><path style="fill:none;stroke:#000000;stroke-width:1;" d="M213.07958864190917 216.81458089909455L213.6432092034633 215.37157718463484"></path><path style="fill:none;stroke:#000000;stroke-width:1;" d="M233.54088827034414 213.95062872942248L234.07712470217032 212.62531706771452"></path><path style="fill:#597eff;fill-opacity:0.4;" d="M195.6963036505917 217.7835902393578L196.13234892947074 216.1388010501965L247.68324319505626 209.5222187538235L247.29588436684628 210.84875337072984"></path><path style="fill:none;stroke:#000000;stroke-width:1;" d="M213.6432092034633 215.37157718463484L214.06437022665764 213.83721741438444"></path><path style="fill:none;stroke:#000000;stroke-width:1;" d="M234.07712470217032 212.62531706771452L234.4786774735658 211.21703117228495"></path><path style="fill:#5479ff;fill-opacity:0.4;" d="M196.13234892947074 216.1388010501965L196.44008930327746 214.36724134451444L247.95933135411394 208.09529024574786L247.68324319505626 209.5222187538235"></path><path style="fill:none;stroke:#000000;stroke-width:1;" d="M214.06437022665764 213.83721741438444L214.36270062283393 212.18534313942172"></path><path style="fill:none;stroke:#000000;stroke-width:1;" d="M234.4786774735658 211.21703117228495L234.76421724689732 209.70166307129224"></path><path style="fill:#5174ff;fill-opacity:0.4;" d="M196.44008930327746 214.36724134451444L196.64016945213018 212.44077348111924L248.14232754358162 206.5450686005961L247.95933135411394 208.09529024574786"></path><path style="fill:none;stroke:#000000;stroke-width:1;" d="M214.36270062283393 212.18534313942172L214.55807399446425 210.3896229823109"></path><path style="fill:none;stroke:#000000;stroke-width:1;" d="M234.76421724689732 209.70166307129224L234.95262731638968 208.05495833888648"></path><path style="fill:#4f71ff;fill-opacity:0.4;" d="M196.64016945213018 212.44077348111924L196.75342745774768 210.3310584970801L248.2505466611481 204.84852279736495L248.14232754358162 206.5450686005961"></path><path style="fill:none;stroke:#000000;stroke-width:1;" d="M214.55807399446425 210.3896229823109L214.6705371084186 208.42354998369075"></path><path style="fill:none;stroke:#000000;stroke-width:1;" d="M234.95262731638968 208.05495833888648L235.06294149144767 206.25251426824818"></path><path style="fill:#4d6eff;fill-opacity:0.4;" d="M196.75342745774768 210.3310584970801L196.80082963066192 208.00953183998132L248.3023941796163 202.98247505700394L248.2505466611481 204.84852279736495"></path><path style="fill:none;stroke:#000000;stroke-width:1;" d="M214.6705371084186 208.42354998369075L214.72025167227335 206.26042085839765"></path><path style="fill:none;stroke:#000000;stroke-width:1;" d="M235.06294149144767 206.25251426824818L235.11429360655814 204.26976275439733"></path><path style="fill:#4c6dff;fill-opacity:0.4;" d="M196.80082963066192 208.00953183998132L196.80342058964482 205.44735807423805L248.31633134550214 200.92357210538728L248.3023941796163 202.98247505700394"></path><path style="fill:none;stroke:#000000;stroke-width:1;" d="M214.72025167227335 206.26042085839765L214.72744980305356 203.87329691809052"></path><path style="fill:none;stroke:#000000;stroke-width:1;" d="M235.11429360655814 204.26976275439733L235.12587896791098 202.08193769787627"></path><path style="fill:#4b6cff;fill-opacity:0.4;" d="M196.80342058964482 205.44735807423805L196.78228888944946 202.61536426058885L248.3108513667875 198.6482425239214L248.31633134550214 200.92357210538728"></path><path style="fill:none;stroke:#000000;stroke-width:1;" d="M214.72744980305356 203.87329691809052L214.71240343540376 201.2349464158746"></path><path style="fill:none;stroke:#000000;stroke-width:1;" d="M235.12587896791098 202.08193769787627L235.11692793349243 199.66402674004758"></path><path style="fill:#6291ff;fill-opacity:0.4;" d="M196.78228888944946 202.61536426058885L196.78228888944946 202.61536426058885L248.3108513667875 198.6482425239214L248.3108513667875 198.6482425239214"></path><path style="fill:none;stroke:#000000;stroke-width:1;" d="M214.71240343540376 201.2349464158746L214.71240343540376 201.2349464158746"></path><path style="fill:none;stroke:#000000;stroke-width:1;" d="M235.11692793349243 199.66402674004758L235.11692793349243 199.66402674004758"></path><path style="fill:#4b6cff;fill-opacity:0.4;" d="M196.78228888944946 202.61536426058885L196.76109660455967 199.78179601824687L248.30532644118566 196.37189722961523L248.3108513667875 198.6482425239214"></path><path style="fill:none;stroke:#000000;stroke-width:1;" d="M214.71240343540376 201.2349464158746L214.6986807716664 198.59513852590942"></path><path style="fill:none;stroke:#000000;stroke-width:1;" d="M235.11692793349243 199.66402674004758L235.10674783188597 197.2450467044286"></path><path style="fill:#4c6dff;fill-opacity:0.4;" d="M196.76109660455967 199.78179601824687L196.76333635084927 197.2150987620549L248.31897612697728 194.31007631535775L248.30532644118566 196.37189722961523"></path><path style="fill:none;stroke:#000000;stroke-width:1;" d="M214.6986807716664 198.59513852590942L214.7152009631427 196.2035591926647"></path><path style="fill:none;stroke:#000000;stroke-width:1;" d="M235.10674783188597 197.2450467044286L235.10976394907925 195.05438010145383"></path><path style="fill:#4d6eff;fill-opacity:0.4;" d="M196.76333635084927 197.2150987620549L196.80988251590242 194.8857936638118L248.37009486149367 192.4390112246833L248.31897612697728 194.31007631535775"></path><path style="fill:none;stroke:#000000;stroke-width:1;" d="M214.7152009631427 196.2035591926647L214.79029671382193 194.0325357017839"></path><path style="fill:none;stroke:#000000;stroke-width:1;" d="M235.10976394907925 195.05438010145383L235.13791384968454 193.06694246581273"></path><path style="fill:#4f71ff;fill-opacity:0.4;" d="M196.80988251590242 194.8857936638118L196.92165261953582 192.76406472052005L248.477008444653 190.734715865116L248.37009486149367 192.4390112246833"></path><path style="fill:none;stroke:#000000;stroke-width:1;" d="M214.79029671382193 194.0325357017839L214.95231625154048 192.05433231700596"></path><path style="fill:none;stroke:#000000;stroke-width:1;" d="M235.13791384968454 193.06694246581273L235.20317191259883 191.2572075547189"></path><path style="fill:#5174ff;fill-opacity:0.4;" d="M196.92165261953582 192.76406472052005L197.119641168056 190.81982161727367L248.65809743802143 189.17302722059677L248.477008444653 190.734715865116"></path><path style="fill:none;stroke:#000000;stroke-width:1;" d="M214.95231625154048 192.05433231700596L215.22961667400457 190.24115845299625"></path><path style="fill:none;stroke:#000000;stroke-width:1;" d="M235.20317191259883 191.2572075547189L235.31758525131934 189.59929300944353"></path><path style="fill:#5479ff;fill-opacity:0.4;" d="M197.119641168056 190.81982161727367L197.42496926787075 189.0227401433353L248.931831617049 187.7296315056735L248.65809743802143 189.17302722059677"></path><path style="fill:none;stroke:#000000;stroke-width:1;" d="M215.22961667400457 190.24115845299625L215.65055763314152 188.56517653594975"></path><path style="fill:none;stroke:#000000;stroke-width:1;" d="M235.31758525131934 189.59929300944353L235.4933252023916 188.06701273857135"></path><path style="fill:#587eff;fill-opacity:0.4;" d="M197.42496926787075 189.0227401433353L197.85895029084338 187.34227983970044L249.31681564108794 186.380075695184L248.931831617049 187.7296315056735"></path><path style="fill:none;stroke:#000000;stroke-width:1;" d="M215.65055763314152 188.56517653594975L216.24349536157197 186.99850954643813"></path><path style="fill:none;stroke:#000000;stroke-width:1;" d="M235.4933252023916 188.06701273857135L235.7427548897566 186.63389534790275"></path><path style="fill:#5e86ff;fill-opacity:0.4;" d="M197.85895029084338 187.34227983970044L198.44317205937506 185.74767853885817L249.83184620374846 185.09976425456992L249.31681564108794 186.380075695184"></path><path style="fill:none;stroke:#000000;stroke-width:1;" d="M216.24349536157197 186.99850954643813L217.03677704456038 185.51324823944105"></path><path style="fill:none;stroke:#000000;stroke-width:1;" d="M235.7427548897566 186.63389534790275L236.0785136924562 185.2731678447384"></path><path style="fill:#628cff;fill-opacity:0.4;" d="M198.44317205937506 185.74767853885817L199.19959624919946 184.2079233662113L250.49598105413833 183.86394084965687L249.83184620374846 185.09976425456992"></path><path style="fill:none;stroke:#000000;stroke-width:1;" d="M217.03677704456038 185.51324823944105L218.05873554037512 184.0814580369664"></path><path style="fill:none;stroke:#000000;stroke-width:1;" d="M236.0785136924562 185.2731678447384L236.51361986208966 183.95770355454343"></path><path style="fill:#6692ff;fill-opacity:0.4;" d="M199.19959624919946 184.2079233662113L200.15067599694672 182.69169760477055L251.32862043964172 182.64765472951413L250.49598105413833 183.86394084965687"></path><path style="fill:none;stroke:#000000;stroke-width:1;" d="M218.05873554037512 184.0814580369664L219.3376844515792 182.6751855891139"></path><path style="fill:none;stroke:#000000;stroke-width:1;" d="M236.51361986208966 183.95770355454343L237.06159306932264 182.6599326924842"></path><path style="fill:#6995ff;fill-opacity:0.4;" d="M200.15067599694672 182.69169760477055L201.31949305456897 181.16730257577484L252.34960171621685 181.42571135001864L251.32862043964172 182.64765472951413"></path><path style="fill:none;stroke:#000000;stroke-width:1;" d="M219.3376844515792 182.6751855891139L220.9019135493818 181.26646499987123"></path><path style="fill:none;stroke:#000000;stroke-width:1;" d="M237.06159306932264 182.6599326924842L237.73659932771906 181.35171330975834"></path><path style="fill:#4767ff;fill-opacity:0.4;" d="M196.3982459795672 132.5905806579269L196.24863925634958 130.45496130701423L248.17558859393995 140.75577442117097L248.2958865290261 142.46852164628632"></path><path style="fill:none;stroke:#000000;stroke-width:1;" d="M224.99444627101894 138.03344040992408L224.86049417579372 136.13073032742162"></path><path style="fill:#496aff;fill-opacity:0.4;" d="M196.24863925634958 130.45496130701423L196.16086051602375 128.1016446081876L248.11002006311946 138.86950327615702L248.17558859393995 140.75577442117097"></path><path style="fill:none;stroke:#000000;stroke-width:1;" d="M224.86049417579372 136.13073032742162L224.785004009035 134.03476719018042"></path><path style="fill:#4563ff;fill-opacity:0.4;" d="M196.63124143123662 134.53756105916847L196.3982459795672 132.5905806579269L248.2958865290261 142.46852164628632L248.4895089510922 144.03116364683297"></path><path style="fill:none;stroke:#000000;stroke-width:1;" d="M225.20694298539618 139.76886490315104L224.99444627101894 138.03344040992408"></path><path style="fill:#4b6bff;fill-opacity:0.4;" d="M196.16086051602375 128.1016446081876L196.1134065430218 125.50168992677474L248.0806255219827 136.78636581909808L248.11002006311946 138.86950327615702"></path><path style="fill:none;stroke:#000000;stroke-width:1;" d="M224.785004009035 134.03476719018042L224.74794011406019 131.7196757460244"></path><path style="fill:#405dff;fill-opacity:0.4;" d="M196.96929689143215 136.3250550048185L196.63124143123662 134.53756105916847L248.4895089510922 144.03116364683297L248.77512762256853 145.4671806101844"></path><path style="fill:none;stroke:#000000;stroke-width:1;" d="M225.51815780989898 141.36304529902452L225.20694298539618 139.76886490315104"></path><path style="fill:#4b6cff;fill-opacity:0.4;" d="M196.1134065430218 125.50168992677474L196.08479235757432 122.62631660615318L248.06886168241184 134.48312273463915L248.0806255219827 136.78636581909808"></path><path style="fill:none;stroke:#000000;stroke-width:1;" d="M224.74794011406019 131.7196757460244L224.72928133583807 129.15970571700822"></path><path style="fill:#6291ff;fill-opacity:0.4;" d="M196.08479235757432 122.62631660615318L196.08479235757432 122.62631660615318L248.06886168241184 134.48312273463915L248.06886168241184 134.48312273463915"></path><path style="fill:none;stroke:#000000;stroke-width:1;" d="M224.72928133583807 129.15970571700822L224.72928133583807 129.15970571700822"></path><text transform="matrix(1 0 0 1 189.10262863652406 285.4342907722146)" style="fill:#000000;font:10px Roboto;text-anchor:middle;">B</text><path style="fill:#3b56ff;fill-opacity:0.4;" d="M197.43426114461246 137.98230402090715L196.96929689143215 136.3250550048185L248.77512762256853 145.4671806101844L249.17153760938655 146.80011139819197"></path><path style="fill:none;stroke:#000000;stroke-width:1;" d="M225.94841022100215 142.8420935433413L225.51815780989898 141.36304529902452"></path><path style="fill:#3750ff;fill-opacity:0.4;" d="M198.04824183724517 139.53865231804247L197.43426114461246 137.98230402090715L249.17153760938655 146.80011139819197L249.6977137523338 148.05356278364394"></path><path style="fill:none;stroke:#000000;stroke-width:1;" d="M226.5182325910262 144.23220315673223L225.94841022100215 142.8420935433413"></path><path style="fill:#6c9bff;fill-opacity:0.4;" d="M201.31949305456897 181.16730257577484L202.7299162634611 179.6025533509969L253.5793081070063 180.1726066362181L252.34960171621685 181.42571135001864"></path><path style="fill:none;stroke:#000000;stroke-width:1;" d="M220.9019135493818 181.26646499987123L222.7796845527997 179.82732371435597"></path><path style="fill:none;stroke:#000000;stroke-width:1;" d="M237.73659932771906 181.35171330975834L238.5536215800587 180.0041593518584"></path><path style="fill:#3249ef;fill-opacity:0.4;" d="M198.83370185371038 141.0235793792661L198.04824183724517 139.53865231804247L249.6977137523338 148.05356278364394L250.3728773365118 149.2512308565471"></path><path style="fill:none;stroke:#000000;stroke-width:1;" d="M227.24844928003787 145.5596752024677L226.5182325910262 144.23220315673223"></path><path style="fill:#2d43dd;fill-opacity:0.4;" d="M199.81357159377274 142.4667518600955L198.83370185371038 141.0235793792661L250.3728773365118 149.2512308565471L251.21657344843692 150.41693479808924"></path><path style="fill:none;stroke:#000000;stroke-width:1;" d="M228.16026854747153 146.85095936429843L227.24844928003787 145.5596752024677"></path><path style="fill:#70a0ff;fill-opacity:0.4;" d="M202.7299162634611 179.6025533509969L204.40678364094228 177.9646466777082L255.03879287026888 178.86244406449174L253.5793081070063 180.1726066362181"></path><path style="fill:none;stroke:#000000;stroke-width:1;" d="M222.7796845527997 179.82732371435597L224.9992272640199 178.32978806462316"></path><path style="fill:none;stroke:#000000;stroke-width:1;" d="M238.5536215800587 180.0041593518584L239.52866028211312 178.58742127321278"></path><path style="fill:#293dcd;fill-opacity:0.4;" d="M201.0113783379712 143.89809539116047L199.81357159377274 142.4667518600955L251.21657344843692 150.41693479808924L252.24875967565438 151.57466333018098"></path><path style="fill:none;stroke:#000000;stroke-width:1;" d="M229.27538813846772 148.13271054513748L228.16026854747153 146.85095936429843"></path><path style="fill:#273ac3;fill-opacity:0.4;" d="M202.45139424843413 145.34788714721873L201.0113783379712 143.89809539116047L252.24875967565438 151.57466333018098L253.48990699882512 152.7486342884426"></path><path style="fill:none;stroke:#000000;stroke-width:1;" d="M230.6161156567806 149.43186158561159L229.27538813846772 148.13271054513748"></path><path style="fill:#73a4ff;fill-opacity:0.4;" d="M204.40678364094228 177.9646466777082L206.37611099868928 176.2199989504939L256.7499204710483 177.4688334751892L255.03879287026888 178.86244406449174"></path><path style="fill:none;stroke:#000000;stroke-width:1;" d="M224.9992272640199 178.32978806462316L227.58873606101014 176.745888471551"></path><path style="fill:none;stroke:#000000;stroke-width:1;" d="M239.52866028211312 178.58742127321278L240.67896964426959 177.07041297756584"></path><text transform="matrix(1 0 0 1 188.68411759527046 223.4984370048465)" style="fill:#000000;font:10px Roboto;text-anchor:middle;">f</text><path style="fill:#273ac3;fill-opacity:0.4;" d="M204.15880498238414 146.8468703865844L202.45139424843413 145.34788714721873L253.48990699882512 152.7486342884426L254.9611139556495 153.9633679392573"></path><path style="fill:none;stroke:#000000;stroke-width:1;" d="M232.20550513957838 150.7757129345532L230.6161156567806 149.43186158561159"></path><path style="fill:#75a7ff;fill-opacity:0.4;" d="M206.37611099868928 176.2199989504939L208.66533077065847 174.33405138580875L258.73552674787703 175.96477019513273L256.7499204710483 177.4688334751892"></path><path style="fill:none;stroke:#000000;stroke-width:1;" d="M227.58873606101014 176.745888471551L230.5763667480972 175.0476643006941"></path><path style="fill:none;stroke:#000000;stroke-width:1;" d="M240.67896964426959 177.07041297756584L242.02333687938327 175.42047669214853"></path><path style="fill:#273ac3;fill-opacity:0.4;" d="M206.15990140782063 148.42639258189388L204.15880498238414 146.8468703865844L254.9611139556495 153.9633679392573L256.68423542569457 155.2437748710386"></path><path style="fill:none;stroke:#000000;stroke-width:1;" d="M234.06751160820264 152.19204038726886L232.20550513957838 150.7757129345532"></path><path style="fill:#76a9ff;fill-opacity:0.4;" d="M208.66533077065847 174.33405138580875L211.30356564853545 172.27103871882125L261.0196005394883 174.3224926467075L258.73552674787703 175.96477019513273"></path><path style="fill:none;stroke:#000000;stroke-width:1;" d="M230.5763667480972 175.0476643006941L233.99023376492627 173.20716837035326"></path><path style="fill:none;stroke:#000000;stroke-width:1;" d="M242.02333687938327 175.42047669214853L243.58241397638815 173.60297458890946"></path><path style="fill:#273ac3;fill-opacity:0.4;" d="M208.4822975236928 150.1185692700193L206.15990140782063 148.42639258189388L256.68423542569457 155.2437748710386L258.68202770288025 156.6152595415392"></path><path style="fill:none;stroke:#000000;stroke-width:1;" d="M236.22716579419824 153.70922234991022L234.06751160820264 152.19204038726886"></path><text transform="matrix(1 0 0 1 224.66595895913898 122.59632348060971)" style="fill:#000000;font:10px Roboto;text-anchor:middle;">G</text><path style="fill:#273ac3;fill-opacity:0.4;" d="M211.1551784238473 151.95647636376154L208.4822975236928 150.1185692700193L258.68202770288025 156.6152595415392L260.9783118979275 158.10384086401626"></path><path style="fill:none;stroke:#000000;stroke-width:1;" d="M238.71077174611506 155.35638850017685L236.22716579419824 153.70922234991022"></path><path style="fill:#77aaff;fill-opacity:0.4;" d="M211.30356564853545 172.27103871882125L214.32194274725 169.99371671203875L263.6274898042152 172.51331613243963L261.0196005394883 174.3224926467075"></path><path style="fill:none;stroke:#000000;stroke-width:1;" d="M233.99023376492627 173.20716837035326L237.85840775392472 171.19647111045538"></path><path style="fill:none;stroke:#000000;stroke-width:1;" d="M243.58241397638815 173.60297458890946L245.3791143414142 171.58079232966728"></path><path style="fill:#000000;fill-opacity:1;" d="M251.98866024691532 164.0872115286871L250.22397052469017 165.40898750848424L252.77002657943268 166.21174261723863"></path><path style="fill:#000000;fill-opacity:1;" d="M251.98866024691532 164.0872115286871L250.21440292869255 162.73374503250434L250.22397052469017 165.40898750848424"></path><path style="fill:#000000;fill-opacity:1;" d="M251.98866024691532 164.0872115286871L252.77002657943268 166.21174261723863L254.33518315108873 164.03279451710713"></path><path style="fill:#000000;fill-opacity:1;" d="M251.98866024691532 164.0872115286871L252.75559723618116 161.88255075062574L250.21440292869255 162.73374503250434"></path><path style="fill:#000000;fill-opacity:1;" d="M251.98866024691532 164.0872115286871L254.33518315108873 164.03279451710713L252.75559723618116 161.88255075062574"></path><path style="fill:#273ac3;fill-opacity:0.4;" d="M214.20958303567764 153.97437441447033L211.1551784238473 151.95647636376154L260.9783118979275 158.10384086401626L263.59815815903426 159.7362915746914"></path><path style="fill:none;stroke:#000000;stroke-width:1;" d="M241.546130628276 157.16359220991353L238.71077174611506 155.35638850017685"></path><path style="fill:#000000;fill-opacity:1;" d="M252.77002657943268 166.21174261723863L250.22397052469017 165.40898750848424L251.08579541531464 167.50602211129876"></path><path style="fill:#77abff;fill-opacity:0.4;" d="M214.32194274725 169.99371671203875L217.75395540600582 167.46304249382723L266.5861359486671 170.50743989288839L263.6274898042152 172.51331613243963"></path><path style="fill:none;stroke:#000000;stroke-width:1;" d="M237.85840775392472 171.19647111045538L242.20891348612253 168.98766437116106"></path><path style="fill:none;stroke:#000000;stroke-width:1;" d="M245.3791143414142 171.58079232966728L247.43909035668577 169.3137349394713"></path><path style="fill:#000000;fill-opacity:1;" d="M248.52139881613647 164.0168346858331L250.22397052469017 165.40898750848424L250.21440292869255 162.73374503250434"></path><path style="fill:#000000;fill-opacity:1;" d="M252.77002657943268 166.21174261723863L255.2110410866363 166.1259288315804L254.33518315108873 164.03279451710713"></path><path style="fill:#000000;fill-opacity:1;" d="M250.21440292869255 162.73374503250434L252.75559723618116 161.88255075062574L251.0612325579046 160.47722148137726"></path><path style="fill:#000000;fill-opacity:1;" d="M252.75559723618116 161.88255075062574L254.33518315108873 164.03279451710713L255.1975740516975 161.7809812612347"></path><path style="fill:#000000;fill-opacity:1;" d="M249.11640436726196 166.27916505887535L251.08579541531464 167.50602211129876L250.22397052469017 165.40898750848424"></path><path style="fill:#000000;fill-opacity:1;" d="M253.46632031727194 167.65076484410102L252.77002657943268 166.21174261723863L251.08579541531464 167.50602211129876"></path><path style="fill:#000000;fill-opacity:1;" d="M249.11640436726196 166.27916505887535L250.22397052469017 165.40898750848424L248.52139881613647 164.0168346858331"></path><path style="fill:#000000;fill-opacity:1;" d="M253.46632031727194 167.65076484410102L255.2110410866363 166.1259288315804L252.77002657943268 166.21174261723863"></path><path style="fill:#000000;fill-opacity:1;" d="M249.0995710906339 161.70814638351112L248.52139881613647 164.0168346858331L250.21440292869255 162.73374503250434"></path><path style="fill:#000000;fill-opacity:1;" d="M256.14131337270794 163.92792156276238L254.33518315108873 164.03279451710713L255.2110410866363 166.1259288315804"></path><path style="fill:#000000;fill-opacity:1;" d="M249.0995710906339 161.70814638351112L250.21440292869255 162.73374503250434L251.0612325579046 160.47722148137726"></path><path style="fill:#000000;fill-opacity:1;" d="M256.14131337270794 163.92792156276238L255.1975740516975 161.7809812612347L254.33518315108873 164.03279451710713"></path><path style="fill:#000000;fill-opacity:1;" d="M253.442153029419 160.2530700423554L251.0612325579046 160.47722148137726L252.75559723618116 161.88255075062574"></path><path style="fill:#000000;fill-opacity:1;" d="M253.442153029419 160.2530700423554L252.75559723618116 161.88255075062574L255.1975740516975 161.7809812612347"></path><path style="fill:#273ac3;fill-opacity:0.4;" d="M217.67872745025838 156.20796922430216L214.20958303567764 153.97437441447033L263.59815815903426 159.7362915746914L266.5680937314088 161.5402985543216"></path><path style="fill:none;stroke:#000000;stroke-width:1;" d="M244.76279475164972 159.16200969226202L241.546130628276 157.16359220991353"></path><path style="fill:#000000;fill-opacity:1;" d="M249.11640436726196 166.27916505887535L249.91447816089237 167.4215025023978L251.08579541531464 167.50602211129876"></path><path style="fill:#000000;fill-opacity:1;" d="M253.46632031727194 167.65076484410102L251.08579541531464 167.50602211129876L252.48345913412228 168.23158711636728"></path><path style="fill:#000000;fill-opacity:1;" d="M249.11640436726196 166.27916505887535L248.52139881613647 164.0168346858331L248.32061572310613 165.25304612432345"></path><path style="fill:#000000;fill-opacity:1;" d="M253.46632031727194 167.65076484410102L255.04749136220542 167.3740426817648L255.2110410866363 166.1259288315804"></path><path style="fill:#000000;fill-opacity:1;" d="M249.0995710906339 161.70814638351112L248.31046907615934 162.55330390318673L248.52139881613647 164.0168346858331"></path><path style="fill:#000000;fill-opacity:1;" d="M256.14131337270794 163.92792156276238L255.2110410866363 166.1259288315804L256.62773799488366 165.17533480766295"></path><path style="fill:#000000;fill-opacity:1;" d="M249.0995710906339 161.70814638351112L251.0612325579046 160.47722148137726L249.8889842490107 160.3529161707002"></path><path style="fill:#000000;fill-opacity:1;" d="M256.14131337270794 163.92792156276238L256.6197334978995 162.47445470692696L255.1975740516975 161.7809812612347"></path><path style="fill:#000000;fill-opacity:1;" d="M253.442153029419 160.2530700423554L252.45408852580007 159.4931956464957L251.0612325579046 160.47722148137726"></path><path style="fill:#000000;fill-opacity:1;" d="M253.442153029419 160.2530700423554L255.1975740516975 161.7809812612347L255.02546352183404 160.30361522171808"></path><path style="fill:#77abff;fill-opacity:0.4;" d="M217.75395540600582 167.46304249382723L221.6358814432041 164.63780016881626L269.92434091099125 168.2737238177017L266.5861359486671 170.50743989288839"></path><path style="fill:none;stroke:#000000;stroke-width:1;" d="M242.20891348612253 168.98766437116106L247.0697281449275 166.55286488042947"></path><path style="fill:none;stroke:#000000;stroke-width:1;" d="M247.43909035668577 169.3137349394713L249.7913128348418 166.7577890847956"></path><path style="fill:#000000;fill-opacity:1;" d="M251.08579541531464 167.50602211129876L249.91447816089237 167.4215025023978L252.48345913412228 168.23158711636728"></path><path style="fill:#000000;fill-opacity:1;" d="M248.31046907615934 162.55330390318673L248.32061572310613 165.25304612432345L248.52139881613647 164.0168346858331"></path><path style="fill:#000000;fill-opacity:1;" d="M249.11640436726196 166.27916505887535L248.32061572310613 165.25304612432345L249.91447816089237 167.4215025023978"></path><path style="fill:#000000;fill-opacity:1;" d="M255.04749136220542 167.3740426817648L256.62773799488366 165.17533480766295L255.2110410866363 166.1259288315804"></path><path style="fill:#000000;fill-opacity:1;" d="M253.46632031727194 167.65076484410102L252.48345913412228 168.23158711636728L255.04749136220542 167.3740426817648"></path><path style="fill:#000000;fill-opacity:1;" d="M251.0612325579046 160.47722148137726L252.45408852580007 159.4931956464957L249.8889842490107 160.3529161707002"></path><path style="fill:#000000;fill-opacity:1;" d="M249.0995710906339 161.70814638351112L249.8889842490107 160.3529161707002L248.31046907615934 162.55330390318673"></path><path style="fill:#000000;fill-opacity:1;" d="M255.1975740516975 161.7809812612347L256.6197334978995 162.47445470692696L255.02546352183404 160.30361522171808"></path><path style="fill:#000000;fill-opacity:1;" d="M256.14131337270794 163.92792156276238L256.62773799488366 165.17533480766295L256.6197334978995 162.47445470692696"></path><path style="fill:#000000;fill-opacity:1;" d="M253.442153029419 160.2530700423554L255.02546352183404 160.30361522171808L252.45408852580007 159.4931956464957"></path><path style="fill:#273ac3;fill-opacity:0.4;" d="M221.59837599216885 158.6947143205908L217.67872745025838 156.20796922430216L266.5680937314088 161.5402985543216L269.91633851536733 163.5446467934344"></path><path style="fill:none;stroke:#000000;stroke-width:1;" d="M248.392356759641 161.38416955866128L244.76279475164972 159.16200969226202"></path><path style="fill:#000000;fill-opacity:1;" d="M255.8565032986227 161.42380622865358L255.02546352183404 160.30361522171808L256.6197334978995 162.47445470692696"></path><path style="fill:#78abff;fill-opacity:0.4;" d="M221.6358814432041 164.63780016881626L226.0072688211442 161.47416217685887L273.6730725544262 165.77943031398328L269.92434091099125 168.2737238177017"></path><path style="fill:none;stroke:#000000;stroke-width:1;" d="M247.0697281449275 166.55286488042947L252.46877996722446 163.86421735005715"></path><path style="fill:none;stroke:#000000;stroke-width:1;" d="M249.7913128348418 166.7577890847956L252.46877996722446 163.86421735005715"></path><path style="fill:#273ac3;fill-opacity:0.4;" d="M226.0072688211442 161.47416217685887L221.59837599216885 158.6947143205908L269.91633851536733 163.5446467934344L273.6730725544262 165.77943031398328"></path><path style="fill:none;stroke:#000000;stroke-width:1;" d="M252.46877996722446 163.86421735005715L248.392356759641 161.38416955866128"></path><text transform="matrix(1 0 0 1 290.81175927182386 288.16483232002133)" style="fill:#000000;font:10px Roboto;text-anchor:middle;">E</text><path style="fill:#273ac3;fill-opacity:0.4;" d="M230.53660834805274 164.28786417233945L226.0072688211442 161.47416217685887L273.6730725544262 165.77943031398328L277.5221584119887 168.035982350488"></path><path style="fill:none;stroke:#000000;stroke-width:1;" d="M255.31729808148629 166.26466243330592L252.46877996722446 163.86421735005715"></path><path style="fill:none;stroke:#000000;stroke-width:1;" d="M257.964623040066 166.47584410058911L252.46877996722446 163.86421735005715"></path><path style="fill:#78acff;fill-opacity:0.4;" d="M226.0072688211442 161.47416217685887L230.5037124920869 158.2620546982079L277.5175439733458 163.25467459198137L273.6730725544262 165.77943031398328"></path><path style="fill:none;stroke:#000000;stroke-width:1;" d="M252.46877996722446 163.86421735005715L256.6073521708748 161.03412297373575"></path><path style="fill:#273ac3;fill-opacity:0.4;" d="M234.66569607091023 166.86904961391258L230.53660834805274 164.28786417233945L277.5221584119887 168.035982350488L281.0218546502539 170.10052019418467"></path><path style="fill:none;stroke:#000000;stroke-width:1;" d="M257.94287516477004 168.49169311455526L255.31729808148629 166.26466243330592"></path><path style="fill:none;stroke:#000000;stroke-width:1;" d="M262.904926647649 168.83759587863509L257.964623040066 166.47584410058911"></path><path style="fill:#78acff;fill-opacity:0.4;" d="M230.5037124920869 158.2620546982079L234.60716673083377 155.3144136735042L281.01608308291924 160.94425054709052L277.5175439733458 163.25467459198137"></path><path style="fill:none;stroke:#000000;stroke-width:1;" d="M256.6073521708748 161.03412297373575L260.37874800849016 158.44074822238355"></path><path style="fill:#273ac3;fill-opacity:0.4;" d="M238.40341470257428 169.23943538442947L234.66569607091023 166.86904961391258L281.0218546502539 170.10052019418467L284.18218389913085 171.9917369229395"></path><path style="fill:none;stroke:#000000;stroke-width:1;" d="M260.3436239156543 170.55852003070112L257.94287516477004 168.49169311455526"></path><path style="fill:none;stroke:#000000;stroke-width:1;" d="M267.32056328966695 170.97798611312766L262.904926647649 168.83759587863509"></path><path style="fill:#77abff;fill-opacity:0.4;" d="M234.60716673083377 155.3144136735042L238.32510627300573 152.60952301695417L284.17786752667683 158.82926154886653L281.01608308291924 160.94425054709052"></path><path style="fill:none;stroke:#000000;stroke-width:1;" d="M260.37874800849016 158.44074822238355L263.79137773451794 156.06391803140113"></path><text transform="matrix(1.0000000000000013 0 0 1 252.40994040021687 150.35817304924902)" style="fill:#000000;font:10px Roboto;text-anchor:middle;">g</text><path style="fill:#273ac3;fill-opacity:0.4;" d="M241.76091357811214 171.42240238567933L238.40341470257428 169.23943538442947L284.18218389913085 171.9917369229395L287.01475776127916 173.72941722191473"></path><path style="fill:none;stroke:#000000;stroke-width:1;" d="M262.51989205123635 172.4806831171183L260.3436239156543 170.55852003070112"></path><path style="fill:none;stroke:#000000;stroke-width:1;" d="M271.2420434392793 172.92533335665735L267.32056328966695 170.97798611312766"></path><path style="fill:#77aaff;fill-opacity:0.4;" d="M238.32510627300573 152.60952301695417L241.66744411402811 150.12364089868223L287.01380142694245 156.88950088602155L284.17786752667683 158.82926154886653"></path><path style="fill:none;stroke:#000000;stroke-width:1;" d="M263.79137773451794 156.06391803140113L266.85570341313263 153.88183110052242"></path><path style="fill:#273ac3;fill-opacity:0.4;" d="M244.7514680451698 173.44282504671938L241.76091357811214 171.42240238567933L287.01475776127916 173.72941722191473L289.5326627319796 175.3343177954668"></path><path style="fill:none;stroke:#000000;stroke-width:1;" d="M264.4742254099823 174.27588572769835L262.51989205123635 172.4806831171183"></path><path style="fill:none;stroke:#000000;stroke-width:1;" d="M274.69956001377847 174.7077890387169L271.2420434392793 172.92533335665735"></path><path style="fill:#273ac3;fill-opacity:0.4;" d="M247.39032313657728 175.32689826936058L244.7514680451698 173.44282504671938L289.5326627319796 175.3343177954668L291.7503392101284 176.8280487392117"></path><path style="fill:none;stroke:#000000;stroke-width:1;" d="M266.2112920401843 175.96380305014014L264.4742254099823 174.27588572769835"></path><path style="fill:none;stroke:#000000;stroke-width:1;" d="M277.72302943039847 176.35336219645495L274.69956001377847 174.7077890387169"></path><path style="fill:#76a9ff;fill-opacity:0.4;" d="M241.66744411402811 150.12364089868223L244.64638277134551 147.83119423148696L289.536391390363 155.10358883095904L287.01380142694245 156.88950088602155"></path><path style="fill:none;stroke:#000000;stroke-width:1;" d="M266.85570341313263 153.88183110052242L269.5841022942047 151.87122323483092"></path><path style="fill:#273ac3;fill-opacity:0.4;" d="M249.69452543966287 177.10196561929808L247.39032313657728 175.32689826936058L291.7503392101284 176.8280487392117L293.68345597322826 178.23295795818487"></path><path style="fill:none;stroke:#000000;stroke-width:1;" d="M267.73777162517194 177.56587262856007L266.2112920401843 175.96380305014014"></path><path style="fill:none;stroke:#000000;stroke-width:1;" d="M280.3421293581416 177.88994124899855L277.72302943039847 176.35336219645495"></path><path style="fill:#75a7ff;fill-opacity:0.4;" d="M244.64638277134551 147.83119423148696L247.276246664716 145.7049779413877L291.7596140983146 153.44910923820316L289.536391390363 155.10358883095904"></path><path style="fill:none;stroke:#000000;stroke-width:1;" d="M269.5841022942047 151.87122323483092L271.99071730294213 150.00753228013937"></path><path style="fill:#273ac3;fill-opacity:0.4;" d="M251.68274710317516 178.7963523593579L249.69452543966287 177.10196561929808L293.68345597322826 178.23295795818487L295.3487824296619 179.5720205599662"></path><path style="fill:none;stroke:#000000;stroke-width:1;" d="M269.06221564401187 179.10507516851166L267.73777162517194 177.56587262856007"></path><path style="fill:none;stroke:#000000;stroke-width:1;" d="M282.58633326032106 179.34531287037356L280.3421293581416 177.88994124899855"></path><path style="fill:#73a5ff;fill-opacity:0.4;" d="M247.276246664716 145.7049779413877L249.57330033064423 143.71635401820265L293.69877838336345 151.90274295145738L291.7596140983146 153.44910923820316"></path><path style="fill:none;stroke:#000000;stroke-width:1;" d="M271.99071730294213 150.00753228013937L274.09129836543923 148.2650609475146"></path><path style="fill:#273ac3;fill-opacity:0.4;" d="M253.3751058403877 180.43920663572877L251.68274710317516 178.7963523593579L295.3487824296619 179.5720205599662L296.7640608547513 180.86873496757673"></path><path style="fill:none;stroke:#000000;stroke-width:1;" d="M270.1948843991411 180.60571379000345L269.06221564401187 179.10507516851166"></path><path style="fill:none;stroke:#000000;stroke-width:1;" d="M284.4849418079349 180.74717800638706L282.58633326032106 179.34531287037356"></path><path style="fill:#293dcc;fill-opacity:0.4;" d="M254.7929846096689 182.0603517873359L253.3751058403877 180.43920663572877L296.7640608547513 180.86873496757673L297.94788067110954 182.14702729467223"></path><path style="fill:none;stroke:#000000;stroke-width:1;" d="M271.1475674470972 182.09319954956177L270.1948843991411 180.60571379000345"></path><path style="fill:none;stroke:#000000;stroke-width:1;" d="M286.0671112308935 182.12316507247363L284.4849418079349 180.74717800638706"></path><path style="fill:#71a1ff;fill-opacity:0.4;" d="M249.57330033064423 143.71635401820265L251.55555722892467 141.83544559743027L295.370384618707 150.44039549419065L293.69877838336345 151.90274295145738"></path><path style="fill:none;stroke:#000000;stroke-width:1;" d="M274.09129836543923 148.2650609475146L275.90303825715586 146.61713405408983"></path><path style="fill:#4b6cff;fill-opacity:0.4;" d="M259.3932146927152 290.57846445672857L259.1564369614997 203.90641465130614L301.5286888698628 199.34878609566897L301.43730683171316 267.74475328480804"></path><path style="fill:none;stroke:#000000;stroke-width:1;" d="M274.19481406713766 282.5398690726091L274.0906860718978 202.30006244822405"></path><path style="fill:none;stroke:#000000;stroke-width:1;" d="M290.8150613601819 273.5135848317547L290.8376973484672 200.49872658859732"></path><path style="fill:#2d43dc;fill-opacity:0.4;" d="M255.95885439801168 183.6901523718189L254.7929846096689 182.0603517873359L297.94788067110954 182.14702729467223L298.91955665720377 183.43116531368244"></path><path style="fill:none;stroke:#000000;stroke-width:1;" d="M271.93339405606326 183.59385043042693L271.1475674470972 182.09319954956177"></path><path style="fill:none;stroke:#000000;stroke-width:1;" d="M287.36187866245876 183.5008403623976L286.0671112308935 182.12316507247363"></path><path style="fill:#3249ee;fill-opacity:0.4;" d="M256.89610321673393 185.3593961076802L255.95885439801168 183.6901523718189L298.91955665720377 183.43116531368244L299.6990127696425 184.7456831342563"></path><path style="fill:none;stroke:#000000;stroke-width:1;" d="M272.56664011559013 185.13471017170525L271.93339405606326 183.59385043042693"></path><path style="fill:none;stroke:#000000;stroke-width:1;" d="M288.39818452194794 184.90771569182044L287.36187866245876 183.5008403623976"></path><path style="fill:#6d9bff;fill-opacity:0.4;" d="M251.55555722892467 141.83544559743027L253.24258379804616 140.03132168598347L296.79198411073696 149.03731675718643L295.370384618707 150.44039549419065"></path><path style="fill:none;stroke:#000000;stroke-width:1;" d="M275.90303825715586 146.61713405408983L277.4444065302309 145.03624700470635"></path><path style="fill:#3650ff;fill-opacity:0.4;" d="M257.62887406030785 187.09919353867957L256.89610321673393 185.3593961076802L299.6990127696425 184.7456831342563L300.3066730531193 186.11531750209392"></path><path style="fill:none;stroke:#000000;stroke-width:1;" d="M273.06253748628956 186.7433923502418L272.56664011559013 185.13471017170525"></path><path style="fill:none;stroke:#000000;stroke-width:1;" d="M289.2048919717679 186.3712532960462L288.39818452194794 184.90771569182044"></path><path style="fill:#3b56ff;fill-opacity:0.4;" d="M258.18191419712707 188.94089684929494L257.62887406030785 187.09919353867957L300.3066730531193 186.11531750209392L300.76336089528985 187.56495643351468"></path><path style="fill:none;stroke:#000000;stroke-width:1;" d="M273.4370911570258 188.44795412055691L273.06253748628956 186.7433923502418"></path><path style="fill:none;stroke:#000000;stroke-width:1;" d="M289.8108034771218 187.91886799773732L289.2048919717679 186.3712532960462"></path><path style="fill:#4b6cff;fill-opacity:0.4;" d="M259.1564369614997 203.90641465130614L259.14358989056194 200.78634447776295L301.52835569851203 196.89116130544684L301.5286888698628 199.34878609566897"></path><path style="fill:none;stroke:#000000;stroke-width:1;" d="M274.0906860718978 202.30006244822405L274.08399268121474 199.41331328534193"></path><path style="fill:none;stroke:#000000;stroke-width:1;" d="M290.8376973484672 200.49872658859732L290.8337438170643 197.87400198985267"></path><path style="fill:#405dff;fill-opacity:0.4;" d="M258.5804377718848 190.91603891264373L258.18191419712707 188.94089684929494L300.76336089528985 187.56495643351468L301.09020766951846 189.11960072443898"></path><path style="fill:none;stroke:#000000;stroke-width:1;" d="M273.70690883485923 190.27680303026335L273.4370911570258 188.44795412055691"></path><path style="fill:none;stroke:#000000;stroke-width:1;" d="M290.24467449026525 189.57792665802015L289.8108034771218 187.91886799773732"></path><path style="fill:#4b6bff;fill-opacity:0.4;" d="M259.14358989056194 200.78634447776295L259.1055954340817 197.95944883968957L301.5060079050832 194.66483029813537L301.52835569851203 196.89116130544684"></path><path style="fill:none;stroke:#000000;stroke-width:1;" d="M274.08399268121474 199.41331328534193L274.0599635415292 196.7974568784623"></path><path style="fill:none;stroke:#000000;stroke-width:1;" d="M290.8337438170643 197.87400198985267L290.8011013245397 195.49662842580653"></path><path style="fill:#6996ff;fill-opacity:0.4;" d="M253.24258379804616 140.03132168598347L254.6553031912154 138.27216858457393L297.98204099687825 147.6682106604249L296.79198411073696 149.03731675718643"></path><path style="fill:none;stroke:#000000;stroke-width:1;" d="M277.4444065302309 145.03624700470635L278.73498486362837 143.4942026823619"></path><path style="fill:#4463ff;fill-opacity:0.4;" d="M258.850003318208 193.05629334583602L258.5804377718848 190.91603891264373L301.09020766951846 189.11960072443898L301.3085716028867 190.80433871832435"></path><path style="fill:none;stroke:#000000;stroke-width:1;" d="M273.889046788498 192.2586394233299L273.70690883485923 190.27680303026335"></path><path style="fill:none;stroke:#000000;stroke-width:1;" d="M290.5352242759292 191.37574492317012L290.24467449026525 189.57792665802015"></path><path style="fill:#496aff;fill-opacity:0.4;" d="M259.1055954340817 197.95944883968957L259.01640742028746 195.39345609101335L301.43996751556716 192.64433458943293L301.5060079050832 194.66483029813537"></path><path style="fill:none;stroke:#000000;stroke-width:1;" d="M274.0599635415292 196.7974568784623L274.0008749542415 194.42243617201535"></path><path style="fill:none;stroke:#000000;stroke-width:1;" d="M290.8011013245397 195.49662842580653L290.7111438904815 193.33958127896452"></path><path style="fill:#4767ff;fill-opacity:0.4;" d="M259.01640742028746 195.39345609101335L258.850003318208 193.05629334583602L301.3085716028867 190.80433871832435L301.43996751556716 192.64433458943293"></path><path style="fill:none;stroke:#000000;stroke-width:1;" d="M274.0008749542415 194.42243617201535L273.889046788498 192.2586394233299"></path><path style="fill:none;stroke:#000000;stroke-width:1;" d="M290.7111438904815 193.33958127896452L290.5352242759292 191.37574492317012"></path><path style="fill:#6692ff;fill-opacity:0.4;" d="M254.6553031912154 138.27216858457393L255.8158027990622 136.52544455042286L298.9597989238425 146.30733304327214L297.98204099687825 147.6682106604249"></path><path style="fill:none;stroke:#000000;stroke-width:1;" d="M278.73498486362837 143.4942026823619L279.79530690438264 141.96223428574692"></path><path style="fill:#638dff;fill-opacity:0.4;" d="M255.8158027990622 136.52544455042286L256.74714926375947 134.758014757659L299.7451545276982 144.92857631422348L298.9597989238425 146.30733304327214"></path><path style="fill:none;stroke:#000000;stroke-width:1;" d="M279.79530690438264 141.96223428574692L280.6467053464459 140.41111203092683"></path><path style="fill:#5e86ff;fill-opacity:0.4;" d="M256.74714926375947 134.758014757659L257.47321423789316 132.93626412321532L300.3585394686947 143.50553965852433L299.7451545276982 144.92857631422348"></path><path style="fill:none;stroke:#000000;stroke-width:1;" d="M280.6467053464459 140.41111203092683L281.3111686434849 138.81123200453325"></path><path style="fill:#597eff;fill-opacity:0.4;" d="M257.47321423789316 132.93626412321532L258.0185136646198 131.02618604998926L300.8208125017087 142.01158384939166L300.3585394686947 143.50553965852433"></path><path style="fill:none;stroke:#000000;stroke-width:1;" d="M281.3111686434849 138.81123200453325L281.81120939014636 137.1326858027214"></path><path style="fill:#5479ff;fill-opacity:0.4;" d="M258.0185136646198 131.02618604998926L258.40806287618534 128.99344557656852L301.15316279750164 140.41986992834055L300.8208125017087 142.01158384939166"></path><path style="fill:none;stroke:#000000;stroke-width:1;" d="M281.81120939014636 137.1326858027214L282.169746048004 135.3453099009788"></path><path style="fill:#5174ff;fill-opacity:0.4;" d="M258.40806287618534 128.99344557656852L258.6672493457777 126.80341579768529L301.3770254792984 138.70338120588363L301.15316279750164 140.41986992834055"></path><path style="fill:none;stroke:#000000;stroke-width:1;" d="M282.169746048004 135.3453099009788L282.4099993508362 133.41871396437242"></path><path style="fill:#4f71ff;fill-opacity:0.4;" d="M258.6672493457777 126.80341579768529L258.82172449980663 124.42118671904902L301.51401011067037 136.8349281806934L301.3770254792984 138.70338120588363"></path><path style="fill:none;stroke:#000000;stroke-width:1;" d="M282.4099993508362 133.41871396437242L282.55540441013136 131.3222875180473"></path><path style="fill:#4d6eff;fill-opacity:0.4;" d="M258.82172449980663 124.42118671904902L258.8973156176178 121.81154592492507L301.5858426699791 134.78713607959259L301.51401011067037 136.8349281806934"></path><path style="fill:none;stroke:#000000;stroke-width:1;" d="M282.55540441013136 131.3222875180473L282.62953926459585 129.02518454788296"></path><path style="fill:#4c6dff;fill-opacity:0.4;" d="M258.8973156176178 121.81154592492507L258.9199585236593 118.93893056011984L301.6143213780172 132.53241477992233L301.5858426699791 134.78713607959259"></path><path style="fill:none;stroke:#000000;stroke-width:1;" d="M282.62953926459585 129.02518454788296L282.65607038364857 126.49628568704607"></path><path style="fill:#4b6cff;fill-opacity:0.4;" d="M258.9199585236593 118.93893056011984L258.9156515206377 115.76735015533905L301.62128661198824 130.0429108882123L301.6143213780172 132.53241477992233"></path><path style="fill:none;stroke:#000000;stroke-width:1;" d="M282.65607038364857 126.49628568704607L282.6587154492041 123.70413766292941"></path><path style="fill:#6291ff;fill-opacity:0.4;" d="M258.9156515206377 115.76735015533905L258.9156515206377 115.76735015533905L301.62128661198824 130.0429108882123L301.62128661198824 130.0429108882123"></path><path style="fill:none;stroke:#000000;stroke-width:1;" d="M282.6587154492041 123.70413766292941L282.6587154492041 123.70413766292941"></path><text transform="matrix(1 0 0 1 282.6532828288152 116.18422615918399)" style="fill:#000000;font:10px Roboto;text-anchor:middle;">H</text><text transform="matrix(1 0 0 1 274.2099918525168 298.2356917089967)" style="fill:#000000;font:10px Roboto;text-anchor:middle;">D</text><text transform="matrix(1 0 0 1 274.20695904400543 295.89864519308566)" style="display: none;">D</text><text transform="matrix(1 0 0 1 276.7016570775108 291.41255913439727)" style="display: none;">D</text></g></svg>