<svg width="108.00000000000001" height="160" xmlns="http://www.w3.org/2000/svg" data-reactroot=""><g id="sheet_undefined" transform=""><g></g><g></g><path d="M 46.45 0 L 46.45 0 C 46.45 10 46.45 10 46.550000000000004 20 " stroke="black" fill="none"></path><path d="M 46.550000000000004 20 C 25 30 25 30 25 40 L 25 120 C 25 130 25 130 39.400000000000006 140 " stroke="black" fill="none"></path><path d="M 46.550000000000004 20 C 68.30000000000001 30 68.30000000000001 30 68.30000000000001 40 L 68.30000000000001 40 C 68.30000000000001 50 68.30000000000001 50 68.4 60 " stroke="black" fill="none"></path><path d="M 68.4 60 C 54.00000000000001 70 54.00000000000001 70 54.00000000000001 80 L 54.00000000000001 80 C 54.00000000000001 90 54.00000000000001 90 68.4 100 " stroke="black" fill="none"></path><path d="M 68.4 60 C 83 70 83 70 83 80 L 83 80 C 83 90 83 90 68.4 100 " stroke="black" fill="none"></path><path d="M 68.4 100 C 54.00000000000001 110 54.00000000000001 110 54.00000000000001 120 L 54.00000000000001 120 C 54.00000000000001 130 54.00000000000001 130 39.400000000000006 140 " stroke="black" fill="none"></path><path d="M 68.4 100 C 83.00000000000001 110 83.00000000000001 110 83.00000000000001 120 L 83.00000000000001 160 " stroke="black" fill="none"></path><path d="M 39.400000000000006 140 C 39.3 150 39.3 150 39.3 160 L 39.3 160 " stroke="black" fill="none"></path><circle cx="46.550000000000004" cy="20" r="4" fill="white" stroke="black"></circle><circle cx="68.4" cy="60" r="4" fill="white" stroke="black"></circle><circle cx="68.4" cy="100" r="4" fill="none" stroke="none"></circle><circle cx="39.400000000000006" cy="140" r="4" fill="white" stroke="black"></circle></g></svg>